<?xml version="1.0" encoding="UTF-8" standalone="no"?>
<svg
   xmlns:dc="http://purl.org/dc/elements/1.1/"
   xmlns:cc="http://creativecommons.org/ns#"
   xmlns:rdf="http://www.w3.org/1999/02/22-rdf-syntax-ns#"
   xmlns:svg="http://www.w3.org/2000/svg"
   xmlns="http://www.w3.org/2000/svg"
   xmlns:sodipodi="http://sodipodi.sourceforge.net/DTD/sodipodi-0.dtd"
   xmlns:inkscape="http://www.inkscape.org/namespaces/inkscape"
   aria-hidden="true"
   role="img"
   class="iconify iconify--logos"
   width="31.88"
   height="32"
   preserveAspectRatio="xMidYMid meet"
   viewBox="0 0 256 257"
   version="1.1"
   id="svg851"
   sodipodi:docname="favicon.svg"
   inkscape:version="1.0.2-2 (e86c870879, 2021-01-15)">
  <metadata
     id="metadata855">
    <rdf:RDF>
      <cc:Work
         rdf:about="">
        <dc:format>image/svg+xml</dc:format>
        <dc:type
           rdf:resource="http://purl.org/dc/dcmitype/StillImage" />
        <dc:title></dc:title>
      </cc:Work>
    </rdf:RDF>
  </metadata>
  <sodipodi:namedview
     pagecolor="#ffffff"
     bordercolor="#666666"
     borderopacity="1"
     objecttolerance="10"
     gridtolerance="10"
     guidetolerance="10"
     inkscape:pageopacity="0"
     inkscape:pageshadow="2"
     inkscape:window-width="1920"
     inkscape:window-height="1017"
     id="namedview853"
     showgrid="true"
     inkscape:zoom="19.121387"
     inkscape:cx="17.125"
     inkscape:cy="15.875"
     inkscape:window-x="-8"
     inkscape:window-y="-8"
     inkscape:window-maximized="1"
     inkscape:current-layer="svg851">
    <inkscape:grid
       type="xygrid"
       id="grid897" />
  </sodipodi:namedview>
  <defs
     id="defs845">
    <linearGradient
       id="IconifyId1813088fe1fbc01fb466"
       x1="-.828%"
       x2="57.636%"
       y1="7.652%"
       y2="78.411%">
      <stop
         offset="0%"
         stop-color="#41D1FF"
         id="stop833" />
      <stop
         offset="100%"
         stop-color="#BD34FE"
         id="stop835" />
    </linearGradient>
    <linearGradient
       id="IconifyId1813088fe1fbc01fb467"
       x1="43.376%"
       x2="50.316%"
       y1="2.242%"
       y2="89.03%">
      <stop
         offset="0%"
         stop-color="#FFEA83"
         id="stop838" />
      <stop
         offset="8.333%"
         stop-color="#FFDD35"
         id="stop840" />
      <stop
         offset="100%"
         stop-color="#FFA800"
         id="stop842" />
    </linearGradient>
    <pattern
       id="EMFhbasepattern"
       patternUnits="userSpaceOnUse"
       width="6"
       height="6"
       x="0"
       y="0" />
    <pattern
       id="EMFhbasepattern-2"
       patternUnits="userSpaceOnUse"
       width="6"
       height="6"
       x="0"
       y="0" />
  </defs>
  <rect
     style="fill:#ffffff;fill-opacity:1;stroke-width:663.166"
     id="rect891"
     width="297.64102"
     height="297.15625"
     x="-20.321054"
     y="-16.0625" />
  <path
     style="fill:#ffffff;fill-opacity:1;fill-rule:evenodd;stroke:none;stroke-width:0.374319"
     d="m 252.52899,86.561687 -34.053,26.616133 -60.66911,46.96961 V 120.22324 H 115.9256 L 115.53419,65.425343 47.81964,113.17782 H 19.246431 V 59.945553 H 157.80688 V 12.975906 Z M 3.1984639,176.97824 97.920578,103.39246 v 38.74995 h 43.055492 v 56.36357 l 63.40904,-48.14386 h 32.48734 v 53.23225 H 97.920578 v 46.96967 z m -22.7019939,-45.01258 0.391405,-7.82829 v -3.5227 l 0.391425,-3.91415 0.78282,-7.43685 1.565661,-7.04544 1.56565,-7.045457 1.957076,-7.045437 1.174224,-3.522737 1.174255,-3.522725 1.1742248,-3.131312 1.5656821,-3.522704 2.7398835,-6.654034 3.5227382,-6.26261 3.5227035,-6.262646 3.5227238,-5.871182 4.3055682,-5.871217 4.3055349,-5.479791 4.696982,-5.479812 4.696961,-5.088352 5.088353,-4.696963 5.479812,-4.696981 5.479791,-4.305534 5.871218,-4.3055693 3.131298,-1.9570741 2.739886,-1.5656497 6.262642,-3.5227051 3.131299,-1.95708544 3.13131,-1.56565016 3.522705,-1.5656501 3.131331,-1.1742557 6.654016,-2.739885 7.045461,-2.3484798 7.045438,-1.9570756 7.045437,-1.565651 7.045445,-1.56566 7.43686,-0.78282 7.43686,-0.391425 7.82828,-0.391405 7.43686,0.391405 h 3.91413 l 3.52272,0.391425 7.43687,0.78282 7.43687,1.56566 7.04545,1.565651 7.04544,1.9570756 3.1313,1.1742242 3.52273,1.1742556 3.52274,1.1742232 3.13129,1.5656618 6.65403,2.7399058 6.26265,3.5227356 6.2626,3.5227051 5.87121,3.5227238 5.87119,4.3055693 5.47983,4.305534 5.47977,4.696981 5.08836,4.696963 4.69698,5.088352 4.69695,5.479812 4.30557,5.479791 4.30553,5.871217 1.95709,3.131299 1.95705,2.739883 3.52273,6.262646 1.56565,3.131299 1.56566,3.131311 1.56564,3.522703 1.56567,3.131331 2.34847,6.654016 2.34852,7.045462 1.95704,7.045437 1.9571,7.045457 1.1742,7.04544 0.78284,7.43685 0.78283,7.43685 v 7.82829 7.43685 l -0.3914,3.91414 -0.39143,3.52273 -0.78284,7.43687 -1.1742,7.04544 -1.9571,7.43687 -1.95704,7.04544 -1.17425,3.13129 -1.17427,3.52274 -1.17422,3.52274 -1.17425,3.1313 -3.13131,6.65401 -3.13131,6.26266 -3.52273,6.2626 -3.91414,5.87122 -4.30553,5.87118 -4.30557,5.47981 -4.69695,5.47978 -4.69698,5.08836 -5.08836,4.69698 -5.47977,4.69695 -5.47983,4.30558 -5.87119,4.30552 -2.73988,1.95709 -3.13133,1.95706 -6.2626,3.52272 -3.13135,1.56566 -3.1313,1.56565 -3.1313,1.56566 -3.52273,1.56565 -6.65403,2.34848 -6.65403,2.3485 -7.04544,1.95706 -7.04545,1.56565 -7.43687,1.56566 -7.43687,0.78282 -7.43685,0.78284 h -7.43686 -7.82828 l -3.52273,-0.39141 -3.91413,-0.39143 -7.43686,-0.78282 -7.045445,-1.56566 -7.045437,-1.56565 -7.045438,-1.95706 -3.522736,-1.17424 -3.522725,-1.17426 -3.13131,-1.17424 -3.522706,-1.17424 -6.654036,-3.13131 -6.262609,-3.13131 -6.262642,-3.52272 -5.871184,-3.91415 -5.871218,-4.30552 -5.479791,-4.30558 -5.479812,-4.69695 -5.088353,-4.69698 -4.696961,-5.08836 -4.696982,-5.47978 -4.3055349,-5.47981 -4.3055682,-5.87118 -1.9570747,-2.73992 -1.5656491,-3.1313 -3.5227035,-6.2626 -1.9570869,-3.13136 -1.5656513,-3.1313 -1.5656491,-3.13131 -1.1742344,-3.5227 -2.7399069,-6.65404 -2.348479,-6.65403 -1.957076,-7.04544 -1.56565,-7.43687 -1.565661,-7.04544 -0.78282,-7.43687 -0.391425,-7.43687 z"
     id="path877" />
  <path
     style="fill:#ffffff;fill-opacity:1;stroke-width:17.0481"
     d="M 50.56635,213.4102 3.6801319,176.98761 8.097386,173.54858 c 2.429489,-1.89146 23.528288,-18.28803 46.886218,-36.4368 l 42.468967,-32.99777 0.126708,19.061 0.126709,19.06099 h 21.566142 21.56614 v 28.11592 c 0,15.46377 0.1636,28.11202 0.36354,28.1072 0.19994,-0.004 14.54273,-10.79462 31.8728,-23.97736 l 31.50922,-23.96864 16.1182,-0.0186 16.11817,-0.0186 v 26.41927 26.41928 H 167.26218 97.704157 l -0.125871,23.25867 -0.125882,23.25868 z"
     id="path893" />
  <path
     style="fill:#ffffff;fill-opacity:1;stroke-width:17.0481"
     d="m 157.80485,139.87156 v -19.9344 h -20.84456 -20.84457 l -0.0602,-18.78435 C 116.0221,90.821422 115.85858,78.501981 115.69193,73.77628 L 115.38858,65.184096 81.378869,89.167328 47.369148,113.15056 H 33.509079 19.649011 V 86.731281 60.312002 H 88.726932 157.80485 V 37.003254 c 0,-14.169889 0.17686,-23.245396 0.45104,-23.147165 0.94364,0.338068 93.53385,72.40717 93.44399,72.73365 -0.1167,0.424162 -20.0065,15.983221 -61.17389,47.854271 -17.33007,13.41663 -31.78189,24.61169 -32.11518,24.87793 -0.48275,0.38569 -0.60593,-3.56787 -0.60593,-19.45038 z"
     id="path895" />
  <path
     style="fill:#5c3556;fill-opacity:1;stroke-width:1.83922"
     d="m 19.687576,17.343163 v -2.409517 h -2.58144 -2.58144 l -0.03298,-0.274562 c -0.01814,-0.151009 -0.03637,-1.415954 -0.04052,-2.810989 -0.0042,-1.395034 -0.02201,-2.814003 -0.03968,-3.1532639 L 14.379383,8.0779935 13.987152,8.3536404 C 13.771425,8.505246 11.866862,9.8477297 9.7547894,11.336937 L 5.914657,14.044589 H 4.198184 2.481711 V 10.802302 7.5600149 l 8.589858,-0.01323 8.589858,-0.01323 0.02615,-2.8502116 c 0.02189,-2.385682 0.03791,-2.8477124 0.0983,-2.8348772 0.03968,0.00843 0.47506,0.3256504 0.967503,0.7049255 2.303025,1.7737687 9.207947,7.1554029 10.215889,7.9621724 0.305944,0.24488 0.319998,0.265614 0.235339,0.347169 -0.304597,0.29343 -11.338092,8.849469 -11.442286,8.873039 -0.06396,0.01447 -0.07475,-0.330809 -0.07475,-2.392609 z"
     id="path903"
     transform="matrix(8.03125,0,0,8.03125,-0.01812163,0)" />
  <path
     style="fill:#5c3556;fill-opacity:1;stroke-width:1.83922"
     d="M 6.3255743,26.556268 C 3.161578,24.098693 0.57285369,22.065112 0.57285369,22.037198 c 0,-0.02791 2.58872431,-2.062369 5.75272061,-4.521013 l 5.7527207,-4.470263 0.03229,1.610655 c 0.01776,0.885859 0.03541,1.946011 0.03922,2.355893 l 0.0069,0.745239 h 2.667171 2.66717 l 5.2e-5,1.398957 c 1.05e-4,2.330586 0.06639,5.556605 0.114146,5.556605 0.04716,0 1.903793,-1.395354 5.660242,-4.253965 l 2.244401,-1.707946 h 1.978639 1.978639 v 3.268592 3.268591 h -8.65523 -8.65523 l -0.0074,0.902131 c -0.0041,0.496172 -0.02171,1.786782 -0.03922,2.868022 l -0.03185,1.96589 z"
     id="path905"
     transform="matrix(8.03125,0,0,8.03125,-0.01812163,0)" />
</svg>
