<?xml version="1.0" encoding="UTF-8" standalone="no"?>
<svg
   xmlns:dc="http://purl.org/dc/elements/1.1/"
   xmlns:cc="http://creativecommons.org/ns#"
   xmlns:rdf="http://www.w3.org/1999/02/22-rdf-syntax-ns#"
   xmlns:svg="http://www.w3.org/2000/svg"
   xmlns="http://www.w3.org/2000/svg"
   xmlns:sodipodi="http://sodipodi.sourceforge.net/DTD/sodipodi-0.dtd"
   xmlns:inkscape="http://www.inkscape.org/namespaces/inkscape"
   width="810mm"
   height="670mm"
   viewBox="0 0 810 670"
   version="1.1"
   id="svg2269"
   inkscape:version="1.0.2-2 (e86c870879, 2021-01-15)"
   sodipodi:docname="pic-vinilos.svg">
  <defs
     id="defs2263">
    <pattern
       id="EMFhbasepattern"
       patternUnits="userSpaceOnUse"
       width="6"
       height="6"
       x="0"
       y="0" />
  </defs>
  <sodipodi:namedview
     id="base"
     pagecolor="#ffffff"
     bordercolor="#666666"
     borderopacity="1.0"
     inkscape:pageopacity="0.0"
     inkscape:pageshadow="2"
     inkscape:zoom="0.0875"
     inkscape:cx="1841.9917"
     inkscape:cy="753.58605"
     inkscape:document-units="mm"
     inkscape:current-layer="layer1"
     inkscape:document-rotation="0"
     showgrid="false"
     inkscape:window-width="1298"
     inkscape:window-height="1040"
     inkscape:window-x="78"
     inkscape:window-y="0"
     inkscape:window-maximized="0" />
  <metadata
     id="metadata2266">
    <rdf:RDF>
      <cc:Work
         rdf:about="">
        <dc:format>image/svg+xml</dc:format>
        <dc:type
           rdf:resource="http://purl.org/dc/dcmitype/StillImage" />
        <dc:title></dc:title>
      </cc:Work>
    </rdf:RDF>
  </metadata>
  <g
     inkscape:label="Capa 1"
     inkscape:groupmode="layer"
     id="layer1">
    <path
       style="fill:#000000;fill-opacity:1;fill-rule:nonzero;stroke:none;stroke-width:1.62495"
       d="m 189.03308,309.91552 v -15.29251 l 1.6992,-15.29251 1.69917,-15.29251 3.39832,-15.29251 3.39833,-15.2925 3.39836,-13.59331 5.09749,-15.29251 5.09753,-13.59335 6.79662,-13.59331 6.79669,-13.59334 15.29248,-25.48751 8.49581,-11.89416 8.49589,-11.89417 10.19498,-10.19501 10.19502,-10.194996 10.19502,-10.195 11.89418,-10.195 11.89411,-8.495834 11.89418,-8.49583 11.89414,-8.495834 13.59338,-6.796668 11.89412,-6.796668 13.59337,-6.796668 28.88584,-10.195005 28.88579,-8.4958294 15.2925,-1.6991637 15.2925,-1.6991707 15.2925,-1.6991672 h 16.9917 15.2925 l 15.29249,1.6991672 15.2925,1.6991707 15.2925,1.6991637 15.29254,3.3983304 13.59329,5.097499 15.2925,5.097501 13.59334,5.097504 13.59337,6.796668 13.5933,6.796668 25.48751,15.292502 11.89417,8.49583 10.19501,8.495834 11.89418,10.195 10.19497,10.195 10.19501,10.194996 10.19505,10.19501 8.49577,11.89417 8.49581,11.89416 8.49589,13.59334 6.79661,11.89417 6.79669,13.59334 6.79669,13.59331 10.19501,28.88586 6.79665,28.88581 3.39836,15.29251 1.69912,15.29251 1.69921,15.29251 v 15.29251 16.99164 l -1.69921,15.2925 -1.69912,15.29248 -3.39836,15.29251 -3.39833,13.59337 -3.39832,15.2925 -5.09749,13.59333 -5.09752,15.2925 -6.79669,13.5933 -6.79669,11.89417 -15.2925,25.48755 -8.49581,11.89418 -8.49577,11.89409 -10.19505,11.89421 -10.19501,10.19502 -10.19497,10.19497 -11.89418,10.19501 -10.19501,8.49581 -11.89417,8.49585 -13.59334,8.49585 -11.89417,6.79669 -13.5933,6.79661 -13.59337,6.79668 -28.88584,10.19502 -28.88583,6.79668 -15.2925,3.39829 -15.2925,1.6992 -15.29249,1.69916 h -15.2925 -16.9917 l -15.2925,-1.69916 -15.2925,-1.6992 -15.2925,-3.39829 -15.29249,-3.3984 -13.5933,-3.39828 -13.59334,-5.09749 -15.2925,-5.09753 -13.59337,-6.79668 -11.89412,-6.79661 -25.48752,-15.29254 -11.89418,-8.49585 -11.89411,-8.49581 -11.89418,-10.19501 -10.19502,-10.19497 -10.19502,-10.19502 -10.19498,-11.89421 -8.49589,-11.89409 -8.49581,-11.89418 -8.49579,-11.89421 -6.79669,-13.59334 -6.79669,-11.89417 -6.79662,-13.5933 -10.19502,-28.88583 -6.79669,-28.88587 -3.39832,-15.29251 -1.69917,-15.29248 -1.6992,-15.2925 z m 275.26502,0 v 6.79662 l 1.6992,6.79669 3.39836,5.09752 3.39833,5.09749 5.09748,3.3983 5.09753,3.39839 6.79661,1.69913 h 6.79669 5.09748 l 6.79669,-1.69913 5.09753,-3.39839 5.09748,-3.3983 3.39833,-5.09749 3.39832,-5.09752 1.69916,-6.79669 1.6992,-6.79662 -1.6992,-6.79669 -1.69916,-5.09749 -3.39832,-5.09749 -3.39833,-5.09753 -5.09748,-3.39833 -5.09753,-3.39833 -6.79669,-1.69916 -5.09748,-1.69916 -6.79669,1.69916 -6.79661,1.69916 -5.09753,3.39833 -5.09748,3.39833 -3.39833,5.09753 -3.39836,5.09749 -1.6992,5.09749 z m 135.9334,71.36501 -10.19501,11.8941 -10.19498,10.19505 -11.89421,10.19497 -11.89417,8.49589 -6.79665,3.39833 -6.79669,1.69916 -15.2925,5.09752 -15.29249,3.39829 h -8.49582 -6.79668 -18.69083 l -8.49581,-1.6992 -8.49585,-3.39829 -8.49584,-1.6992 -6.79669,-3.39828 -8.49581,-3.39833 -6.79669,-5.09748 -13.5933,-8.49589 -6.79668,-6.79665 -6.79669,-5.09749 -10.19501,-13.59337 -5.09753,-6.79662 -3.39828,-6.79669 -129.13668,57.77168 8.49585,16.99162 10.19502,15.29254 10.19498,15.29249 11.89415,13.59334 13.59338,13.59334 13.59331,11.89417 13.5933,11.89413 15.29251,10.19502 16.99167,10.19497 15.29251,6.79669 16.99166,8.49585 18.69086,5.09748 18.69078,5.09753 18.6909,3.39836 18.69082,1.69912 20.38999,1.69921 20.39002,-1.69921 18.69078,-1.69912 20.39003,-3.39836 18.69086,-5.09753 18.69082,-6.79665 16.99166,-8.49585 8.49585,-3.39832 8.49581,-5.09749 8.49589,-5.09752 8.49577,-5.09749 15.2925,-10.19497 15.29254,-11.89421 13.59329,-13.59334 11.89418,-15.29246 11.89417,-13.59333 10.19501,-16.9917 10.19505,-16.9917 8.49577,-16.99158 z m 15.29246,-30.58502 -3.39833,8.49583 -3.39832,8.49581 139.33168,30.585 3.39833,-11.89413 3.39828,-11.89418 z m -208.99749,-129.13668 8.49581,-6.79669 10.19501,-8.49582 5.09749,-3.39833 5.09753,-3.39832 10.19497,-5.09753 11.89421,-3.39833 11.89417,-3.39832 13.59334,-1.69917 13.5933,-1.69916 15.2925,1.69916 8.49581,1.69917 8.49588,1.69916 15.2925,5.09749 6.79661,3.39836 6.79669,3.39833 6.79669,3.39833 6.79665,5.09749 6.79668,5.09749 5.09749,5.09753 11.89417,11.89418 3.39833,6.79665 5.09748,6.79666 129.13675,-59.47084 -8.49589,-15.2925 -10.19505,-15.2925 -11.89409,-13.59333 -11.89418,-13.59334 -11.89417,-13.59333 -13.59337,-11.89417 -13.5933,-10.194998 -15.29246,-10.195 -15.29254,-8.495838 -8.49585,-3.398336 L 603.62978,65.23548 586.63812,58.438812 569.6465,53.34131 552.6548,48.243816 533.96398,44.84548 515.27312,43.146318 H 496.5823 479.5906 l -15.2925,1.699162 -15.2925,1.69917 -15.2925,3.398332 -15.29249,5.097498 -15.2925,5.097502 -13.59334,5.097498 -13.5933,6.796672 -13.59337,6.79666 -13.59332,8.495842 -11.89418,8.49583 -11.89414,8.495826 -10.19498,10.19501 -11.89418,10.195 -10.19502,11.89417 -8.49582,11.89417 z m -25.4875,37.38167 6.7966,-13.59334 -141.03078,-33.98335 -3.39833,11.89418 -5.09749,13.59335 z"
       id="path2835" />
    <path
       style="fill:#000000;fill-opacity:1;fill-rule:nonzero;stroke:none;stroke-width:1.62495"
       d="m 161.84646,386.37802 -112.145012,56.07251 3.398329,10.19501 5.09749,11.89413 107.047493,-64.56835 6.79669,20.39002 8.49582,20.38998 10.19501,20.39003 10.19499,16.9917 16.9917,27.18659 -39.08087,79.86093 16.99167,6.79661 16.99171,5.09749 16.99167,5.09748 16.99164,1.69921 18.6908,1.6992 h 16.99171 16.99167 l 10.19502,-1.6992 8.49578,-1.69921 22.0892,13.59338 11.89414,5.09752 11.89418,6.79669 -20.39,5.09753 -20.38999,5.09748 -18.69084,1.69913 -20.39,1.69916 h -20.39 l -20.39,-1.69916 -20.39,-3.39833 -18.69087,-5.09748 -20.39,-5.09749 -8.49582,-3.39836 -10.19501,-3.39837 -8.49579,-5.09752 -10.19502,-5.09749 -16.99167,-10.19497 -16.9917,-11.89421 -16.991641,-11.8941 -6.796653,-8.49589 -8.495822,-6.79665 -6.796688,-8.49585 -6.796687,-6.79664 L 58.197267,532.50635 49.701448,520.61218 34.408943,498.52303 24.213958,473.03556 19.116433,461.14135 14.018941,447.54801 10.62058,435.65384 7.2222524,422.06054 3.8239587,396.57303 2.124761,371.08551 l 1.6991977,-27.18668 3.3982937,-25.48749 1.6991977,-13.59332 3.3983279,-11.89417 5.097491,-13.59335 3.398294,-11.89418 5.097525,-11.89415 6.796689,-11.89418 13.593312,-23.78832 6.796688,-10.19502 8.495787,-11.89415 8.495884,-10.19501 10.195016,-10.19499 8.495822,-10.19502 11.894174,-8.49582 15.29251,-11.89417 15.29248,-10.195 16.99163,-10.195 15.29251,-8.49584 16.99168,-6.79666 18.69083,-5.09751 16.99167,-5.0975 18.6908,-3.39833 -8.49578,10.195 -6.79669,10.195 -15.29251,22.08917 -10.19501,3.39834 -10.19499,5.0975 -22.08913,10.195 -20.39,11.89416 -8.49588,6.79668 -10.19499,8.49582 -10.19501,8.49582 -10.19499,10.19502 -10.195011,10.19498 -8.495818,11.89418 -6.796692,10.19502 -8.495818,11.89414 -5.09749,11.89418 -6.796692,13.59335 -5.09749,11.89415 -3.398328,13.59334 -6.796687,25.48752 -1.699096,13.59332 -1.699201,13.59331 v 11.89418 13.59334 l 120.640833,-16.99164 1.69917,11.89412 z"
       id="path2837" />
  </g>
</svg>
