<?xml version="1.0" encoding="UTF-8" standalone="no"?>
<svg
   xmlns:dc="http://purl.org/dc/elements/1.1/"
   xmlns:cc="http://creativecommons.org/ns#"
   xmlns:rdf="http://www.w3.org/1999/02/22-rdf-syntax-ns#"
   xmlns:svg="http://www.w3.org/2000/svg"
   xmlns="http://www.w3.org/2000/svg"
   xmlns:sodipodi="http://sodipodi.sourceforge.net/DTD/sodipodi-0.dtd"
   xmlns:inkscape="http://www.inkscape.org/namespaces/inkscape"
   width="9010mm"
   height="7097mm"
   viewBox="0 0 9010 7097"
   version="1.1"
   id="svg8"
   inkscape:version="1.0.2-2 (e86c870879, 2021-01-15)"
   sodipodi:docname="munyeca_1.svg">
  <defs
     id="defs2">
    <pattern
       id="EMFhbasepattern"
       patternUnits="userSpaceOnUse"
       width="6"
       height="6"
       x="0"
       y="0" />
  </defs>
  <sodipodi:namedview
     id="base"
     pagecolor="#ffffff"
     bordercolor="#666666"
     borderopacity="1.0"
     inkscape:pageopacity="0.0"
     inkscape:pageshadow="2"
     inkscape:zoom="0.015467961"
     inkscape:cx="19569.178"
     inkscape:cy="17079.576"
     inkscape:document-units="mm"
     inkscape:current-layer="layer1"
     inkscape:document-rotation="0"
     showgrid="false"
     inkscape:window-width="1298"
     inkscape:window-height="1040"
     inkscape:window-x="156"
     inkscape:window-y="0"
     inkscape:window-maximized="0" />
  <metadata
     id="metadata5">
    <rdf:RDF>
      <cc:Work
         rdf:about="">
        <dc:format>image/svg+xml</dc:format>
        <dc:type
           rdf:resource="http://purl.org/dc/dcmitype/StillImage" />
        <dc:title></dc:title>
      </cc:Work>
    </rdf:RDF>
  </metadata>
  <g
     inkscape:label="Capa 1"
     inkscape:groupmode="layer"
     id="layer1">
    <path
       style="fill:#eaca73;fill-opacity:1;fill-rule:evenodd;stroke:none;stroke-width:12.1852"
       d="m 3317.6261,1249.6828 h -12.7385 l 12.7385,-50.968 12.7432,-50.9636 12.7432,-63.711 25.4816,-38.225 63.7067,-101.93155 25.4863,-38.2249 38.2249,-38.2248 89.1883,-76.44969 101.9361,-63.7067 101.9315,-38.2249 50.9679,-25.4863 h 63.7067 l 89.1929,-12.7386 h 101.9315 l 89.193,12.7386 89.1884,38.2249 89.1928,38.2248 76.4498,38.2249 63.7066,63.71119 63.7111,63.7066 12.7387,-50.9679 12.743,-63.70659 38.2249,-114.6748 25.4817,-50.9679 25.4864,-50.9635 38.2249,-50.9681 38.2249,-50.968 89.1882,-76.44972 50.9682,-38.225 50.968,-38.22483 101.9314,-38.22491 127.4178,-38.22484 127.4132,-12.73863 63.7113,12.73863 h 63.7066 l 50.9681,12.74315 63.7066,25.48169 50.9679,25.48637 50.9636,25.48177 50.9679,25.4816 50.9681,38.225 38.2249,38.22483 50.9635,50.96799 25.4862,38.2249 38.2248,50.9681 38.2251,50.9635 25.4815,63.7111 38.225,-89.1929 38.2249,-76.4498 63.7067,-76.44975 63.7111,-63.7066 76.4498,-50.96797 89.1883,-50.96814 89.1928,-25.48169 101.9316,-25.48178 140.161,-12.74306 76.4497,12.74306 63.7067,12.73863 63.7065,25.48637 63.7112,25.48161 63.7066,25.48177 63.7066,38.22483 50.968,50.96814 50.9681,38.22483 50.9636,63.70665 38.2248,50.9681 25.4864,63.7066 38.2248,63.7111 12.7385,76.4498 25.4864,63.70659 v 63.7066 l 50.9635,-50.9635 38.2248,-38.22479 50.9679,-50.9681 63.7067,-38.2249 63.7112,-25.4817 63.7066,-25.4863 63.7066,-25.4817 63.7112,-12.7431 152.8996,-12.7387 63.7066,12.7387 76.4497,12.7431 63.7066,12.7431 63.7112,25.4817 63.7066,38.2249 63.7066,38.2249 50.968,38.225 50.9683,50.96789 38.2248,50.9635 38.2248,63.7113 38.2248,63.70655 25.4818,63.7067 25.4818,63.711 12.743,76.45 12.743,114.6745 -12.743,127.4133 -12.743,50.968 -12.7388,50.9633 -38.2248,101.9361 -63.7108,101.9316 -76.4504,89.1929 -89.1881,63.7066 -50.968,38.2248 -50.968,25.4864 101.936,38.2248 38.2249,12.7386 50.9632,25.4864 76.4504,63.7067 76.4496,76.4497 50.9678,76.4497 50.9678,89.1929 38.2257,89.1884 25.481,101.9361 12.7438,152.8994 -12.7438,63.7065 -12.743,76.45 -12.738,63.7066 -25.4868,63.7112 -38.2248,63.7066 -38.2249,63.7066 -38.2248,50.968 -50.9636,50.968 -50.9678,38.2249 -63.7068,38.2249 -63.7113,38.2248 -63.7066,25.4818 -63.7066,25.4818 -76.4498,12.743 -101.9361,12.7431 h -89.1882 l -89.1929,-25.4861 -89.193,-25.4818 -89.1884,-38.2248 -76.4497,-50.9682 -76.4497,-50.9634 -63.7112,-63.7112 v 50.968 l -12.7386,63.7066 -38.2249,114.6748 -25.4862,50.968 -38.225,50.968 -25.4817,50.9634 -38.225,50.9681 -89.1927,76.4497 -50.9636,38.2249 -50.9681,25.4817 -114.6746,50.9681 -114.6747,38.2248 h -127.4177 -63.7065 l -63.7067,-12.7431 -50.9681,-12.7386 -63.7066,-12.7431 -50.968,-25.4817 -50.9681,-25.4864 -50.9635,-25.4817 -50.968,-38.2249 -50.968,-38.2248 -38.2249,-50.968 -38.2248,-38.225 -38.2249,-50.9634 -25.4818,-50.968 -25.4816,-63.7113 -38.225,89.1929 -50.968,76.4498 -50.968,76.4498 -76.4498,63.7112 -76.4498,50.9634 -76.4498,38.2248 -89.1882,38.225 -101.9362,25.4863 -114.6746,12.7387 -114.6747,-12.7387 -114.6745,-25.4863 -101.9316,-50.9634 -89.1929,-50.9681 -89.1883,-76.4497 -63.7113,-76.4497 -63.7065,-101.9315 -101.9315,12.7384 25.4817,-471.437 -407.7306,-229.3493 394.9874,-484.185 -942.8787,-12.7386 -420.4738,-751.759 z"
       id="path836" />
    <path
       style="fill:#8d7289;fill-opacity:1;fill-rule:nonzero;stroke:none;stroke-width:12.1852"
       d="m 4082.1237,4052.8423 63.7113,-12.7432 63.7066,-25.4816 50.968,-25.4864 63.7066,-38.225 50.9681,-50.9632 50.9634,-50.9682 38.2248,-50.968 38.225,-63.7066 38.2248,-76.4498 38.225,-76.4497 50.9679,-165.6427 25.4817,-101.9314 12.7433,-101.9316 v -101.936 l 12.7431,-114.6747 v -535.1483 l -12.7431,-114.6747 -12.7433,-101.9314 -12.7384,-114.6746 -25.4864,-89.1931 -25.4818,-101.9313 -38.2249,-89.1931 -38.2248,-76.4497 -50.9681,-76.4498 -50.9634,-76.4497 -63.7112,-50.9682 -50.9635,-63.7065 -63.7112,-38.2248 -63.7065,-38.225 -76.4498,-25.4817 -76.4497,-12.7431 -63.7067,-12.7386 h -777.2408 v 331.2808 63.7066 l 12.7432,76.4497 12.7386,76.4498 25.4862,63.7112 38.2251,63.7066 38.2248,63.7066 38.2249,50.9681 50.9635,50.9679 50.9679,50.9635 50.9681,38.2249 63.7066,38.2249 63.7066,38.2248 63.7112,25.4864 63.7067,12.7386 76.4496,12.7431 h 76.4498 76.4498 89.1928 l 114.6748,-12.7431 101.9314,-12.7386 114.6746,-25.4864 50.9682,-12.7385 38.2248,-12.7431 38.2248,-12.7432 25.4817,-25.4818 12.7432,63.7066 -76.4497,38.225 -50.968,25.4863 -38.225,12.7386 -89.1928,38.2249 -89.1884,12.7431 v 50.9681 63.7065 l 12.7385,968.3652 v 63.7066 l -12.7385,63.7066 -12.7431,63.7112 -12.7433,63.7066 -25.4816,50.9682 -25.4817,50.9632 -25.4863,63.7114 z"
       id="path838" />
    <path
       style="fill:#5c3556;fill-opacity:1;fill-rule:nonzero;stroke:none;stroke-width:12.1852"
       d="m 3177.4697,1810.3129 v -318.5376 h -356.7671 l -76.4497,12.7385 -76.4499,25.4864 -63.7066,25.4816 -76.4496,50.968 -25.4819,25.4818 -38.2248,25.4818 -25.4863,38.2248 -25.4816,25.4863 -63.7067,76.4498 -50.9681,89.1883 -50.9679,89.193 -38.225,101.9314 -38.2249,114.6748 -25.4818,114.6745 -25.4815,114.6747 -25.4864,127.4177 -12.7386,127.4178 v 140.1565 305.799 12.7431 101.9314 l 12.7386,89.193 12.7431,101.9316 12.7433,89.1928 25.4815,89.1884 25.4818,76.4498 38.2249,76.4496 38.225,76.45 38.2248,63.7112 38.2249,63.7065 50.968,50.9681 50.9681,50.9634 50.9634,50.9679 50.9681,38.2251 63.7065,25.4816 63.7112,25.4864 -63.7112,-101.9362 -25.4817,-50.9634 -25.4817,-63.7112 -25.4863,-114.6746 -12.7387,-127.4132 v -955.622 l 12.7387,-76.4499 v -76.4497 l -76.4498,12.7387 h -63.7066 l -50.968,-12.7387 -50.9635,-12.7432 -25.4862,-25.4817 -25.4818,-25.4864 -12.7432,-12.7384 h 38.225 191.1243 l 76.4498,-12.7433 h 63.7112 l 76.4497,-25.4816 63.7067,-25.4863 63.7066,-25.4818 63.7112,-38.2249 63.7066,-50.9681 50.9679,-38.2248 38.225,-63.7066 50.9634,-50.968 38.2249,-63.7066 25.4863,-63.7066 25.4818,-76.4499 12.7431,-63.7112 12.7386,-76.4497 z"
       id="path840" />
    <path
       style="fill:#000000;fill-opacity:1;fill-rule:nonzero;stroke:none;stroke-width:12.1852"
       d="m 4782.9148,5339.7452 v -25.4818 l 12.7431,-12.7432 50.9634,-38.2249 76.4498,-25.4815 101.9361,-25.4864 63.7066,-12.7386 h 63.7066 l 140.161,-12.7432 152.8994,-12.7431 h 178.3814 165.6427 l 152.8996,12.7431 140.1563,12.7432 127.4178,12.7386 101.9314,25.4864 76.4498,25.4815 25.4817,25.4817 25.4864,12.7432 12.7385,12.7432 v 25.4818 12.7431 h 127.4178 254.831 l 229.3493,12.7386 203.8676,25.4863 191.1244,25.4816 140.1564,38.2249 114.6746,38.2249 50.968,25.4818 25.4818,25.4864 12.7432,12.7384 12.7431,25.4864 -12.7431,25.4817 -12.7432,25.4818 -25.4818,25.4863 -50.968,12.7386 -50.9634,25.4863 -63.7112,12.7385 -140.1564,38.2249 -191.1244,25.4863 -203.8676,25.4818 -229.3493,12.743 h -254.831 -242.0924 l -229.3492,-12.743 -216.6063,-25.4818 -178.3811,-25.4863 -152.8996,-38.2249 -114.6748,-38.2248 -38.2248,-12.7386 -25.4862,-25.4863 -25.4817,-25.4818 v -25.4817 -25.4864 l 25.4817,-12.7384 25.4862,-25.4864 38.2248,-25.4818 h -140.1609 l -127.4132,-12.7431 -114.6745,-25.4818 -89.193,-12.743 -76.4497,-25.4819 -63.7066,-25.4816 -38.225,-25.4863 -12.7431,-12.7386 z"
       id="path842" />
    <path
       style="fill:#ffcc99;fill-opacity:1;fill-rule:evenodd;stroke:none;stroke-width:12.1852"
       d="m 4184.0599,2498.3608 -50.9681,12.7431 h -203.8677 l -127.4131,-12.7431 -63.7112,-12.7387 -63.7067,-25.4862 -63.7065,-25.4818 -50.968,-25.4817 -50.9681,-25.4864 -50.9634,-38.2248 -50.968,-38.2249 -50.9682,-38.2249 -38.2248,-50.9635 -38.2249,-50.9679 -38.2248,-50.9681 -25.4819,-50.9634 -25.4816,-63.7112 -25.4863,-50.9634 -12.7386,50.9634 -25.4864,38.2248 -50.9633,89.1931 -25.4864,50.9679 -38.2249,38.2248 -63.7065,76.4453 -89.193,63.7112 -89.1884,50.968 -89.1927,38.2249 -50.9683,12.7386 -50.9633,12.7431 -25.4864,89.193 v 101.9314 866.4291 76.4498 l 12.7432,76.4498 25.4817,63.7112 12.7431,76.4497 38.225,63.7066 38.225,63.7065 38.2248,50.9682 50.9679,50.968 50.9635,50.9634 50.9681,38.225 63.7067,38.2248 63.7111,25.4864 63.7065,25.4817 76.4499,25.4817 63.7066,12.7431 h 76.4497 191.1244 76.4498 l 63.7112,-12.7431 76.4498,-25.4817 63.7067,-25.4817 63.7066,-25.4864 63.711,-38.2248 50.9634,-38.225 50.9682,-50.9634 50.968,-50.968 38.2248,-50.9682 38.2249,-63.7065 25.4818,-63.7066 25.4817,-76.4497 25.4864,-63.7112 12.7384,-76.4498 v -76.4498 -866.4291 -89.193 z m -1822.0558,2420.9107 50.9681,-114.6747 -38.225,12.7432 h -12.7431 l -12.7386,12.7384 v 12.7433 25.4816 z m 1261.4211,-458.6986 38.2249,25.4817 25.4863,50.968 25.4817,50.968 v 50.9634 38.225 l -12.7432,50.9681 -12.7385,25.4817 -25.4863,25.4864 -25.4818,25.4816 -25.4817,25.4816 -50.968,25.4864 -38.2249,12.7385 -484.1803,165.6428 -25.4864,38.2249 -12.7385,25.4816 -89.1929,433.217 89.1929,25.4816 76.4498,12.7432 76.4497,12.7432 h 89.1884 89.1929 l 89.1929,-12.7432 76.4498,-12.7432 89.1883,-38.2248 76.4498,-25.4818 76.4497,-38.2249 140.1609,-89.1928 63.7066,-50.9635 50.9681,-50.9681 63.7067,-63.7065 38.2248,-50.9681 50.9681,-63.7065 38.2249,-63.7113 12.7384,-25.4817 12.7433,-25.4818 25.4816,-63.7111 12.7433,-38.225 v -38.2249 h -127.4178 -63.7066 l -38.2249,-12.7384 -50.9681,-12.7432 -38.225,-38.2249 -38.2248,-38.2248 -50.9635,-50.9681 -25.4861,-63.7065 -38.225,-63.7067 -50.9634,-127.4178 -50.9682,12.7431 z m -611.5982,535.1483 25.4864,-25.4818 573.3732,-203.8675 h 12.7386 25.4863 l 12.7386,-12.7431 25.4863,-25.4817 12.7385,-12.7432 v -25.4817 -25.4818 -50.9679 -25.4819 l -12.7385,-12.7432 -25.4863,-38.2248 -12.7386,-12.7432 -25.4863,-12.7386 -38.2249,-12.7431 h -25.4817 -688.0479 l -38.2249,12.7431 -38.2249,12.7386 -38.2249,12.7432 -38.2248,38.2248 -50.9682,63.7066 -38.2249,63.7112 -203.8628,420.4738 h 560.63 l 25.4817,-101.9361 z m 305.7991,1286.9028 -12.7385,-12.7386 -63.7112,-152.8994 -50.9635,-101.9361 -25.4863,-50.9635 -25.4817,-25.4864 -25.4818,-12.7384 -25.4863,-12.7432 h -25.4818 l -25.4816,12.7432 -12.7432,25.4818 -12.7432,38.2248 -25.4817,89.1928 -25.4818,101.9316 h -89.1928 -254.831 -38.2249 l -38.2249,12.7431 -25.4863,25.4818 -25.4817,12.7431 -25.4818,25.4818 -12.7431,38.2248 -12.7432,25.4817 v 38.2249 267.5742 38.2248 l 12.7432,38.225 12.7431,25.4862 25.4818,25.4817 25.4817,25.4819 25.4863,12.7429 38.2249,12.7434 h 38.2249 547.8869 25.4863 l 38.2248,-12.7434 25.4818,-12.7429 25.4817,-25.4819 25.4864,-25.4817 12.7385,-25.4862 12.7432,-38.225 v -38.2248 -267.5742 -38.2249 z"
       id="path844" />
    <path
       style="fill:#000000;fill-opacity:1;fill-rule:nonzero;stroke:none;stroke-width:12.1852"
       d="m 3674.3931,4435.0911 38.225,38.2249 25.4817,38.2248 12.7433,50.9635 12.743,50.9682 v 38.2248 l -12.743,50.9679 -25.4818,25.4819 -12.7432,25.4817 -25.4817,25.4864 -25.4863,25.4816 -63.7066,25.4816 -25.4818,12.7433 -484.1849,165.6427 -25.4818,38.2249 -12.7431,25.4817 -89.1884,433.2169 76.4499,25.4817 89.1882,12.7432 76.4499,12.7384 h 89.1928 89.193 l 89.1883,-12.7384 76.4498,-12.7432 76.4498,-25.4817 89.1929,-38.2249 63.7066,-38.225 140.161,-89.1928 63.7066,-50.9682 63.7066,-50.9632 50.968,-63.7113 50.9681,-50.9635 50.9633,-63.7112 25.4864,-63.7066 25.4818,-25.4818 12.7431,-25.4862 25.4817,-63.7066 12.7431,-38.2249 v -38.2249 H 4171.3167 4107.61 l -38.2249,-12.7432 -50.9679,-12.7384 -38.2249,-38.2251 -50.9682,-38.2249 -38.2248,-50.9679 -38.2248,-63.7067 -25.4818,-63.7112 -50.968,-127.4132 -50.9634,12.7386 z m -1274.1642,2420.9061 -12.7385,-12.7385 -12.7432,-25.4863 -25.4817,-50.9635 -12.7432,-50.968 v -50.9681 -242.0878 -63.7112 l 25.4818,-50.9635 25.4863,-50.9679 38.2249,-38.2249 38.2248,-38.2249 50.9635,-25.4817 50.968,-25.4864 h 63.7065 114.6748 l 178.3858,-904.6541 h -598.8595 l -471.4372,968.3653 -25.4863,50.9635 -12.7386,50.968 -12.7432,63.7066 v 50.9681 50.968 38.2248 l 25.4818,63.7066 25.4863,63.7067 38.225,50.9681 12.7385,25.4817 25.4864,25.4862 50.9633,50.9636 50.9681,25.4863 63.7066,25.4816 63.7112,25.4817 152.8995,12.7433 50.9635,-12.7433 z m 917.3972,-522.4052 v -25.4817 l -76.4497,-140.161 -50.9635,-101.9313 -25.4863,-50.9681 -25.4817,-25.4817 -25.4818,-25.4818 h -25.4863 -25.4818 l -12.7431,12.7385 -25.4817,25.4864 -12.7432,38.2248 -12.7385,89.1884 -25.4863,101.9361 h -89.1883 -267.5742 -38.2249 l -25.4864,12.7386 -38.2248,12.7432 -25.4817,25.4816 -12.7432,25.4863 -25.4817,38.225 v 25.4817 l -12.7432,38.2249 v 267.5742 l 12.7432,38.2248 v 25.4817 l 25.4817,38.225 12.7432,25.4863 25.4817,25.4816 38.2248,12.7432 25.4864,12.7385 h 38.2249 547.8869 38.2249 l 25.4862,-12.7385 38.2251,-12.7432 25.4815,-25.4816 12.7433,-25.4863 25.4817,-38.225 12.7432,-25.4817 v -38.2248 -267.5742 l -12.7432,-38.2249 z m -1541.7338,-216.606 535.1483,-1095.7831 -38.2249,-89.1883 -38.2249,-101.9362 -101.936,38.2249 -38.2249,25.4864 -50.9635,25.4818 -38.2248,38.2248 -38.2249,38.2249 -38.2248,50.9681 -25.4864,50.9633 -50.9635,114.6748 -25.4863,63.7112 -12.7386,76.4497 -12.7432,76.4497 -12.743,76.4499 -12.7386,101.9314 v 89.193 293.0559 z m 586.1118,-1197.7145 50.9681,-114.6747 -38.225,12.7432 h -12.7431 l -12.7386,12.7384 v 12.7433 25.4816 z m 611.5981,50.9679 25.4863,-25.4862 573.3732,-203.8631 h 12.7386 12.7432 l 25.4817,-12.743 12.7431,-25.4819 12.7432,-12.743 12.7386,-25.4818 v -25.4864 -50.9634 -12.7432 l -12.7386,-25.4816 -25.4863,-38.225 -25.4817,-12.7431 -25.4818,-12.7431 -25.4863,-12.7386 h -38.2249 -675.3047 l -50.968,12.7386 -38.2249,12.7431 -25.4817,25.4817 -38.2248,25.4864 -50.9683,63.7067 -38.2248,76.4497 -203.8629,420.4736 h 560.6301 l 25.4817,-114.6746 z m 1427.0637,-152.8994 -38.2248,89.1883 -25.4818,76.4497 -38.2249,89.193 -50.9679,76.4497 -50.9682,76.4497 -63.7065,63.7066 -63.7067,63.7113 -25.4862,38.2249 -38.225,25.4816 -76.4498,50.9682 -76.4496,50.9634 -76.4498,38.2248 -89.1883,38.225 -89.1929,25.4862 -89.193,12.7387 -101.9314,12.7431 -89.193,12.7432 -101.9316,-12.7432 -89.1929,-12.7431 -89.1882,-12.7387 -89.1929,-25.4862 -114.6747,535.1483 h 76.4498 l 25.4818,-127.4132 12.7431,-25.4864 12.743,-25.4815 38.225,-50.9682 38.2249,-12.7385 h 25.4816 63.7066 25.4864 l 25.4817,12.7385 38.2248,38.2248 38.225,38.2249 38.2248,63.7112 76.4498,152.8996 h 675.3048 38.2248 l 25.4863,-12.7431 25.4818,-12.7433 25.4817,-12.7384 12.7432,-25.4864 12.7432,-25.4817 12.7384,-25.4818 v -38.2249 -331.2853 h 114.6748 v 382.2488 50.968 l -12.7387,38.225 -25.4861,38.2249 -25.4818,38.2249 -25.4818,25.4816 -50.968,25.4863 -38.2249,12.7386 h -50.9681 -649.8229 l 12.7431,50.9681 v 50.968 242.0878 50.9681 l -12.7431,50.968 -25.4817,50.9635 -25.4818,38.2248 h 25.4818 1044.815 203.8628 l 63.7113,-25.4817 63.7066,-25.4816 63.7065,-38.225 50.9682,-38.2249 38.2248,-50.9679 38.2249,-50.9681 25.4817,-63.7067 12.7431,-63.7066 12.7432,-38.2248 12.7386,-63.7113 v -178.3811 l 12.7431,-216.6062 v -293.0605 l -12.7431,-101.9315 v -101.9314 l -12.7386,-101.9361 -25.4863,-76.4499 -12.7386,-76.4497 -25.4862,-76.4497 -38.225,-63.7067 -38.2248,-63.7065 -38.225,-50.9681 -38.2248,-38.2249 -50.9634,-38.2248 -38.2249,-25.4818 -50.968,-25.4864 -63.7066,-25.4816 -50.9682,-12.7433 h -63.7065 z M 4145.835,2600.2968 h -50.9681 -203.8676 l -127.4132,-12.7431 -63.7112,-12.7433 -63.7066,-12.7384 -50.968,-25.4864 -63.7066,-25.4817 -50.9681,-38.2249 -50.9634,-25.4817 -50.9681,-38.2249 -38.2248,-50.968 -50.9681,-38.225 -38.2248,-50.968 -25.4819,-50.9635 -38.2248,-63.7112 -25.4817,-50.9633 -12.7431,-63.7113 -25.4818,50.9681 -12.7431,50.9681 -50.9681,89.1883 -38.2249,38.2248 -25.4817,38.2249 -76.4497,76.4497 -76.4498,63.7113 -89.1929,50.9635 -101.9315,50.9679 -50.9681,12.7433 -50.9634,12.7384 -12.7431,89.193 -12.7432,89.193 v 879.1721 l 12.7432,76.4499 v 63.7066 l 25.4816,76.4497 25.4864,63.7066 25.4816,63.7112 38.225,63.7066 38.225,63.7066 50.9679,50.9682 50.9635,38.2248 50.968,50.968 63.7065,38.2249 63.7112,25.4817 63.7067,25.4818 76.4498,12.7431 63.7066,12.7432 76.4498,12.7385 h 191.1244 l 76.4497,-12.7385 76.4498,-12.7432 63.7112,-12.7431 63.7066,-25.4818 63.7066,-25.4817 63.7111,-38.2249 50.9635,-50.968 50.968,-38.2248 50.9681,-50.9682 38.2249,-63.7066 38.2248,-63.7066 38.2249,-63.7112 25.4818,-63.7066 12.7432,-76.4497 12.7385,-63.7066 v -76.4499 -879.1721 -76.4499 z m -63.7113,1528.9953 63.7113,-12.7433 63.7066,-25.4861 50.968,-25.4818 63.7066,-38.2248 50.9681,-50.9636 50.9634,-50.968 38.2248,-50.968 38.225,-63.7067 38.2248,-76.4497 38.225,-76.4498 50.9679,-165.6428 25.4817,-101.9314 12.7433,-101.9314 v -101.9361 l 12.7431,-114.6747 v -535.1483 l -12.7431,-114.6746 -12.7433,-101.9316 -12.7384,-114.6745 -25.4864,-89.193 -25.4818,-101.9315 -38.2249,-89.1929 -38.2248,-76.4498 -50.9681,-76.4497 -50.9634,-76.4498 -63.7112,-50.9634 -50.9635,-63.7112 -63.7112,-38.2248 -63.7065,-38.225 -76.4498,-25.4816 -76.4497,-12.7432 -63.7067,-12.7386 h -777.2408 v 331.2808 63.7065 l 12.7432,76.4498 12.7386,76.4498 25.4862,63.7112 38.2251,63.7067 38.2248,63.7066 38.2249,50.968 50.9635,50.9634 50.9679,50.968 50.9681,38.2248 63.7066,38.225 63.7066,38.2249 63.7112,25.4862 63.7067,12.7387 76.4496,12.7431 h 76.4498 191.1244 63.7066 l 63.7112,-12.7431 63.7066,-12.7387 63.7066,-12.7431 50.968,-25.4817 63.7066,-38.2249 50.9681,-25.4864 50.968,-38.2248 v 114.6747 l -76.4497,38.2249 -50.968,25.4863 -38.225,12.7385 -89.1928,38.2248 -89.1884,12.7433 12.7385,76.4497 v 63.7066 942.8835 63.7066 l -12.7385,63.7066 -12.7431,63.7114 -12.7433,63.7064 -25.4816,50.968 -25.4817,50.9636 -25.4863,63.7066 z m -1401.5773,101.9315 -76.45,-12.7431 -76.4496,-25.4818 -76.4498,-25.4817 -63.7066,-38.2249 -63.7112,-50.9681 -63.7066,-50.9679 -50.9681,-63.7067 -50.9634,-76.4498 -50.9681,-76.4498 -38.2249,-89.1929 -38.2248,-89.1884 -25.4817,-89.1927 -25.4864,-101.9315 -12.7385,-114.6748 -12.7432,-50.9679 v -63.7067 l -12.7432,-114.6747 V 2727.71 l 12.7432,-140.1563 12.7432,-152.8996 12.7385,-127.4178 25.4864,-127.4132 38.2248,-114.6746 38.2249,-114.6746 50.9635,-101.9362 50.968,-101.9314 50.968,-76.4499 63.7066,-76.4497 25.4818,-38.2249 38.2249,-25.4816 63.7112,-63.7112 38.2248,-12.7386 38.2248,-25.4864 76.4499,-25.4817 38.2249,-12.7431 38.2248,-12.7386 h 89.1884 1210.4576 89.1884 l 76.4498,12.7386 76.4496,25.4863 63.7113,38.2249 76.4497,50.9634 63.7066,50.968 63.7066,63.7067 50.9681,76.4497 50.968,76.4498 50.9635,89.1929 38.2248,89.193 38.2249,101.9314 25.4864,101.9314 12.7387,114.6747 12.743,114.6746 12.7432,127.4179 v 547.8915 38.2248 l -12.7432,140.1563 -12.743,127.4133 v 63.7113 l -12.7387,63.7064 -25.4864,101.9362 -25.4816,101.9315 -38.225,101.9315 -50.9679,76.4498 -50.9636,76.4496 -50.968,63.7114 -50.968,50.9634 -63.7066,50.9679 -63.7067,38.2251 -76.4497,38.2248 -63.7112,25.4818 -76.4498,12.7431 h -76.4498 l -76.4498,63.7066 -76.4496,63.7112 38.2248,101.9315 50.968,101.9314 25.4818,50.9682 25.4863,38.2248 38.2249,25.4817 38.2248,25.4862 50.9636,12.7387 50.968,12.7432 h 114.6746 l 101.9314,-12.7432 h 63.7114 l 76.4496,12.7432 76.4499,12.743 63.7066,12.7387 63.7067,25.4864 63.711,25.4816 50.9634,38.2249 63.7113,38.2249 38.2249,50.968 50.9634,63.7066 38.2249,63.7066 25.4864,76.4498 38.2248,89.1928 12.7385,89.193 25.4863,114.6746 v 114.6748 l 12.7386,127.4132 v 50.9679 l -12.7386,331.2809 v 254.8355 l -12.743,140.1564 v 50.968 l -12.7433,50.9635 -12.7385,38.2249 -12.7432,50.968 -50.968,76.4498 -25.4818,38.2248 -25.4817,38.2248 -63.7112,63.7067 -89.1882,50.9681 -38.225,12.7432 -38.2248,25.4817 h -50.9681 l -50.9681,12.7431 h -191.1244 -1286.9028 -25.4817 -522.4099 -25.4817 -445.9553 l -38.2248,-12.7431 -50.9682,-12.7431 -89.1929,-38.225 -38.2249,-12.7385 -38.2248,-38.2249 -25.4818,-25.4863 -38.2249,-25.4819 -25.4817,-38.2248 -25.4862,-38.2248 -50.9635,-76.4498 -25.4864,-89.1929 -12.7385,-101.9315 -25.4863,-114.6747 v -127.4178 -496.9234 -50.9634 -127.4178 l 12.7431,-127.4178 25.4817,-114.6748 12.7432,-50.9632 12.7432,-50.9682 38.2249,-89.193 38.2248,-76.4497 50.9635,-76.4497 50.9679,-50.9635 50.9682,-50.968 63.7066,-38.2249 63.7066,-38.2249 63.7112,-25.4818 76.4497,-12.743 76.4498,-12.7432 152.8995,-12.7387 38.2248,-63.7112 50.9635,-89.1882 25.4864,-50.9681 38.2249,-38.2248 38.2248,-25.4818 38.2249,-25.4863 50.9635,-25.4817 50.968,-12.7432 h 50.9681 12.7385 L 2756.996,4307.6733 Z M 3101.02,1772.088 v -318.5376 h -356.7671 l -63.7065,12.7386 -76.45,25.4863 -76.4496,25.4817 -63.7067,50.9633 -63.7112,50.9682 -50.9634,63.7112 -63.7112,76.4497 -50.9635,76.4497 -50.968,101.9317 -38.225,101.9313 -38.2248,101.9362 -25.4817,114.6745 -25.4862,114.6747 -12.7387,127.4133 -12.7431,127.4177 -12.7431,127.4179 v 305.799 12.7385 l 12.7431,101.9361 v 89.1883 l 12.7431,89.193 25.4817,89.193 12.7432,89.1882 38.225,76.4498 25.4815,76.4498 38.225,76.4496 38.2249,63.7113 38.2249,63.7066 50.968,50.9681 50.9635,50.9634 50.9681,38.225 50.9679,38.2248 63.7067,38.2248 50.968,25.4864 -50.968,-101.936 -50.9681,-114.6748 -12.7386,-63.7066 -12.7431,-50.968 -12.7432,-127.4132 V 2727.71 l 12.7432,-76.4496 v -63.7067 h -76.4498 -203.8676 -25.4818 v -89.1929 h 38.225 191.1244 63.7066 l 76.4498,-12.7387 76.4497,-12.7431 63.7112,-25.4817 63.7067,-38.2249 63.7066,-38.2249 50.968,-38.2248 50.9681,-50.9681 50.9635,-50.968 38.2248,-50.9635 38.2248,-63.7112 25.4864,-63.7066 25.4816,-63.7066 25.4818,-76.4498 v -63.7112 z m -203.8677,2051.405 h 917.3974 v 101.9315 h -917.3974 z m -152.8994,-904.6585 12.7431,-25.4818 12.7431,-25.4817 25.4818,-12.7431 h 25.4817 25.4864 l 25.4817,12.7431 12.7432,25.4817 v 25.4818 25.4862 l -12.7432,25.4818 -25.4817,12.7432 h -25.4864 -25.4817 l -25.4818,-12.7432 -12.7431,-25.4818 z m 930.1402,0 v -25.4818 l 12.7433,-25.4817 12.7385,-25.4864 12.7432,-12.7431 25.4817,-25.4817 12.7433,-12.7385 h 50.9679 50.9635 l 25.4862,12.7385 12.7386,25.4817 25.4864,12.7431 v 25.4864 l 12.7384,25.4817 v 25.4818 25.4862 l -12.7384,25.4818 v 12.7432 l -25.4864,25.4816 -12.7386,12.7432 -25.4862,12.7385 -50.9635,12.7433 -50.9679,-12.7433 -12.7433,-12.7385 -25.4817,-12.7432 -12.7432,-25.4816 -12.7385,-12.7432 -12.7433,-25.4818 z"
       id="path846" />
    <path
       style="fill:#000000;fill-opacity:1;fill-rule:evenodd;stroke:none;stroke-width:12.1852"
       d="m 7089.1509,2128.8552 12.7385,-38.225 v -25.4817 l 12.7431,-25.4864 25.4817,-12.7386 25.4864,-25.4862 25.4817,-12.7386 25.4819,-12.7431 h 25.4861 l 38.2251,12.7431 h 25.4815 l 25.4818,12.7386 25.4864,25.4862 12.7385,25.4818 12.7432,25.4817 12.7431,25.4864 v 25.4818 38.2248 l -12.7431,25.4818 -12.7432,25.4861 -25.4817,25.4819 -12.7432,12.743 -25.4818,12.7386 -38.2248,12.7432 h -25.4818 -25.4861 l -38.2251,-12.7432 -25.4816,-12.7386 -12.7433,-25.4862 -25.4817,-12.7387 -12.7431,-38.2248 v -25.4864 z m -764.4977,0 12.7386,-38.225 12.7432,-25.4817 12.743,-25.4864 12.7387,-25.4817 25.4863,-12.7431 25.4816,-12.7386 25.4818,-12.7431 h 38.2249 25.4863 l 25.4818,12.7431 25.4817,12.7386 25.4862,25.4862 12.7386,12.7386 12.7432,25.4864 12.7432,38.2249 v 25.4818 25.4815 l -12.7432,38.2251 -12.7432,25.4861 -12.7386,12.7387 -25.4862,25.4862 -25.4817,12.7386 h -38.2248 l -25.4819,12.7432 -25.4863,-12.7432 h -25.4818 l -25.4816,-25.4816 -25.4863,-12.7432 -25.4817,-25.4817 -12.7432,-25.4818 v -25.4864 z m -789.984,-12.7433 v -38.2249 l 12.7433,-25.4817 12.7431,-25.4818 12.7384,-12.7431 25.4864,-25.4817 25.4818,-12.7431 25.4818,-12.7433 h 38.2248 25.4864 l 25.4816,12.7433 25.4817,12.7431 25.4864,25.4817 12.7385,25.4817 12.7432,25.4864 12.7432,25.4817 v 25.4817 38.2248 l -12.7432,25.4864 -12.7432,25.4818 -12.7385,12.743 -25.4864,25.4819 -25.4817,12.743 -25.4816,12.7386 h -38.225 -25.4862 l -25.4818,-12.7386 -25.4818,-12.743 -25.4864,-25.4819 -12.7384,-25.4861 -12.7431,-25.4818 -12.7433,-25.4817 z m -2229.7816,-866.4291 12.7385,-50.968 12.7432,-50.9636 25.4816,-63.711 12.7432,-38.225 63.7067,-101.93155 38.2248,-38.2249 38.2249,-38.2248 76.4498,-76.44969 101.9361,-63.7067 101.9315,-38.2249 50.9679,-25.4863 h 63.7067 l 101.9314,-12.7386 h 89.193 l 89.193,12.7386 89.1884,38.2249 89.1928,38.2248 76.4498,38.2249 76.4497,63.71119 63.7067,63.7066 v -50.9679 l 12.743,-63.70659 38.2249,-114.6748 25.4817,-50.9679 25.4864,-50.9635 38.2249,-50.9681 38.2249,-50.968 89.1882,-76.44972 50.9682,-38.225 50.968,-38.22483 114.6747,-38.22491 114.6745,-38.22484 127.4132,-12.73863 63.7113,12.73863 h 63.7066 l 50.9681,12.74315 63.7066,25.48169 50.9679,25.48637 50.9636,25.48177 50.9679,25.4816 50.9681,38.225 38.2249,38.22483 50.9635,50.96799 38.2248,38.2249 25.4862,50.9681 38.2251,50.9635 25.4815,63.7111 38.225,-89.1929 50.968,-76.4498 50.9636,-76.44975 76.4497,-63.7066 76.4497,-50.96797 76.4498,-50.96814 89.1928,-25.48169 101.9316,-25.48178 140.161,-12.74306 76.4497,12.74306 63.7067,12.73863 76.4496,25.48637 63.7066,25.48161 50.9681,25.48177 63.7066,38.22483 50.968,50.96814 50.9681,38.22483 50.9636,63.70665 38.2248,50.9681 38.2248,63.7066 25.4864,63.7111 25.4817,76.4498 12.7432,63.70659 v 63.7066 l 50.9635,-50.9635 50.9679,-38.22479 50.9681,-50.9681 50.9634,-38.2249 63.7112,-25.4817 63.7066,-25.4863 63.7066,-25.4817 76.4497,-12.7431 140.1611,-12.7387 76.4497,12.7387 63.7066,12.7431 63.7066,12.7431 63.7112,25.4817 63.7066,38.2249 63.7066,38.2249 50.968,38.225 50.9683,50.96789 50.9636,50.9635 38.2248,63.7113 25.486,63.70655 38.2248,63.7067 12.7388,63.711 25.486,76.45 v 114.6745 l -12.743,127.4133 v 50.968 l -25.4818,50.9633 -38.2248,101.9361 -63.7108,101.9316 -76.4504,89.1929 -89.1881,63.7066 -38.2248,38.2248 -50.968,25.4864 89.1928,38.2248 50.9636,12.7386 38.2245,25.4864 76.4504,63.7067 76.4496,76.4497 63.7108,76.4497 38.2248,89.1929 38.2257,89.1884 25.481,101.9361 12.7438,152.8994 -12.7438,63.7065 -12.743,76.45 -12.738,63.7066 -25.4868,63.7112 -38.2248,63.7066 -38.2249,63.7066 -38.2248,50.968 -50.9636,50.968 -50.9678,38.2249 -63.7068,38.2249 -63.7113,38.2248 -63.7066,25.4818 -63.7066,25.4818 -76.4498,12.743 -101.9361,12.7431 h -89.1882 l -89.1929,-25.4861 -89.193,-25.4818 -89.1884,-38.2248 -76.4497,-50.9682 -63.7112,-50.9634 -63.7067,-63.7112 -12.743,50.968 -12.7386,63.7066 -38.2249,114.6748 -25.4862,50.968 -25.4818,50.968 -38.2249,50.9634 -38.225,50.9681 -89.1927,76.4497 -50.9636,38.2249 -50.9681,25.4817 -114.6746,50.9681 -114.6747,38.2248 h -127.4177 -63.7065 l -63.7067,-12.7431 -50.9681,-12.7386 -63.7066,-12.7431 -50.968,-25.4817 -50.9681,-25.4864 -50.9635,-25.4817 -50.968,-38.2249 -38.2248,-38.2248 -50.9681,-50.968 -38.2248,-38.225 -25.4818,-50.9634 -38.2249,-50.968 -25.4816,-63.7113 -38.225,89.1929 -50.968,76.4498 -50.968,76.4498 -76.4498,63.7112 -76.4498,50.9634 -76.4498,38.2248 -89.1882,38.225 -101.9362,25.4863 h -114.6746 -114.6747 l -101.9314,-25.4863 -101.9315,-50.9634 -101.9361,-50.9681 -76.4498,-76.4497 -76.4498,-76.4497 -63.7065,-101.9315 63.7065,-89.193 25.4864,50.9679 25.4818,38.2251 38.2248,50.9632 25.4818,38.225 76.4497,63.7112 38.2249,38.2248 50.9681,25.4818 38.2249,12.7432 50.9679,25.4817 50.9634,12.7432 50.9682,12.7385 50.968,12.7432 h 50.9634 l 101.9362,-12.7432 101.9314,-25.4817 89.193,-25.4817 38.2248,-25.4864 38.2249,-25.4816 63.7065,-63.7067 63.7067,-63.7113 50.9679,-89.1883 25.4818,-38.2294 12.7432,-38.2203 25.4816,-89.193 127.4179,-12.7431 12.7432,63.7113 25.4816,50.9634 25.4818,50.968 25.4864,50.9682 38.2248,50.9632 38.2249,38.225 38.2248,38.225 50.9635,38.2248 50.9681,25.4862 50.968,25.4818 50.9635,25.4818 63.7112,12.7431 50.9633,12.7432 63.7113,12.7385 h 63.7067 l 63.7065,-12.7385 50.9681,-12.7432 50.968,-12.7431 50.9635,-25.4818 50.968,-25.4818 50.9681,-25.4862 38.2248,-38.2248 38.2249,-38.225 38.2248,-38.225 63.7066,-89.1883 25.4818,-38.2294 25.4864,-50.9633 25.4817,-114.6748 12.7431,-50.968 v -50.9635 l 127.4133,-76.4497 50.968,76.4497 63.7066,50.9635 76.4497,63.7112 76.4498,38.2249 76.4498,25.4818 50.968,12.7431 38.2248,12.7385 h 101.9315 89.193 l 63.7065,-12.7385 63.7113,-25.4864 50.9635,-25.4818 50.968,-25.4816 50.9681,-38.2249 50.963,-38.2249 38.2256,-38.2249 38.2248,-50.9679 38.2248,-50.9681 25.486,-50.9635 12.7388,-50.968 25.486,-63.7112 12.7389,-63.7066 v -63.7066 -50.9679 -63.7067 l -12.7389,-50.9681 -12.743,-50.9635 -25.4818,-50.968 -12.743,-38.2248 -50.9678,-89.193 -63.7066,-76.4497 -76.4501,-63.7066 -89.1928,-50.9681 -89.1884,-25.4817 -38.2248,-25.4817 h -50.9681 v -140.161 l 101.9315,-38.2249 89.1929,-63.7066 38.2249,-38.2248 38.2248,-38.2249 50.9683,-89.1929 50.9636,-89.1931 38.2248,-101.9313 v -63.7067 l 12.743,-50.9679 -12.743,-114.6748 -12.7388,-63.7066 -25.486,-50.968 -25.4818,-63.7066 -25.4818,-50.9681 -38.225,-50.96335 -38.225,-50.9682 -38.2249,-38.2248 -50.968,-38.2249 -50.968,-25.48169 -50.9634,-38.2249 -50.9681,-12.7432 -63.7067,-25.4817 -50.9679,-12.7432 h -63.7066 -63.7113 -63.7065 l -76.4499,25.4817 -76.4497,25.4864 -63.7066,25.4818 -63.7112,50.96789 -50.9634,38.2249 -50.9681,63.7066 -50.9679,50.96815 -38.225,63.7066 -114.6746,-38.2249 12.7431,-89.19295 -12.7431,-76.4497 -12.7387,-63.70659 -12.7432,-63.7067 -25.4816,-63.7112 -38.2249,-50.9635 -25.4864,-50.9679 -38.2248,-38.225 -50.9635,-50.968 -38.2248,-38.22489 -50.968,-25.48169 -63.7066,-25.48177 -50.9681,-25.48637 -63.7067,-12.73846 -50.9679,-12.74314 -63.7066,-12.74323 h -63.7113 l -63.7065,12.74323 -50.9681,12.74314 -50.9634,12.73846 -50.9681,12.74323 -38.2248,25.48177 -89.193,50.96797 -38.2249,38.22485 -38.2248,25.4818 -63.7067,76.4497 -50.9679,89.1929 -25.4818,101.9315 -25.4817,89.19299 h -101.9361 l -12.7387,-63.70659 -25.4862,-63.7113 -25.4818,-50.9634 -25.4816,-63.7111 -38.2249,-50.9635 -38.2249,-38.2249 -38.2248,-50.9681 -50.9681,-25.4817 -50.968,-38.22492 -50.9635,-25.4862 -50.9681,-25.48177 -63.7067,-12.74323 -63.711,-12.73846 -63.7066,-12.74314 h -50.9682 l -63.7065,12.74314 -114.6747,25.48169 -114.6746,50.96797 -38.2249,25.48177 -50.968,38.22485 -38.225,38.2249 -38.2248,38.225 -63.7066,101.9314 -25.4817,50.968 -12.7432,50.9681 -25.4817,50.96339 v 50.9681 l -12.7431,63.7066 v 50.96795 l -114.6748,63.7067 -50.9679,-76.4498 -63.7066,-63.70665 -76.4498,-50.9679 -76.4498,-50.96349 -50.9681,-12.7431 -38.2249,-12.7433 -89.1883,-25.4817 h -89.1928 -101.9315 l -89.193,25.4817 -89.1929,38.22489 -50.9634,25.4863 -38.2249,25.4818 -63.7112,50.968 -63.7066,76.44985 -50.9681,76.4498 -25.4817,38.2248 -12.7431,50.9635 -25.4817,89.1929 z"
       id="path848" />
    <path
       style="fill:#e6b563;fill-opacity:1;fill-rule:evenodd;stroke:none;stroke-width:12.1852"
       d="m 4400.6659,4817.34 -38.2248,89.1883 -25.4818,76.4497 -38.2249,89.193 -50.9679,76.4497 -50.9682,76.4497 -63.7065,63.7066 -63.7067,63.7113 -25.4862,38.2249 -38.225,25.4816 -76.4498,50.9682 -76.4496,50.9634 -76.4498,38.2248 -89.1883,38.225 -89.1929,25.4862 -89.193,12.7387 -101.9314,12.7431 -89.193,12.7432 -101.9316,-12.7432 -89.1929,-12.7431 -89.1882,-12.7387 -89.1929,-25.4862 -114.6747,535.1483 h 76.4498 l 25.4818,-127.4132 12.7431,-25.4864 12.743,-25.4815 38.225,-50.9682 38.2249,-12.7385 h 25.4816 63.7066 25.4864 l 25.4817,12.7385 38.2248,38.2248 38.225,38.2249 38.2248,63.7112 76.4498,152.8996 h 675.3048 38.2248 l 25.4863,-12.7431 25.4818,-12.7433 25.4817,-12.7384 12.7432,-25.4864 12.7432,-25.4817 12.7384,-25.4818 v -38.2249 -331.2853 h 114.6748 v 382.2488 50.968 l -12.7387,38.225 -25.4861,38.2249 -25.4818,38.2249 -25.4818,25.4816 -50.968,25.4863 -38.2249,12.7386 h -50.9681 -649.8229 l 12.7431,50.9681 v 50.968 242.0878 50.9681 l -12.7431,50.968 -25.4817,50.9635 -25.4818,38.2248 h 25.4818 1044.815 203.8628 l 63.7113,-25.4817 63.7066,-25.4816 63.7065,-38.225 50.9682,-38.2249 38.2248,-50.9679 38.2249,-50.9681 25.4817,-63.7067 12.7431,-63.7066 12.7432,-38.2248 12.7386,-63.7113 v -178.3811 l 12.7431,-216.6062 v -293.0605 l -12.7431,-101.9315 v -101.9314 l -12.7386,-101.9361 -25.4863,-76.4499 -12.7386,-76.4497 -25.4862,-76.4497 -38.225,-63.7067 -38.2248,-63.7065 -38.225,-50.9681 -38.2248,-38.2249 -50.9634,-38.2248 -38.2249,-25.4818 -50.968,-25.4864 -63.7066,-25.4816 -50.9682,-12.7433 h -63.7065 z m -2624.7736,1299.646 535.1483,-1095.7831 -38.2249,-89.1883 -38.2249,-101.9362 -101.936,38.2249 -38.2249,25.4864 -50.9635,25.4818 -38.2248,38.2248 -38.2249,38.2249 -38.2248,50.9681 -25.4864,50.9633 -50.9635,114.6748 -25.4863,63.7112 -12.7386,76.4497 -12.7432,76.4497 -12.743,76.4499 -12.7386,101.9314 v 89.193 293.0559 z m 624.3366,739.0112 -12.7385,-12.7385 -12.7432,-25.4863 -25.4817,-50.9635 -12.7432,-50.968 v -50.9681 -242.0878 -63.7112 l 25.4818,-50.9635 25.4863,-50.9679 38.2249,-38.2249 38.2248,-38.2249 50.9635,-25.4817 50.968,-25.4864 h 63.7065 114.6748 l 178.3858,-904.6541 h -598.8595 l -471.4372,968.3653 -25.4863,50.9635 -12.7386,50.968 -12.7432,63.7066 v 50.9681 50.968 38.2248 l 25.4818,63.7066 25.4863,63.7067 38.225,50.9681 12.7385,25.4817 25.4864,25.4862 50.9633,50.9636 50.9681,25.4863 63.7066,25.4816 63.7112,25.4817 152.8995,12.7433 50.9635,-12.7433 z"
       id="path850" />
  </g>
</svg>
