<?xml version="1.0" encoding="UTF-8" standalone="no"?>
<svg
   xmlns:dc="http://purl.org/dc/elements/1.1/"
   xmlns:cc="http://creativecommons.org/ns#"
   xmlns:rdf="http://www.w3.org/1999/02/22-rdf-syntax-ns#"
   xmlns:svg="http://www.w3.org/2000/svg"
   xmlns="http://www.w3.org/2000/svg"
   xmlns:sodipodi="http://sodipodi.sourceforge.net/DTD/sodipodi-0.dtd"
   xmlns:inkscape="http://www.inkscape.org/namespaces/inkscape"
   width="9000mm"
   height="9000mm"
   viewBox="0 0 9000 9000"
   version="1.1"
   id="svg8"
   inkscape:version="1.0.2-2 (e86c870879, 2021-01-15)"
   sodipodi:docname="agree-icon.svg">
  <defs
     id="defs2">
    <pattern
       id="EMFhbasepattern"
       patternUnits="userSpaceOnUse"
       width="6"
       height="6"
       x="0"
       y="0" />
    <pattern
       id="EMFhbasepattern-4"
       patternUnits="userSpaceOnUse"
       width="6"
       height="6"
       x="0"
       y="0" />
    <pattern
       id="EMFhbasepattern-7"
       patternUnits="userSpaceOnUse"
       width="6"
       height="6"
       x="0"
       y="0" />
    <pattern
       id="EMFhbasepattern-5"
       patternUnits="userSpaceOnUse"
       width="6"
       height="6"
       x="0"
       y="0" />
    <pattern
       id="EMFhbasepattern-2"
       patternUnits="userSpaceOnUse"
       width="6"
       height="6"
       x="0"
       y="0" />
    <pattern
       id="EMFhbasepattern-73"
       patternUnits="userSpaceOnUse"
       width="6"
       height="6"
       x="0"
       y="0" />
    <pattern
       id="EMFhbasepattern-40"
       patternUnits="userSpaceOnUse"
       width="6"
       height="6"
       x="0"
       y="0" />
  </defs>
  <sodipodi:namedview
     id="base"
     pagecolor="#ffffff"
     bordercolor="#666666"
     borderopacity="1.0"
     inkscape:pageopacity="0.0"
     inkscape:pageshadow="2"
     inkscape:zoom="0.015467961"
     inkscape:cx="17268.238"
     inkscape:cy="17114.987"
     inkscape:document-units="mm"
     inkscape:current-layer="layer1"
     inkscape:document-rotation="0"
     showgrid="false"
     inkscape:window-width="1298"
     inkscape:window-height="1040"
     inkscape:window-x="78"
     inkscape:window-y="0"
     inkscape:window-maximized="0" />
  <metadata
     id="metadata5">
    <rdf:RDF>
      <cc:Work
         rdf:about="">
        <dc:format>image/svg+xml</dc:format>
        <dc:type
           rdf:resource="http://purl.org/dc/dcmitype/StillImage" />
        <dc:title></dc:title>
      </cc:Work>
    </rdf:RDF>
  </metadata>
  <g
     inkscape:label="Capa 1"
     inkscape:groupmode="layer"
     id="layer1">
    <path
       style="fill:#000000;fill-opacity:1;fill-rule:evenodd;stroke:none;stroke-width:14.6983"
       d="m 2674.0455,2882.276 1306.4121,1798.2355 30.7372,46.1086 46.1087,30.7372 46.1086,15.3714 61.48,15.3658 h 61.4744 46.1086 l 61.4798,-15.3658 46.1087,-30.7428 2551.3446,-1859.7099 h 737.7376 l -3196.8649,2336.1674 -46.1087,30.7371 -61.4799,15.3715 -107.5831,46.1085 -107.5887,15.3715 h -61.4799 l -46.1086,-15.3715 -107.583,-30.7371 -61.4799,-15.3714 -46.1087,-30.7373 -92.2172,-61.48 -30.7372,-46.1086 -46.1085,-46.1086 L 2059.2621,2882.276 Z m -522.5662,1398.6239 1490.8466,2059.5212 46.1087,46.1087 46.1086,46.1086 61.48,30.7371 61.4744,15.3716 h 61.48 l 76.8459,-15.3716 61.48,-15.3713 46.1086,-30.7372 2935.5792,-2136.3671 h 845.326 l -3673.3167,2674.2989 -107.5885,61.48 -61.4801,30.7373 -61.4744,15.3713 -61.48,15.3714 h -76.8459 -61.4798 -61.4801 l -122.9543,-30.7427 -122.9544,-61.4744 -46.1087,-30.7429 -46.1086,-46.1086 -61.48,-46.1086 -30.7372,-61.4744 L 1444.4845,4280.8999 Z M 230.28949,4480.7057 v -230.543 l 30.73718,-215.1716 15.37135,-215.1772 46.10868,-215.1715 46.10855,-215.1717 61.48002,-199.8059 30.73719,-92.217 30.7373,-107.5887 76.85124,-199.8004 92.21726,-184.4342 92.21716,-184.4344 107.58308,-184.4344 107.58859,-169.0686 122.95451,-169.0631 122.9599,-169.063 138.3258,-153.6972 138.3258,-153.6971 153.6917,-138.3259 153.6971,-138.3257 169.063,-122.9544 169.0686,-122.95455 169.0631,-107.58859 184.4344,-107.5886 184.4345,-92.21726 184.4342,-92.21716 199.8059,-76.84572 199.8002,-61.48001 215.1773,-61.4745 199.8002,-46.10858 215.1771,-46.10869 215.1717,-30.74269 215.1715,-15.36582 h 230.543 215.1773 l 215.1716,15.36582 215.1715,30.74269 215.1772,46.10869 215.1716,46.10858 199.8059,61.4745 107.5829,30.74265 92.2173,30.73736 199.8057,76.84572 184.4345,92.21716 184.4344,92.21726 184.4344,107.5886 184.4344,107.58859 169.063,122.95455 153.6972,122.9544 153.6973,138.3257 153.6915,138.3259 138.326,153.6971 138.3257,153.6972 138.3257,169.063 107.5886,169.0631 122.9546,169.0686 92.2172,184.4344 107.5885,184.4344 76.8457,184.4342 76.8515,199.8004 76.8458,199.8057 46.1086,199.8059 61.48,215.1717 30.7371,215.1715 30.7374,215.1772 15.3713,215.1716 v 230.543 215.1717 l -15.3713,215.1771 -30.7374,215.1716 -30.7371,215.1717 -61.48,215.1771 -46.1086,199.8003 -30.7371,107.5885 -46.1087,92.2173 -76.8515,199.8057 -76.8457,184.4344 -107.5885,184.4345 -92.2172,184.4344 -122.9546,169.0631 -107.5886,169.063 -138.3257,169.0685 -138.3257,153.6916 -138.326,153.6972 -153.6915,138.3259 -153.6973,138.3258 -153.6972,122.9544 -169.063,122.9599 -184.4344,122.9545 -184.4344,92.2173 -184.4344,92.217 -184.4345,92.2172 -199.8057,76.8459 -199.8002,76.8514 -199.8059,46.1086 -215.1716,46.1085 -215.1772,46.1086 -215.1715,30.7374 -215.1716,15.3713 h -215.1773 -230.543 l -215.1715,-15.3713 -215.1717,-30.7374 -215.1771,-46.1086 -199.8002,-46.1085 -215.1773,-46.1086 -92.2171,-46.1086 -107.5831,-30.7428 -199.8059,-76.8459 -184.4342,-92.2172 -184.4345,-92.217 -184.4344,-92.2173 -169.0631,-122.9545 -169.0686,-122.9599 -169.063,-122.9544 L 1644.2848,7662.1993 1490.5931,7523.8734 1352.2673,7370.1762 1213.9415,7216.4846 1090.9816,7047.4161 968.02709,6878.3531 860.4385,6709.29 752.85542,6524.8556 660.63826,6340.4211 568.421,6155.9867 491.56976,5956.181 430.09527,5756.3752 368.61525,5556.5749 322.5067,5341.3978 276.39802,5126.2261 261.02667,4911.0545 230.28949,4695.8774 Z m 445.71459,0 v -199.8058 l 15.37143,-199.8003 15.37144,-199.8058 46.10847,-184.4343 30.73736,-184.4344 61.47991,-184.4344 61.4745,-184.4344 61.4799,-184.4345 76.84581,-169.0631 92.2172,-169.0683 92.2172,-153.6918 107.5886,-153.6971 107.5886,-153.6973 107.583,-153.6915 122.96,-138.326 122.9544,-138.3257 138.3258,-122.96 138.3259,-122.9544 153.6971,-122.9544 153.6918,-107.5886 153.697,-92.2172 153.6973,-92.2173 169.0629,-92.21712 184.4344,-76.84583 169.0631,-61.4799 184.4344,-61.48002 184.4344,-61.47439 184.4345,-46.10869 184.4343,-30.74276 199.8057,-15.36582 199.806,-15.37143 199.8001,-15.37144 199.8059,15.37144 184.4343,15.37143 199.8057,15.36582 199.8004,30.74276 184.4344,46.10869 184.4344,61.47439 169.0686,61.48002 184.4345,61.4799 169.0628,76.84583 169.0631,92.21712 153.6973,92.2173 169.0629,92.2172 153.6973,107.5886 138.3257,122.9544 138.3259,122.9544 138.3257,122.96 122.9544,138.3257 122.9601,138.326 122.9544,153.6915 107.5885,153.6973 92.2173,153.6971 92.2172,153.6918 92.2172,169.0683 76.8457,169.0631 76.8459,184.4345 61.48,184.4344 46.1086,184.4344 46.1086,184.4344 30.7372,184.4343 30.7428,199.8058 15.3658,199.8003 v 199.8058 199.8058 l -15.3658,184.4344 -30.7428,199.8002 -30.7372,184.4344 -46.1086,199.8059 -46.1086,184.4344 -61.48,169.063 -76.8459,184.4344 -76.8457,169.0685 -92.2172,169.0631 -92.2172,153.6973 -92.2173,169.0629 -107.5885,138.3258 -122.9544,153.6972 -122.9601,138.3258 -122.9544,138.3258 -138.3257,122.9544 -138.3259,122.9544 -138.3257,122.9601 -153.6973,107.583 -169.0629,92.2173 -153.6973,92.2171 -169.0631,92.2173 -169.0628,76.8512 -184.4345,61.4745 -169.0686,61.48 -184.4344,61.4799 -184.4344,46.1087 -199.8004,30.7372 -199.8057,15.3713 -184.4343,15.3659 -199.8059,15.3713 -199.8001,-15.3713 -199.806,-15.3659 -199.8057,-15.3713 -184.4343,-30.7372 -184.4345,-46.1087 -184.4344,-61.4799 -184.4344,-61.48 -169.0631,-61.4745 -184.4344,-76.8512 -169.0629,-92.2173 -153.6973,-92.2171 -153.697,-92.2173 -153.6918,-107.583 -153.6971,-122.9601 -138.3259,-122.9544 -138.3258,-122.9544 -122.9544,-138.3258 -122.96,-138.3258 -107.583,-153.6972 -107.5886,-138.3258 -107.5886,-169.0629 -92.2172,-153.6973 -92.2172,-169.0631 -76.84581,-169.0685 -61.4799,-184.4344 -61.4745,-169.063 -61.47991,-184.4344 -30.73736,-199.8059 -46.10847,-184.4344 -15.37144,-199.8002 -15.37143,-184.4344 z"
       id="path2699" />
  </g>
</svg>
