<?xml version="1.0" encoding="UTF-8" standalone="no"?>
<svg
   xmlns:dc="http://purl.org/dc/elements/1.1/"
   xmlns:cc="http://creativecommons.org/ns#"
   xmlns:rdf="http://www.w3.org/1999/02/22-rdf-syntax-ns#"
   xmlns:svg="http://www.w3.org/2000/svg"
   xmlns="http://www.w3.org/2000/svg"
   xmlns:sodipodi="http://sodipodi.sourceforge.net/DTD/sodipodi-0.dtd"
   xmlns:inkscape="http://www.inkscape.org/namespaces/inkscape"
   width="9000mm"
   height="9000mm"
   viewBox="0 0 9000 9000"
   version="1.1"
   id="svg8"
   inkscape:version="1.0.2-2 (e86c870879, 2021-01-15)"
   sodipodi:docname="camera-icon.svg">
  <defs
     id="defs2">
    <pattern
       id="EMFhbasepattern"
       patternUnits="userSpaceOnUse"
       width="6"
       height="6"
       x="0"
       y="0" />
    <pattern
       id="EMFhbasepattern-4"
       patternUnits="userSpaceOnUse"
       width="6"
       height="6"
       x="0"
       y="0" />
    <pattern
       id="EMFhbasepattern-7"
       patternUnits="userSpaceOnUse"
       width="6"
       height="6"
       x="0"
       y="0" />
    <pattern
       id="EMFhbasepattern-5"
       patternUnits="userSpaceOnUse"
       width="6"
       height="6"
       x="0"
       y="0" />
    <pattern
       id="EMFhbasepattern-2"
       patternUnits="userSpaceOnUse"
       width="6"
       height="6"
       x="0"
       y="0" />
    <pattern
       id="EMFhbasepattern-73"
       patternUnits="userSpaceOnUse"
       width="6"
       height="6"
       x="0"
       y="0" />
  </defs>
  <sodipodi:namedview
     id="base"
     pagecolor="#ffffff"
     bordercolor="#666666"
     borderopacity="1.0"
     inkscape:pageopacity="0.0"
     inkscape:pageshadow="2"
     inkscape:zoom="0.015467961"
     inkscape:cx="17268.238"
     inkscape:cy="17114.987"
     inkscape:document-units="mm"
     inkscape:current-layer="layer1"
     inkscape:document-rotation="0"
     showgrid="false"
     inkscape:window-width="1298"
     inkscape:window-height="1040"
     inkscape:window-x="78"
     inkscape:window-y="0"
     inkscape:window-maximized="0" />
  <metadata
     id="metadata5">
    <rdf:RDF>
      <cc:Work
         rdf:about="">
        <dc:format>image/svg+xml</dc:format>
        <dc:type
           rdf:resource="http://purl.org/dc/dcmitype/StillImage" />
        <dc:title></dc:title>
      </cc:Work>
    </rdf:RDF>
  </metadata>
  <g
     inkscape:label="Capa 1"
     inkscape:groupmode="layer"
     id="layer1">
    <path
       style="fill:#000000;fill-opacity:1;fill-rule:evenodd;stroke:none;stroke-width:13.5323"
       d="m 1074.3098,3472.12 h 1712.1828 l -70.7496,113.2008 -56.603,127.3526 -56.5979,127.3527 -42.4508,127.3528 -28.304,141.5046 -28.299,141.4997 -14.152,141.5046 -14.1467,141.5048 14.1467,99.0487 v 113.2058 l 28.3041,198.1024 56.5978,198.1026 70.755,183.9555 42.4508,84.9019 42.4509,84.9017 42.4509,84.9019 56.5979,84.9017 56.6027,70.7499 56.603,84.9018 127.3527,141.5047 70.7498,70.7498 70.7498,56.603 84.9018,56.6027 70.7548,56.5979 169.8036,113.2057 84.9019,42.4509 99.0486,42.451 84.9019,28.2988 99.0538,28.299 84.9017,28.3041 99.0539,28.2988 99.0486,14.1519 113.2058,14.1471 198.1027,14.152 212.2545,-14.152 198.1024,-28.299 198.1076,-56.6029 183.9504,-56.5978 84.9019,-42.451 84.9018,-42.4509 84.9018,-56.6027 84.9018,-56.603 70.755,-56.5979 84.9019,-56.6027 141.4994,-127.3528 70.755,-70.7499 56.5978,-70.7548 56.6028,-84.9018 56.603,-70.7499 113.2006,-169.8036 42.4508,-84.9017 42.4511,-84.9019 28.2987,-99.0538 28.304,-84.9017 28.2991,-99.0488 28.2988,-99.0538 14.1519,-99.0538 14.1521,-99.0486 14.1471,-212.2545 -14.1471,-141.5048 -14.1521,-141.5046 -28.2987,-141.4997 -28.304,-141.5046 -42.4511,-127.3528 -56.5977,-127.3527 -56.6029,-127.3526 -70.7497,-113.2008 h 1712.1829 v 3339.4691 42.451 l -28.299,28.2988 -28.2988,28.304 h -42.4511 -6650.6444 -42.4508 l -28.299,-28.304 -14.1519,-28.2988 -14.1469,-42.451 z m 4443.1925,-254.7053 -113.2007,-84.9018 -113.2059,-56.6029 -113.2006,-70.7499 -127.3526,-42.4508 -127.3528,-42.451 -141.5046,-28.304 -141.4997,-14.1469 -141.5046,-14.1519 -141.5048,14.1519 -141.4995,14.1469 -127.3528,28.304 -141.5046,42.451 -127.3529,42.4508 -113.2007,70.7499 -113.2057,56.6029 -113.2006,84.9018 h -509.4109 l 70.7498,-84.9018 84.9018,-70.755 70.755,-70.7498 84.9016,-70.7498 169.8037,-113.2059 99.0488,-56.5976 99.0538,-42.451 99.0538,-42.4508 99.0486,-42.451 99.0539,-28.304 113.2005,-28.2988 99.0538,-28.299 113.2007,-14.1521 h 113.2058 113.2009 113.2005 113.2059 l 113.2006,14.1521 99.0538,28.299 113.2009,28.2988 99.0538,28.304 99.0486,42.451 99.0538,42.4508 198.1025,99.0486 84.9018,56.6031 84.9019,56.6028 84.9017,70.7498 84.9019,70.7498 141.5046,155.6568 z m -2122.545,1372.5757 v -113.2008 l 14.152,-113.2006 28.2988,-99.0539 42.4511,-113.2005 42.4508,-99.0539 56.603,-84.9018 70.7498,-84.9019 70.7496,-84.9017 84.9019,-70.7498 84.9017,-56.6029 84.9019,-56.603 99.0538,-56.5978 113.2006,-28.3039 99.0538,-28.2989 113.2009,-28.299 h 113.2057 113.2007 l 113.2006,28.299 113.2059,28.2989 99.0488,28.3039 99.0538,56.5978 99.0538,56.603 84.9019,56.6029 70.7496,70.7498 70.7498,84.9017 70.7549,84.9019 56.5979,84.9018 42.4508,99.0539 42.451,113.2005 28.304,99.0539 14.1468,113.2006 14.152,113.2008 -14.152,113.2059 -14.1468,113.2006 -28.304,113.2006 -42.451,99.0539 -42.4508,99.0538 -56.5979,99.0486 -70.7549,84.9017 -70.7498,70.7551 -70.7496,84.9018 -84.9019,56.5978 -99.0538,56.6029 -99.0538,42.4509 -99.0488,42.4508 -113.2059,28.299 -113.2006,14.1521 -113.2007,14.152 -113.2057,-14.152 -113.2009,-14.1521 -99.0538,-28.299 -113.2006,-42.4508 -99.0538,-42.4509 -84.9019,-56.6029 -84.9017,-56.5978 -84.9019,-84.9018 -70.7496,-70.7551 -70.7498,-84.9017 -56.603,-99.0486 -42.4508,-99.0538 -42.4511,-99.0539 -28.2988,-113.2006 -14.152,-113.2006 z M 154.5368,1929.7356 v -70.7498 l 14.15199,-28.304 v -28.299 l 14.15199,-56.6027 28.29902,-56.5979 14.152,-56.6028 42.45081,-56.603 28.29881,-42.4508 42.45101,-42.451 42.45081,-42.4509 42.45101,-28.299 56.6028,-42.4508 56.59783,-14.1519 56.603,-28.299 56.6028,-14.1521 56.59783,-14.1468 h 70.7548 7457.20659 56.6031 l 56.5976,14.1468 70.755,14.1521 56.5978,28.299 42.4508,14.1519 56.6031,42.4508 42.4507,28.299 42.451,42.4509 42.4509,42.451 42.451,42.4508 28.2988,56.603 28.304,56.6028 14.1468,56.5979 14.1519,56.6027 14.1521,56.603 v 70.7498 5221.4608 56.603 28.2988 l -14.1521,28.2988 -14.1519,70.755 -14.1468,56.5979 -28.304,42.4507 -28.2988,56.6031 -42.451,42.4508 -42.4509,42.4509 -42.451,42.4509 -42.4507,42.451 -56.6031,28.2988 -42.4508,28.304 -56.5978,14.1468 -70.755,14.1522 -56.5976,14.152 h -56.6031 -7457.20659 -70.7548 l -56.59783,-14.152 -56.6028,-14.1522 -56.603,-14.1468 -56.59783,-28.304 -56.6028,-28.2988 -42.45101,-42.451 -42.45081,-42.4509 -42.45101,-42.4509 -28.29881,-42.4508 -42.45081,-56.6031 -14.152,-42.4507 -28.29902,-56.5979 -14.15199,-70.755 -14.15199,-56.5976 v -56.603 z m 523.5629,141.5046 v 4924.3045 56.5978 l 28.29881,56.6031 28.304,56.6028 28.29881,42.451 42.451,42.4508 56.60282,28.2988 56.59781,14.1522 70.755,14.1468 H 8022.1055 l 56.6028,-14.1468 56.5978,-14.1522 56.6031,-28.2988 42.4507,-42.4508 42.4508,-42.451 28.299,-56.6028 14.1521,-56.6031 v -56.5978 -4924.3045 -56.6027 l -14.1521,-56.603 -28.299,-56.5979 -42.4508,-42.4508 -42.4507,-42.4509 -56.6031,-28.304 -56.5978,-14.1469 h -56.6028 -7032.69755 -70.755 l -56.59781,14.1469 -56.60282,28.304 -42.451,42.4509 -28.29881,42.4508 -28.304,56.5979 -28.29881,56.603 z"
       id="path2686" />
  </g>
</svg>
