<?xml version="1.0" encoding="UTF-8" standalone="no"?>
<svg
   xmlns:dc="http://purl.org/dc/elements/1.1/"
   xmlns:cc="http://creativecommons.org/ns#"
   xmlns:rdf="http://www.w3.org/1999/02/22-rdf-syntax-ns#"
   xmlns:svg="http://www.w3.org/2000/svg"
   xmlns="http://www.w3.org/2000/svg"
   xmlns:sodipodi="http://sodipodi.sourceforge.net/DTD/sodipodi-0.dtd"
   xmlns:inkscape="http://www.inkscape.org/namespaces/inkscape"
   width="9000mm"
   height="9000mm"
   viewBox="0 0 9000 9000"
   version="1.1"
   id="svg8"
   inkscape:version="1.0.2-2 (e86c870879, 2021-01-15)"
   sodipodi:docname="cog-icon.svg">
  <defs
     id="defs2">
    <pattern
       id="EMFhbasepattern"
       patternUnits="userSpaceOnUse"
       width="6"
       height="6"
       x="0"
       y="0" />
    <pattern
       id="EMFhbasepattern-4"
       patternUnits="userSpaceOnUse"
       width="6"
       height="6"
       x="0"
       y="0" />
    <pattern
       id="EMFhbasepattern-7"
       patternUnits="userSpaceOnUse"
       width="6"
       height="6"
       x="0"
       y="0" />
    <pattern
       id="EMFhbasepattern-5"
       patternUnits="userSpaceOnUse"
       width="6"
       height="6"
       x="0"
       y="0" />
    <pattern
       id="EMFhbasepattern-2"
       patternUnits="userSpaceOnUse"
       width="6"
       height="6"
       x="0"
       y="0" />
    <pattern
       id="EMFhbasepattern-3"
       patternUnits="userSpaceOnUse"
       width="6"
       height="6"
       x="0"
       y="0" />
  </defs>
  <sodipodi:namedview
     id="base"
     pagecolor="#ffffff"
     bordercolor="#666666"
     borderopacity="1.0"
     inkscape:pageopacity="0.0"
     inkscape:pageshadow="2"
     inkscape:zoom="0.015467961"
     inkscape:cx="17268.238"
     inkscape:cy="17114.987"
     inkscape:document-units="mm"
     inkscape:current-layer="layer1"
     inkscape:document-rotation="0"
     showgrid="false"
     inkscape:window-width="1298"
     inkscape:window-height="1040"
     inkscape:window-x="78"
     inkscape:window-y="0"
     inkscape:window-maximized="0" />
  <metadata
     id="metadata5">
    <rdf:RDF>
      <cc:Work
         rdf:about="">
        <dc:format>image/svg+xml</dc:format>
        <dc:type
           rdf:resource="http://purl.org/dc/dcmitype/StillImage" />
        <dc:title></dc:title>
      </cc:Work>
    </rdf:RDF>
  </metadata>
  <g
     inkscape:label="Capa 1"
     inkscape:groupmode="layer"
     id="layer1">
    <path
       style="fill-opacity:1;fill-rule:evenodd;stroke:none;stroke-width:17.451"
       d="m 2934.1972,4515.7859 18.2501,-164.2321 18.2436,-145.9819 36.5004,-145.9883 54.7441,-145.9819 54.744,-127.7383 91.2379,-145.9819 91.2377,-109.4879 91.2445,-109.488 109.488,-109.4881 127.7316,-72.9942 127.7382,-91.2378 127.7384,-54.744 145.9818,-54.7441 145.9817,-36.4938 164.2321,-36.5004 h 145.9885 164.232 l 145.9818,36.5004 164.2321,36.4938 127.7383,54.7441 145.9818,54.744 127.7383,91.2378 109.4879,72.9942 109.488,109.4881 109.4881,109.488 91.2379,109.4879 72.9942,145.9819 72.9876,127.7383 36.5004,145.9819 54.7439,145.9883 18.2436,145.9819 v 164.2321 164.232 l -18.2436,145.9818 -54.7439,145.9885 -36.5004,145.9818 -72.9876,145.9819 -72.9942,127.7383 -91.2379,109.4879 -109.4881,109.488 -109.488,109.4881 -109.4879,72.9942 -127.7383,91.2379 -145.9818,54.744 -127.7383,54.744 -164.2321,36.4936 -145.9818,36.5005 h -164.232 -145.9885 l -164.2321,-36.5005 -145.9817,-36.4936 -145.9818,-54.744 -127.7384,-54.744 -127.7382,-91.2379 -127.7316,-72.9942 -109.488,-109.4881 -91.2445,-109.488 -91.2377,-109.4879 -91.2379,-127.7383 -54.744,-145.9819 -54.7441,-145.9818 -36.5004,-145.9885 -18.2436,-145.9818 z m -437.9522,0 18.2503,-200.726 18.2436,-109.488 18.2501,-91.2443 18.2503,-91.2378 18.2436,-91.2379 36.5004,-91.2444 36.4938,-91.2379 72.9942,-182.4821 109.4881,-164.2321 109.4879,-145.9819 127.7317,-145.9819 145.9884,-127.7382 145.9819,-109.4879 164.2321,-109.4881 91.2377,-36.4938 91.2445,-36.5004 182.4756,-72.9877 182.4823,-54.744 200.7258,-18.2502 200.7325,-18.2502 200.7259,18.2502 h 109.4879 l 91.2379,18.2502 91.2443,36.4938 109.4882,18.2502 91.2378,36.4938 91.2378,36.4939 164.232,72.9942 164.232,109.4881 164.2321,109.4879 127.7383,127.7382 127.7381,145.9819 127.7316,145.9819 91.2445,164.2321 36.4938,91.2443 54.7441,91.2378 54.744,182.4823 54.744,182.4757 36.4939,200.7323 v 200.726 200.7259 l -18.2436,109.4879 -18.2503,91.2445 -18.2502,91.2377 -36.4938,91.2379 -18.2502,91.2445 -36.4938,91.2377 -91.2379,182.4822 -91.2445,164.2321 -127.7316,145.9819 -127.7381,145.9818 -127.7383,127.7382 -164.2321,109.488 -164.232,109.4881 -91.2378,36.4938 -72.9942,36.5005 -182.4756,72.9876 -200.7325,54.744 -200.7258,18.2502 -200.7259,18.2502 -200.7325,-18.2502 h -91.2379 l -109.4879,-18.2502 -91.2378,-36.4939 -91.2445,-18.2501 -91.2378,-36.4939 -91.2378,-36.4937 -182.4822,-72.9943 -164.2321,-109.4881 -145.9819,-109.488 -145.9884,-127.7382 -127.7317,-145.9818 -109.4879,-145.9819 -109.4881,-164.2321 -36.5004,-91.2443 -36.4938,-91.2379 -72.9942,-182.4822 -36.4939,-182.4756 -36.4937,-200.7324 z m -2335.74253,0 18.24361,-273.7201 18.25021,-273.7201 91.23784,-18.2502 91.24445,-36.4938 72.98763,-54.7441 91.24431,-54.744 72.98764,-54.744 72.99423,-54.744 127.73827,-145.9817 54.74402,-91.2445 36.49382,-72.9877 54.74403,-91.2443 36.49382,-91.2379 18.25015,-91.2379 18.2503,-91.2444 18.2437,-109.488 v -91.2377 l -18.2437,-182.4824 -36.50045,-164.232 -54.74404,-164.232 -72.98763,-145.9819 91.23785,-145.9819 109.48817,-145.9884 109.4879,-145.9818 109.4881,-127.7382 127.7383,-127.7317 127.7316,-127.7383 145.9884,-127.7382 127.7316,-109.4879 72.9943,54.7439 91.2378,36.5004 72.9943,36.4938 91.2378,36.4939 182.4821,54.744 h 200.726 109.488 l 109.488,-18.2436 109.4881,-18.2503 109.4879,-36.4937 91.2445,-54.7441 109.488,-36.5004 91.2379,-72.9875 72.9942,-72.9942 72.9877,-72.99427 72.9942,-72.98762 72.994,-91.24439 54.744,-91.23787 36.4939,-109.488 36.4939,-91.23776 36.5004,-109.48805 18.2436,-127.73827 182.4822,-18.2502 182.4823,-18.24362 200.7258,-18.2502 h 182.4823 218.9761 l 200.7258,18.2502 218.976,18.24362 200.726,36.50041 18.2501,109.48806 18.2503,109.48805 54.7439,109.4879 36.4937,91.23786 54.7441,91.23787 72.9942,91.24439 54.7441,91.23787 91.2379,72.99422 72.9941,54.744 91.2379,72.9875 91.2378,54.744 109.4879,36.5005 109.4882,36.4937 109.488,18.2503 109.488,18.2436 h 109.4881 182.4821 l 164.2321,-36.4939 164.2321,-72.9942 145.9818,-72.9876 145.9884,109.4881 127.7316,127.7316 127.7383,127.7383 127.7383,127.7382 127.7315,145.9818 109.4881,127.7382 109.488,164.2322 91.2445,145.9818 -72.9943,127.7381 -36.4938,145.9818 -36.5004,164.2321 v 72.9943 91.2379 182.4821 l 18.2502,91.2379 36.4938,91.2377 18.2502,91.2445 36.4938,72.9877 109.4881,164.2321 109.488,145.9883 54.744,54.744 72.9942,54.7441 72.9942,54.744 72.9876,54.744 91.2445,36.4938 72.9876,36.4938 18.2502,145.9885 18.2502,127.7315 v 291.9704 182.4822 182.4756 l -36.5004,182.4823 -18.2436,182.4823 -164.2321,72.9876 -145.9883,109.4879 -54.7441,54.744 -72.9876,54.7441 -109.488,145.9884 -91.2445,145.9819 -36.4938,91.2378 -18.2502,72.9943 -54.744,182.4821 v 91.2379 91.2379 145.9884 l 18.2502,127.7316 36.4938,127.7382 54.744,127.7383 -109.488,145.9819 -109.488,164.232 -127.7316,145.9817 -127.7383,127.7383 -273.7201,273.7201 -291.9702,237.2262 -54.744,-36.5004 -72.9877,-18.2436 -127.7383,-36.5004 -145.9818,-36.4939 H 6529.052 6419.5639 l -91.2378,18.2503 -109.4881,18.2436 -91.2379,18.2502 -91.2444,36.4938 -91.2377,54.744 -91.2378,54.7441 -72.9942,54.744 -145.9819,127.7383 -72.9943,72.9942 -54.744,91.2379 -54.7441,72.994 -36.4937,91.2379 -36.5003,91.2378 -36.4939,91.2444 -200.7258,36.4939 -218.9762,36.4937 -218.9759,18.2503 h -218.9761 -200.7325 l -182.4756,-18.2503 -200.7325,-18.2436 -200.7259,-36.5004 -18.2501,-91.2378 -36.4939,-91.2378 -91.2379,-182.4821 -54.7439,-72.9943 -72.9942,-91.2378 -72.9942,-54.744 -72.9877,-72.9943 -72.9941,-54.744 -91.2379,-54.7441 -91.2445,-36.4938 -91.2377,-54.744 -91.2378,-18.2502 -109.4881,-18.2436 -109.488,-18.2503 h -91.2444 -164.2321 l -164.2319,36.4939 -72.9878,18.2502 -72.9941,36.4938 -127.7384,54.744 -145.9818,-109.488 -145.9817,-109.4879 -127.7382,-127.7317 -127.7383,-127.7383 -127.7317,-145.9819 -127.7383,-145.9883 -109.4881,-145.9818 -109.488,-145.9819 54.74403,-127.7382 54.74397,-145.9819 36.494,-145.9884 v -164.232 -91.2379 l -18.2437,-91.2379 -18.2503,-109.488 -18.25015,-91.2444 -36.49382,-91.2377 -36.49382,-72.9943 -54.74403,-91.2378 -54.74402,-72.9943 -54.74404,-72.9876 -72.99423,-72.9942 -54.74402,-54.7441 -72.99423,-72.9941 -164.23196,-91.2379 -91.23784,-36.4937 -91.23785,-36.5004 L 178.74608,4862.5 160.50247,4698.2681 Z m 510.93972,0 v -182.4824 l 18.2502,-182.4755 164.23208,-54.744 127.73826,-72.9942 109.48807,-72.9943 54.7441,-36.4938 54.744,-54.7441 72.9876,-91.2377 72.9942,-127.7384 54.744,-145.9816 36.4939,-164.2322 18.2501,-127.7382 18.2503,-145.9819 v -145.9884 -127.7316 l -18.2503,-127.7383 -18.2501,-127.7382 -36.4939,-91.2379 -36.4937,-72.9942 145.9819,-237.2195 127.7382,-182.4824 72.9875,-72.9942 91.2444,-72.9877 200.7259,-182.4821 91.2379,36.4938 109.4881,36.5004 127.738,36.4938 h 164.2321 l 145.9819,18.2501 164.2321,-18.2501 h 145.9883 l 145.9819,-36.4938 182.4822,-54.744 164.2321,-91.2444 145.9818,-72.9877 54.744,-54.744 72.9943,-54.744 54.744,-72.9943 36.4938,-54.744 36.4938,-72.9942 36.5005,-72.9875 36.4937,-72.9942 18.2503,-91.23789 36.4937,-182.48226 255.4699,-54.744 h 109.488 l 145.9885,-18.25025 164.232,18.25025 h 127.7315 l 291.9704,54.744 v 72.99426 l 18.2503,72.98761 54.744,145.98848 36.4938,72.9876 54.744,72.9941 54.744,72.9943 54.744,54.744 54.7439,72.9876 72.9943,54.744 164.2321,109.4881 164.232,72.9942 91.2379,36.4938 91.2378,36.5004 164.2319,36.4938 145.9885,18.2501 164.2322,18.2436 h 145.9817 l 127.7383,-18.2436 127.7316,-18.2501 91.2444,-18.2502 54.7441,-18.2436 36.4938,-18.2501 200.7257,164.2319 72.9943,72.9942 54.744,54.744 109.4881,145.9819 145.9819,218.9761 -18.2437,72.9942 -36.5005,54.744 v 72.9876 l -18.2435,72.9942 -18.2502,145.9819 v 145.9885 l 18.2502,127.7315 18.2435,127.7383 18.2503,109.488 18.2502,72.9942 54.7441,109.488 36.4938,109.4882 54.744,109.4879 72.9941,109.4881 54.7441,54.744 36.4937,54.744 109.4881,72.9876 109.488,91.2445 145.9819,54.744 18.2503,218.9759 18.2501,200.726 v 145.9819 l -18.2501,127.7381 -36.4939,273.7201 -127.7383,54.744 -109.488,54.744 -91.2378,72.9943 -72.9943,54.744 -54.7439,91.2379 -54.744,72.994 -91.2378,200.726 -36.5004,72.9942 -18.2437,72.9876 -36.5005,145.9884 -18.2435,164.232 v 145.9819 l 18.2435,72.9943 v 72.9876 l 18.2503,109.488 18.2502,109.488 36.4938,54.744 -91.2378,145.9884 -91.2445,109.4881 -72.9876,109.488 -91.2445,91.2379 -91.2376,91.2378 -109.4881,91.2443 -237.2263,182.4758 -127.7316,-54.7442 -145.9884,-36.4937 h -164.2321 -182.4757 l -91.2445,18.2502 -109.488,18.2435 -91.2377,18.2503 -91.2378,36.4939 -91.2445,36.5003 -91.2378,36.4939 -72.9943,54.744 -72.9876,54.744 -72.9943,54.744 -72.994,72.9943 -109.4881,127.7315 -54.744,72.9942 -36.4938,91.2379 -36.4938,72.9943 -18.2503,91.2377 -164.232,36.5005 -145.9819,18.2436 -145.9884,18.2502 h -182.4756 l -255.4765,18.2502 -109.488,-18.2502 -145.9819,-18.2502 -72.9942,-164.2321 -72.9876,-145.9819 -109.488,-127.7382 -109.4882,-127.7315 -54.744,-54.744 -72.994,-36.5005 -109.4881,-91.2378 -127.7383,-54.7441 -109.488,-54.744 -91.2378,-18.2503 -72.9943,-18.2435 -91.2377,-18.2502 h -72.9942 l -145.9819,-18.2503 -127.7382,18.2503 -127.7317,18.2502 -109.4879,18.2435 -145.9885,72.9943 -237.2198,-182.4823 -91.2444,-72.9876 -91.2378,-91.2443 -72.9941,-91.2378 -91.2378,-109.4881 -164.2322,-237.2263 36.4939,-72.9876 18.2501,-91.2444 18.2503,-109.488 18.2436,-145.9819 v -127.7382 -145.9819 l -36.4939,-145.9818 -36.4937,-127.7382 -72.9943,-145.9819 -72.9942,-127.7382 -36.4938,-54.7441 -36.4938,-54.7438 -91.2445,-91.2379 -91.2379,-72.9943 -91.23779,-72.9942 -91.24445,-54.744 -127.73166,-36.4938 -36.50041,-273.7201 v -127.7381 z"
       id="path848" />
  </g>
</svg>
