<?xml version="1.0" encoding="UTF-8" standalone="no"?>
<svg
   xmlns:dc="http://purl.org/dc/elements/1.1/"
   xmlns:cc="http://creativecommons.org/ns#"
   xmlns:rdf="http://www.w3.org/1999/02/22-rdf-syntax-ns#"
   xmlns:svg="http://www.w3.org/2000/svg"
   xmlns="http://www.w3.org/2000/svg"
   xmlns:sodipodi="http://sodipodi.sourceforge.net/DTD/sodipodi-0.dtd"
   xmlns:inkscape="http://www.inkscape.org/namespaces/inkscape"
   width="1900mm"
   height="970mm"
   viewBox="0 0 1900 970"
   version="1.1"
   id="svg2269"
   inkscape:version="1.0.2-2 (e86c870879, 2021-01-15)"
   sodipodi:docname="duo-libros.svg">
  <defs
     id="defs2263">
    <pattern
       id="EMFhbasepattern"
       patternUnits="userSpaceOnUse"
       width="6"
       height="6"
       x="0"
       y="0" />
    <pattern
       id="EMFhbasepattern-0"
       patternUnits="userSpaceOnUse"
       width="6"
       height="6"
       x="0"
       y="0" />
    <pattern
       id="EMFhbasepattern-7"
       patternUnits="userSpaceOnUse"
       width="6"
       height="6"
       x="0"
       y="0" />
  </defs>
  <sodipodi:namedview
     id="base"
     pagecolor="#ffffff"
     bordercolor="#666666"
     borderopacity="1.0"
     inkscape:pageopacity="0.0"
     inkscape:pageshadow="2"
     inkscape:zoom="0.04"
     inkscape:cx="3134.1401"
     inkscape:cy="2309.9062"
     inkscape:document-units="mm"
     inkscape:current-layer="layer1"
     inkscape:document-rotation="0"
     showgrid="false"
     inkscape:window-width="1298"
     inkscape:window-height="1040"
     inkscape:window-x="78"
     inkscape:window-y="0"
     inkscape:window-maximized="0"
     inkscape:showpageshadow="false" />
  <metadata
     id="metadata2266">
    <rdf:RDF>
      <cc:Work
         rdf:about="">
        <dc:format>image/svg+xml</dc:format>
        <dc:type
           rdf:resource="http://purl.org/dc/dcmitype/StillImage" />
        <dc:title></dc:title>
      </cc:Work>
    </rdf:RDF>
  </metadata>
  <g
     inkscape:label="Capa 1"
     inkscape:groupmode="layer"
     id="layer1">
    <path
       style="fill:#000000;fill-opacity:1;fill-rule:nonzero;stroke:none;stroke-width:1.79859"
       d="m 249.43973,474.40257 1.8807,-30.09188 1.88076,-15.04591 3.76146,-15.04597 1.88076,-15.0459 3.76146,-13.16521 5.64222,-15.04591 1.88077,-7.52298 3.76146,-5.64223 5.64223,-13.16514 7.52298,-13.16521 15.04591,-26.33035 16.92666,-22.56889 9.40375,-11.28445 9.40369,-9.40375 22.56889,-20.68813 11.28444,-9.40368 11.28445,-7.523 13.16521,-7.52298 13.16514,-7.52292 11.28445,-7.52299 15.04598,-5.64222 26.33035,-9.40368 15.0459,-5.64222 15.04597,-1.88077 15.04591,-3.76146 15.04591,-1.88076 30.09188,-1.88077 31.97257,1.88077 15.04598,1.88076 15.0459,3.76146 15.04591,1.88077 13.1652,5.64222 15.04591,3.76146 5.64223,3.76146 7.52298,1.88076 13.16521,5.64222 13.16514,7.52299 24.44966,15.0459 24.4496,16.92668 11.28444,9.40367 9.40375,11.28446 20.68813,20.6882 7.52298,11.28444 9.40369,11.28445 7.52298,13.16514 7.52293,13.16521 7.52298,13.16521 5.64223,13.16514 9.40368,28.21112 3.76152,13.16521 3.76146,15.0459 3.76146,15.04597 1.88077,15.04591 v 30.09188 31.97257 l -1.88077,15.04591 -3.76146,15.04598 -3.76146,15.0459 -3.76152,13.16522 -3.76147,15.0459 -3.76146,7.52298 -1.88075,5.64221 -5.64223,13.1652 -7.52298,13.16517 -15.04591,26.33038 -16.92667,22.56891 -9.40368,11.28443 -11.28445,9.4037 -20.68819,20.68816 -11.28439,9.40371 -13.16521,7.52295 -11.28445,7.52297 -13.16521,7.52297 -13.16514,7.52297 -13.16521,5.64219 -28.21112,9.40375 -13.1652,3.76146 -15.04591,3.76146 -15.0459,3.76152 -15.04598,1.88071 -31.97257,1.88076 -30.09188,-1.88076 -15.04591,-1.88071 -15.04591,-3.76152 -15.04597,-3.76146 -15.0459,-3.76146 -13.16521,-3.76152 -7.52293,-3.76147 -5.64221,-1.88076 -15.04598,-5.64219 -11.28445,-7.52297 -26.33035,-15.04594 -22.56889,-16.92666 -11.28445,-9.40371 -11.28444,-11.28445 -18.80744,-20.68813 -9.40368,-11.28446 -7.52298,-11.28445 -7.523,-13.16518 -7.52291,-13.1652 -7.52298,-13.16517 -5.64223,-13.1652 -11.28445,-28.21109 -3.76146,-13.16522 -1.88076,-15.0459 -3.76146,-15.04598 -1.88076,-15.04591 z m 270.82671,0 1.8807,7.52299 1.88076,5.64215 1.88077,5.64222 3.76145,3.76153 5.64223,3.76147 5.64222,3.76146 5.64222,1.88075 h 5.64223 7.52291 l 5.64229,-1.88075 5.64223,-3.76146 3.76146,-3.76147 3.76146,-3.76153 3.76152,-5.64222 1.8807,-5.64215 v -7.52299 -5.64222 l -1.8807,-5.64222 -3.76152,-5.64223 -3.76146,-5.64223 -3.76146,-3.76152 -5.64223,-1.88069 -5.64229,-1.88077 h -7.52291 -5.64223 l -5.64222,1.88077 -5.64222,1.88069 -5.64223,3.76152 -3.76145,5.64223 -1.88077,5.64223 -1.88076,5.64222 z m 135.41335,71.46814 -9.40375,11.28444 -9.40368,11.28445 -13.16521,9.40372 -11.28444,7.52296 -15.04591,5.64224 -13.16521,5.6422 h -7.52291 l -7.523,1.88074 -16.92666,1.88074 -16.92667,-1.88074 -9.40368,-1.88074 -7.523,-1.88074 -7.52298,-1.88074 -9.40368,-3.76147 -13.16521,-7.52297 -7.52298,-5.64223 -7.52293,-3.76149 -11.28444,-11.28439 -11.28445,-13.16522 -7.52299,-15.04597 -127.89036,58.30302 9.40368,16.92665 9.40375,15.04592 9.40368,15.04595 13.16521,13.16517 11.28444,13.1652 13.16514,11.28443 15.04598,11.28446 15.04591,11.28443 15.04591,9.40372 16.92666,7.52297 16.92667,7.52297 16.92667,5.6422 18.80743,5.64223 18.80744,1.88074 18.80736,1.88074 18.80744,1.88074 20.68812,-1.88074 18.80743,-1.88074 20.68814,-3.76148 18.80743,-3.76149 16.92667,-7.52295 18.80737,-7.52297 16.92673,-7.52297 15.04591,-11.28443 15.04591,-11.28445 15.04596,-11.28446 13.16515,-13.16518 13.16522,-13.16519 11.28444,-15.04593 11.28445,-15.04592 9.40368,-16.92668 7.52298,-16.92666 z m 15.04591,-30.09188 -3.76152,7.52299 -3.76146,9.40368 139.17481,30.09188 7.52299,-24.44966 z m -206.88149,-127.89037 9.40368,-7.52299 9.40368,-7.52291 9.40375,-5.64223 11.28439,-5.64222 11.28451,-5.64222 13.16514,-1.88077 11.28445,-1.8807 13.16521,-1.88075 16.92666,1.88075 16.92668,3.76147 15.0459,3.76146 13.16521,7.52298 13.16522,9.40369 11.28437,9.40368 11.28452,11.28444 9.40368,13.16521 127.89037,-58.30293 -9.40368,-15.04596 -9.40375,-15.04591 -11.28445,-13.16521 -11.28444,-15.04591 -5.64216,-5.64223 -7.52299,-5.64221 -13.16522,-11.28445 -13.16514,-11.28444 -15.04596,-9.40377 -15.04591,-9.40367 -16.92667,-7.52299 -16.92668,-7.52292 -16.92666,-5.64222 -7.52298,-1.88076 -9.40369,-1.88077 -18.80743,-3.76146 -18.80737,-1.88077 h -18.80743 -15.04591 l -15.04597,1.88077 -16.92668,1.88076 -15.04589,3.76147 -13.16522,3.76146 -15.0459,5.64221 -15.04591,5.64223 -13.16521,5.64222 -13.16521,7.52299 -13.16514,7.52299 -11.28445,7.52292 -11.28444,9.40375 -11.28452,11.28445 -11.28437,9.40367 -9.40375,11.28445 -9.40369,11.28446 z m -24.44965,37.6148 7.52298,-15.04591 -139.17489,-33.85333 -3.76145,13.1652 -5.64222,11.28444 z"
       id="path2867" />
    <path
       style="fill:#000000;fill-opacity:1;fill-rule:nonzero;stroke:none;stroke-width:1.79859"
       d="m 223.10933,551.51293 -110.96371,54.54151 7.52296,20.68814 107.20223,-62.06443 5.64222,20.68813 9.40371,18.80741 9.40369,18.8074 11.28444,18.80743 7.52299,13.16518 7.52299,13.1652 -37.61485,78.99112 16.92665,7.52293 15.04597,3.76153 16.92668,3.76146 18.80735,3.76145 16.92668,1.88077 H 341.596 l 16.92666,-1.88077 18.80744,-1.88069 9.40368,5.64223 11.28445,7.52292 11.28444,5.64222 13.16521,5.64222 -20.68819,5.64222 -18.80737,3.76153 -20.68812,3.76147 h -18.80744 -20.68813 l -18.80743,-1.88077 -20.68813,-1.8807 -18.80743,-5.64222 -18.80743,-5.64222 -18.8074,-7.52299 -18.80741,-7.52299 -16.92666,-11.28444 -16.92667,-11.28442 -16.92668,-13.1652 -15.04593,-15.04592 -7.52296,-7.52297 -5.64221,-7.52297 -9.40371,-11.28443 -7.52296,-11.28445 -15.045945,-22.5689 -11.28444,-24.44963 -3.76148,-11.28445 -5.64222,-13.16519 -5.64223,-26.33037 -1.88074,-11.28445 -1.88074,-13.16514 -1.88074,-26.33043 1.88074,-26.33035 3.76148,-26.33035 1.88075,-11.28452 3.76148,-13.16514 7.52296,-24.44966 5.64223,-13.16521 5.64222,-11.28444 5.642235,-11.28445 7.52296,-11.28444 7.52296,-11.28437 7.52297,-11.28452 18.80739,-18.80737 18.80741,-18.80743 15.04593,-13.16521 16.92667,-9.40369 15.04593,-9.40368 16.92668,-9.40375 16.92666,-5.64223 16.92667,-5.64221 18.80744,-5.64223 16.92659,-1.8807 -15.04589,18.80737 -13.16522,22.56889 -11.28438,3.76153 -11.28447,3.76147 -9.40371,5.64221 -11.28444,5.64223 -20.68815,11.28445 -9.40371,7.52298 -9.40371,7.52298 -9.40369,9.40369 -11.28445,9.40368 -7.52296,11.28445 -9.4037,9.40367 -15.04594,22.5689 -5.64222,13.16522 -5.64222,11.28444 -5.64223,13.1652 -3.76148,11.28446 -3.76148,13.16514 -1.88073,13.16521 -1.88075,13.1652 -1.88073,13.16515 v 13.1652 13.16522 l 118.48667,-16.92667 1.88074,13.16514 z"
       id="path2869" />
    <path
       style="fill:#000000;fill-opacity:1;fill-rule:nonzero;stroke:none;stroke-width:1.79859"
       d="m 1509.5362,773.44039 291.5149,-280.23046 3.7616,-3.76145 5.6422,-1.88077 h 1.8807 l 1.8807,1.88077 5.6422,3.76145 1.8808,1.88077 v 3.76146 5.64223 5.64229 l -3.7615,9.40368 -3.7615,3.76146 -1.8807,1.88076 -289.6341,276.46893 -7.523,5.64221 -7.523,5.64223 -7.5229,1.88076 h -7.523 l -5.6422,-1.88076 -7.5231,-1.88076 -43.257,-20.68814 -174.9088,-86.51408 h -9.4038 l -1.8807,13.16519 v 7.52294 l 1.8807,7.52298 1.8807,9.40371 1.8808,7.52297 3.7614,5.64219 5.6423,3.76153 16.9267,9.40368 18.8074,11.28445 20.6881,9.40368 165.5053,80.87189 3.7614,1.88076 h 5.6422 5.6423 l 3.7615,-1.88076 5.6422,-3.76146 289.6341,-278.34969 5.6423,-3.76148 3.7615,-1.88075 h 3.7614 l 1.8808,1.88075 5.6422,1.88073 v 3.76149 l 1.8807,1.88075 v 7.52294 l -1.8807,5.64223 -3.7615,7.52296 -3.7615,5.64224 -1.8807,1.88072 -289.6341,276.46892 -5.6422,5.64223 -7.5231,5.64222 -9.4036,1.88076 h -5.6423 l -7.5229,-1.88076 -5.6422,-1.8807 -11.2845,-5.64222 -208.7622,-97.79855 -11.2845,-5.64223 -9.4037,-5.64223 -7.523,-5.64222 -7.5229,-5.64222 -5.6423,-7.52299 -3.7615,-7.52292 -3.7614,-9.40375 -3.7615,-9.40367 -1.8807,-18.80743 -1.8808,-16.92666 v -15.04592 -18.80743 l 1.8808,-16.92666 -1.8808,-5.64222 -1.8808,-5.64223 -1.8806,-11.28444 v -63.94521 -11.28439 l 3.7614,-11.28452 1.8808,-9.40368 5.6422,-9.40369 7.5229,-9.40375 7.523,-9.40368 9.4037,-7.52298 11.2844,-9.40369 223.8082,-186.19336 16.9267,-15.04591 5.6422,-3.76152 5.6423,-1.88071 5.6422,-1.88075 h 7.5229 5.6423 l 5.6422,1.88075 7.5229,3.76146 238.8542,107.20225 3.7615,3.76152 3.7614,3.76146 1.8808,3.76146 v 3.76146 l 1.8807,7.52299 -1.8807,3.76146 -3.7615,3.76152 -141.0556,126.00962 -126.0097,114.72523 -5.6422,3.76147 -5.6422,3.76148 -5.6422,1.88075 -5.6422,1.88074 -5.6422,-1.88074 h -3.7616 l -7.5229,-3.76149 -58.303,-26.33037 -169.2667,-77.11039 1.8808,63.94521 v 5.64223 l 1.8807,7.52295 1.8807,3.76149 3.7615,5.64222 7.5229,5.64223 7.5231,5.64222 9.4036,5.64221 191.8356,92.15632 16.9267,7.52298 3.7615,1.88071 7.5229,1.88076 3.7616,-1.88076 5.6422,-1.88071 z"
       id="path2871" />
    <path
       style="fill:#000000;fill-opacity:1;fill-rule:evenodd;stroke:none;stroke-width:1.79859"
       d="m 1088.2502,337.10846 v -3.76147 l 1.8807,-1.88076 1.8807,-1.88077 1.8809,-1.88069 3.7615,-1.88076 h 1.8807 3.7615 3.7614 l 97.7986,30.09188 3.7615,1.88069 3.7615,1.88077 3.7614,5.64221 3.7615,5.64223 v 7.52298 l 1.8807,28.21112 v 1.8807 l -1.8807,3.76153 -1.8807,1.88069 -1.8808,1.88076 -1.8807,1.88077 h -3.7615 -3.7614 -3.7616 l -97.7985,-28.21112 -3.7615,-1.88076 -1.8807,-1.88076 -5.6422,-5.64223 -3.7616,-5.64214 v -7.523 z m 327.249,-77.11036 -1.8807,-3.76154 -1.8808,-5.64223 -1.8807,-3.76145 -5.6423,-3.76146 -3.7615,-1.88076 -16.9266,-3.76147 -197.4779,-48.89931 -9.4036,-1.88069 h -9.4037 -9.4038 l -5.6422,1.88069 -5.6422,1.88077 -5.6422,3.76146 -5.6422,5.64222 -47.0186,48.89931 169.2667,47.01856 58.303,15.0459 3.7615,1.8807 3.7615,1.88077 3.7614,1.88075 3.7615,1.8807 3.7616,5.6423 1.8807,3.76145 1.8807,5.64222 v 7.52293 35.7341 l -126.0096,103.44077 -15.0461,9.40369 -5.6422,5.64222 -3.7614,5.64223 h -1.8808 v 1.88075 l -5.6422,5.64223 -1.8807,5.64223 -5.6422,11.28444 -1.8807,13.16514 v 16.92668 73.34892 13.1652 l 5.6422,15.04592 -1.8808,11.28446 -1.8807,13.16517 -101.56,-28.21111 -5.6422,-1.88075 -5.6423,-1.88074 -5.6422,-3.76148 -3.7615,-3.76147 -1.8807,-5.64223 -1.8808,-1.88075 v -3.76148 l -1.8808,-5.64222 v -22.56889 l -11.2844,-289.63415 -1.8807,-13.16514 v -13.16521 -5.64223 l 1.8807,-5.64222 1.8807,-13.16521 3.7615,-9.40369 5.6422,-11.28444 5.6423,-9.40368 7.523,-9.40375 48.8992,-50.78002 3.7615,-3.76145 5.6422,-3.76146 5.6422,-3.76153 5.6424,-3.76146 11.2844,-13.16521 13.1651,-15.04591 11.2844,-11.28445 15.046,-13.16521 15.0459,-13.165138 9.4037,-5.642215 9.4038,-3.761536 7.5229,-3.761458 9.4038,-1.880768 9.4036,-1.88069 9.4037,1.88069 11.2844,1.880768 11.2845,1.880768 210.6431,56.422229 11.2844,1.8807 7.523,3.76152 5.6422,1.8807 3.7614,3.76153 1.8808,3.76145 1.8807,3.76146 1.8808,7.52299 v 11.28445 l -1.8808,60.18369 -3.7615,1.88076 -3.7614,3.76146 -18.8074,16.92667 -3.7615,1.88077 1.8807,-69.58745 -1.8807,-5.64222 v -5.64222 l -3.7616,-3.76146 -3.7614,-1.88077 -3.7615,-1.88069 -171.1474,-41.37633 -22.5689,-5.64222 -37.6148,-7.52299 h -3.7615 -3.7615 l -7.5229,3.76153 -5.6423,3.76146 -7.5229,5.64222 -7.523,5.64223 -5.6423,5.64222 -9.4037,11.28444 7.5229,5.64223 180.5513,43.25702 45.1377,11.28444 5.6423,1.88077 5.6422,3.76146 5.6422,3.76153 1.8807,3.76145 1.8809,3.76146 v 7.52299 l 1.8807,9.40369 -1.8807,45.13779 -1.8809,1.88075 -28.211,24.44966 z"
       id="path2873" />
  </g>
</svg>
