<?xml version="1.0" encoding="UTF-8" standalone="no"?>
<svg
   xmlns:dc="http://purl.org/dc/elements/1.1/"
   xmlns:cc="http://creativecommons.org/ns#"
   xmlns:rdf="http://www.w3.org/1999/02/22-rdf-syntax-ns#"
   xmlns:svg="http://www.w3.org/2000/svg"
   xmlns="http://www.w3.org/2000/svg"
   xmlns:sodipodi="http://sodipodi.sourceforge.net/DTD/sodipodi-0.dtd"
   xmlns:inkscape="http://www.inkscape.org/namespaces/inkscape"
   width="1900mm"
   height="970mm"
   viewBox="0 0 1900 970"
   version="1.1"
   id="svg2269"
   inkscape:version="1.0.2-2 (e86c870879, 2021-01-15)"
   sodipodi:docname="duo-ropa.svg">
  <defs
     id="defs2263">
    <pattern
       id="EMFhbasepattern"
       patternUnits="userSpaceOnUse"
       width="6"
       height="6"
       x="0"
       y="0" />
    <pattern
       id="EMFhbasepattern-0"
       patternUnits="userSpaceOnUse"
       width="6"
       height="6"
       x="0"
       y="0" />
    <pattern
       id="EMFhbasepattern-7"
       patternUnits="userSpaceOnUse"
       width="6"
       height="6"
       x="0"
       y="0" />
    <pattern
       id="EMFhbasepattern-78"
       patternUnits="userSpaceOnUse"
       width="6"
       height="6"
       x="0"
       y="0" />
  </defs>
  <sodipodi:namedview
     id="base"
     pagecolor="#ffffff"
     bordercolor="#666666"
     borderopacity="1.0"
     inkscape:pageopacity="0.0"
     inkscape:pageshadow="2"
     inkscape:zoom="0.04"
     inkscape:cx="3134.1401"
     inkscape:cy="2309.9062"
     inkscape:document-units="mm"
     inkscape:current-layer="layer1"
     inkscape:document-rotation="0"
     showgrid="false"
     inkscape:window-width="1298"
     inkscape:window-height="1040"
     inkscape:window-x="78"
     inkscape:window-y="0"
     inkscape:window-maximized="0"
     inkscape:showpageshadow="false" />
  <metadata
     id="metadata2266">
    <rdf:RDF>
      <cc:Work
         rdf:about="">
        <dc:format>image/svg+xml</dc:format>
        <dc:type
           rdf:resource="http://purl.org/dc/dcmitype/StillImage" />
        <dc:title></dc:title>
      </cc:Work>
    </rdf:RDF>
  </metadata>
  <g
     inkscape:label="Capa 1"
     inkscape:groupmode="layer"
     id="layer1">
    <path
       style="fill:#000000;fill-opacity:1;fill-rule:evenodd;stroke:none;stroke-width:1.5129"
       d="m 504.11464,458.1795 -3.1638,12.65633 -1.58213,14.2379 -1.58157,7.90974 v 7.90982 l 1.58157,15.82004 3.16436,17.4017 4.74594,15.82013 7.90983,15.82003 4.74593,7.90974 4.74594,6.32816 4.74602,7.90983 4.74594,7.90973 6.32816,6.32817 6.3276,6.32807 12.65624,11.07363 12.65576,9.49187 4.74594,1.58223 14.2379,7.90973 14.23789,6.32816 14.238,6.32817 14.2379,3.1638 14.2379,3.1638 h 14.2379 14.23789 l 14.2379,-1.58167 14.2379,-3.16436 12.65577,-3.1638 12.65623,-6.32816 12.65576,-6.32751 11.0741,-7.91039 9.49197,-7.90974 9.49196,-11.0741 7.90974,-11.07353 6.32816,-12.65633 4.74594,-12.65576 4.74593,-12.65568 1.58167,-12.65632 v -14.2379 -14.2379 l -1.58167,-12.65577 -4.74593,-14.23789 -4.74594,-12.65567 -4.74603,-12.65633 -7.9103,-12.65577 -4.74593,-6.32807 -3.1638,-6.3276 -11.0741,-11.0741 -9.49196,-11.07419 -12.65577,-9.49187 -12.65567,-9.49196 -14.2379,-7.90974 -14.23799,-6.32816 -14.2379,-4.74603 -14.2379,-3.16371 -15.82003,-3.1638 -14.2379,-1.58223 -14.2379,1.58223 -14.238,1.58157 -12.65567,1.58223 -14.23789,4.74594 -12.65633,4.74593 -11.07354,6.32817 -11.0741,7.90973 -9.49196,9.49197 -9.49196,9.49196 -7.90974,12.65567 -3.16436,4.74603 -3.1638,6.32816 z m 227.80658,-74.35329 15.82003,9.49196 12.65576,11.0741 12.65633,12.65567 12.65567,14.23799 9.49197,14.2379 4.74593,6.32817 3.1638,7.90973 7.91039,14.2379 4.74594,15.82004 4.74593,15.81956 1.58167,15.82003 1.58213,15.82013 -1.58213,15.81957 -3.1638,15.82003 -1.58223,6.32816 -1.58157,7.90974 -3.16436,7.90973 -3.1638,6.32817 -3.1638,7.90983 -4.74594,6.32807 -4.74603,7.90983 -4.74593,6.32807 -4.74594,6.32816 -4.74603,4.74603 -6.32807,6.32751 -6.32816,4.74602 -12.65577,7.9103 -14.2379,7.90974 -14.23789,6.32816 -7.90974,3.1638 -6.32816,1.58223 -15.82013,3.16371 -17.4017,1.58223 -15.82003,1.58157 -17.4017,-1.58157 -17.4017,-3.16437 -15.82013,-4.74593 -17.4017,-4.74603 -15.82003,-7.90974 -15.82013,-9.49196 -18.98384,-12.65567 -207.2405,68.02513 -3.16378,9.49197 -4.74597,11.07409 -7.91033,17.4017 -7.90976,15.82013 -11.07412,14.2379 -11.07354,12.65567 -11.07412,12.65633 -6.32816,6.3276 -6.32757,4.74593 -14.23791,9.49197 -14.23791,7.9103 -14.2379,6.3276 -15.82009,4.74593 -15.82009,4.74603 -15.81951,1.58214 h -14.23791 l -15.82009,-1.58214 -15.82008,-3.1638 -15.81952,-4.74603 -14.23791,-7.90973 -6.328147,-3.16437 -6.32815,-4.74593 -12.655729,-9.49197 -11.074117,-11.07353 -11.073545,-12.65633 -7.910337,-12.65567 -7.909754,-14.2379 -3.16379,-7.90983 -1.582182,-7.9103 -4.745963,-15.81947 -3.163791,-15.82013 -1.582182,-7.90973 v -7.91039 l -1.582182,-17.4017 1.582182,-17.4017 3.163791,-17.40226 4.745963,-17.4017 3.164364,-9.49187 3.16379,-7.90983 7.909754,-17.40227 7.910337,-15.81947 11.073545,-14.2379 11.074117,-14.23789 11.074119,-11.0741 6.32758,-6.32817 7.910327,-4.74603 12.65573,-9.49187 14.23791,-9.49196 14.2379,-6.3276 15.82009,-4.74594 15.81951,-3.16436 15.82009,-1.58166 15.82009,-1.58214 14.23791,1.58214 15.81951,4.74602 15.82009,4.74594 h 4.74597 l 9.49194,-1.58214 12.65573,-1.58222 15.82009,-4.74594 18.98387,-4.74603 18.98388,-6.3275 42.71372,-12.65633 41.13154,-14.2379 36.38611,-14.2379 28.4759,-11.07354 7.90973,-4.74603 3.1638,-3.16436 4.74594,-6.32751 4.74593,-6.32816 4.74603,-6.32816 6.32817,-6.3276 6.32807,-4.74594 4.74602,-4.74603 12.65567,-9.49187 14.2379,-7.91039 14.238,-6.32751 7.90973,-1.58223 7.9103,-3.1638 15.81956,-3.16436 15.82004,-1.58157 h 17.4017 l 15.82013,1.58157 17.4017,3.16436 17.40226,3.1638 15.81947,6.32817 17.40226,7.90973 z m -442.95677,169.27275 -4.74596,-4.74603 -4.74597,-4.74594 -11.07412,-9.49196 -11.07412,-6.3276 -12.65573,-6.32817 -12.65572,-3.1637 -14.23791,-3.16437 -12.6563,-1.58166 h -14.23791 l -12.65572,1.58166 -14.23791,3.16437 -12.65573,4.74593 -12.6563,6.3276 -6.32757,3.16437 -6.32816,3.1638 -11.07411,7.90973 -6.32758,4.74594 -4.74597,4.74603 -6.328147,4.74593 -4.74597,6.32816 -9.491932,11.0741 -7.909767,12.65577 -7.910327,14.2379 -6.327582,14.2379 -3.164354,6.32816 -3.163791,7.90974 -3.163791,15.82003 -3.164364,14.2379 v 15.81956 14.2379 l 1.582182,14.2379 1.582182,14.2379 4.745973,14.2379 4.745963,12.65633 6.327582,12.65576 7.910327,11.0741 7.909767,9.49196 9.491932,9.49187 4.74597,4.74603 6.328147,4.74594 4.74597,3.1638 6.32758,3.1638 6.32815,3.16436 6.32815,3.1638 12.65572,4.74594 14.23791,3.1638 12.65573,1.58213 14.23791,-1.58213 12.6563,-1.58167 14.2379,-3.16436 12.65573,-3.16371 12.65573,-6.32816 6.32814,-3.1638 6.32816,-3.1638 11.07354,-9.49197 6.32815,-3.16436 4.74597,-4.74593 6.32815,-6.3276 4.74597,-4.74594 9.49193,-11.0741 7.90977,-12.65576 7.90975,-14.2379 6.32815,-14.2379 3.1638,-4.74603 4.74596,-15.82003 3.16436,-15.82013 1.58161,-17.4017 1.58218,-18.98384 -1.58218,-17.40169 -1.58161,-7.9103 -3.16436,-7.90983 -4.74596,-17.4017 -3.1638,-6.32807 -3.16379,-7.90983 -9.49193,-14.2379 z"
       id="path2889" />
    <path
       style="fill:none;stroke:#000000;stroke-width:1.58199px;stroke-linecap:round;stroke-linejoin:round;stroke-miterlimit:4;stroke-dasharray:none;stroke-opacity:1"
       d="m 504.11464,458.1795 -3.1638,12.65633 -1.58213,14.2379 -1.58157,7.90974 v 7.90982 l 1.58157,15.82004 3.16436,17.4017 4.74594,15.82013 7.90983,15.82003 4.74593,7.90974 4.74594,6.32816 4.74602,7.90983 4.74594,7.90973 6.32816,6.32817 6.3276,6.32807 12.65624,11.07363 12.65576,9.49187 4.74594,1.58223 14.2379,7.90973 14.23789,6.32816 14.238,6.32817 14.2379,3.1638 14.2379,3.1638 h 14.2379 14.23789 l 14.2379,-1.58167 14.2379,-3.16436 12.65577,-3.1638 12.65623,-6.32816 12.65576,-6.32751 11.0741,-7.91039 9.49197,-7.90974 9.49196,-11.0741 7.90974,-11.07353 6.32816,-12.65633 4.74594,-12.65576 4.74593,-12.65568 1.58167,-12.65632 v -14.2379 -14.2379 l -1.58167,-12.65577 -4.74593,-14.23789 -4.74594,-12.65567 -4.74603,-12.65633 -7.9103,-12.65577 -4.74593,-6.32807 -3.1638,-6.3276 -11.0741,-11.0741 -9.49196,-11.07419 -12.65577,-9.49187 -12.65567,-9.49196 -14.2379,-7.90974 -14.23799,-6.32816 -14.2379,-4.74603 -14.2379,-3.16371 -15.82003,-3.1638 -14.2379,-1.58223 -14.2379,1.58223 -14.238,1.58157 -12.65567,1.58223 -14.23789,4.74594 -12.65633,4.74593 -11.07354,6.32817 -11.0741,7.90973 -9.49196,9.49197 -9.49196,9.49196 -7.90974,12.65567 -3.16436,4.74603 -3.1638,6.32816 -6.32817,12.65567"
       id="path2891" />
    <path
       style="fill:none;stroke:#000000;stroke-width:1.58199px;stroke-linecap:round;stroke-linejoin:round;stroke-miterlimit:4;stroke-dasharray:none;stroke-opacity:1"
       d="m 731.92122,383.82621 15.82003,9.49196 12.65576,11.0741 12.65633,12.65567 12.65567,14.23799 9.49197,14.2379 4.74593,6.32817 3.1638,7.90973 7.91039,14.2379 4.74594,15.82004 4.74593,15.81956 1.58167,15.82003 1.58213,15.82013 -1.58213,15.81957 -3.1638,15.82003 -1.58223,6.32816 -1.58157,7.90974 -3.16436,7.90973 -3.1638,6.32817 -3.1638,7.90983 -4.74594,6.32807 -4.74603,7.90983 -4.74593,6.32807 -4.74594,6.32816 -4.74603,4.74603 -6.32807,6.32751 -6.32816,4.74602 -12.65577,7.9103 -14.2379,7.90974 -14.23789,6.32816 -7.90974,3.1638 -6.32816,1.58223 -15.82013,3.16371 -17.4017,1.58223 -15.82003,1.58157 -17.4017,-1.58157 -17.4017,-3.16437 -15.82013,-4.74593 -17.4017,-4.74603 -15.82003,-7.90974 -15.82013,-9.49196 -18.98384,-12.65567 -207.2405,68.02513 -3.16378,9.49197 -4.74597,11.07409 -7.91033,17.4017 -7.90976,15.82013 -11.07412,14.2379 -11.07354,12.65567 -11.07412,12.65633 -6.32816,6.3276 -6.32757,4.74593 -14.23791,9.49197 -14.23791,7.9103 -14.2379,6.3276 -15.82009,4.74593 -15.82009,4.74603 -15.81951,1.58214 h -14.23791 l -15.82009,-1.58214 -15.82008,-3.1638 -15.81952,-4.74603 -14.23791,-7.90973 -6.328147,-3.16437 -6.32815,-4.74593 -12.655729,-9.49197 -11.074117,-11.07353 -11.073545,-12.65633 -7.910337,-12.65567 -7.909754,-14.2379 -3.16379,-7.90983 -1.582182,-7.9103 -4.745963,-15.81947 -3.163791,-15.82013 -1.582182,-7.90973 v -7.91039 l -1.582182,-17.4017 1.582182,-17.4017 3.163791,-17.40226 4.745963,-17.4017 3.164364,-9.49187 3.16379,-7.90983 7.909754,-17.40227 7.910337,-15.81947 11.073545,-14.2379 11.074117,-14.23789 11.074119,-11.0741 6.32758,-6.32817 7.910327,-4.74603 12.65573,-9.49187 14.23791,-9.49196 14.2379,-6.3276 15.82009,-4.74594 15.81951,-3.16436 15.82009,-1.58166 15.82009,-1.58214 14.23791,1.58214 15.81951,4.74602 15.82009,4.74594 h 4.74597 l 9.49194,-1.58214 12.65573,-1.58222 15.82009,-4.74594 18.98387,-4.74603 18.98388,-6.3275 42.71372,-12.65633 41.13154,-14.2379 36.38611,-14.2379 28.4759,-11.07354 7.90973,-4.74603 3.1638,-3.16436 4.74594,-6.32751 4.74593,-6.32816 4.74603,-6.32816 6.32817,-6.3276 6.32807,-4.74594 4.74602,-4.74603 12.65567,-9.49187 14.2379,-7.91039 14.238,-6.32751 7.90973,-1.58223 7.9103,-3.1638 15.81956,-3.16436 15.82004,-1.58157 h 17.4017 l 15.82013,1.58157 17.4017,3.16436 17.40226,3.1638 15.81947,6.32817 17.40226,7.90973 15.81957,9.49197"
       id="path2893" />
    <path
       style="fill:none;stroke:#000000;stroke-width:1.58199px;stroke-linecap:round;stroke-linejoin:round;stroke-miterlimit:4;stroke-dasharray:none;stroke-opacity:1"
       d="m 288.96445,553.09896 -4.74596,-4.74603 -4.74597,-4.74594 -11.07412,-9.49196 -11.07412,-6.3276 -12.65573,-6.32817 -12.65572,-3.1637 -14.23791,-3.16437 -12.6563,-1.58166 h -14.23791 l -12.65572,1.58166 -14.23791,3.16437 -12.65573,4.74593 -12.6563,6.3276 -6.32757,3.16437 -6.32816,3.1638 -11.07411,7.90973 -6.32758,4.74594 -4.74597,4.74603 -6.328147,4.74593 -4.74597,6.32816 -9.491932,11.0741 -7.909767,12.65577 -7.910327,14.2379 -6.327582,14.2379 -3.164354,6.32816 -3.163791,7.90974 -3.163791,15.82003 -3.164364,14.2379 v 15.81956 14.2379 l 1.582182,14.2379 1.582182,14.2379 4.745973,14.2379 4.745963,12.65633 6.327582,12.65576 7.910327,11.0741 7.909767,9.49196 9.491932,9.49187 4.74597,4.74603 6.328147,4.74594 4.74597,3.1638 6.32758,3.1638 6.32815,3.16436 6.32815,3.1638 12.65572,4.74594 14.23791,3.1638 12.65573,1.58213 14.23791,-1.58213 12.6563,-1.58167 14.2379,-3.16436 12.65573,-3.16371 12.65573,-6.32816 6.32814,-3.1638 6.32816,-3.1638 11.07354,-9.49197 6.32815,-3.16436 4.74597,-4.74593 6.32815,-6.3276 4.74597,-4.74594 9.49193,-11.0741 7.90977,-12.65576 7.90975,-14.2379 6.32815,-14.2379 3.1638,-4.74603 4.74596,-15.82003 3.16436,-15.82013 1.58161,-17.4017 1.58218,-18.98384 -1.58218,-17.40169 -1.58161,-7.9103 -3.16436,-7.90983 -4.74596,-17.4017 -3.1638,-6.32807 -3.16379,-7.90983 -9.49193,-14.2379 -9.49195,-12.65623"
       id="path2895" />
    <path
       style="fill:#000000;fill-opacity:1;fill-rule:nonzero;stroke:none;stroke-width:1.5129"
       d="m 145.0032,611.63269 v -1.58214 -1.58166 l 1.58219,-3.16427 36.38557,-11.07363 h 1.58218 1.58161 l 1.58217,1.58166 1.58218,1.58214 12.65573,37.96776 37.96775,-12.65567 h 1.58218 1.58161 l 1.58218,1.58157 v 1.58214 l 12.65573,36.38562 v 1.58214 1.58223 l -3.16379,1.58157 -37.96775,12.65633 12.65572,39.54933 v 1.58223 l -1.5816,1.58213 -1.58219,1.58167 -36.38557,11.0741 h -1.58218 -1.58217 l -1.58161,-1.58223 -12.6563,-39.54933 -39.54936,12.65576 h -1.58218 -1.58219 l -1.5816,-1.58223 v -1.58157 l -11.07412,-34.80396 -1.58218,-3.1638 h 1.58218 l 1.58218,-3.16437 39.54936,-12.65576 z"
       id="path2897" />
    <path
       style="fill:#000000;fill-opacity:1;fill-rule:evenodd;stroke:none;stroke-width:1.5129"
       d="m 600.61623,458.1795 v -6.3275 l -1.58214,-6.32817 1.58214,-3.1638 v -3.16436 l 3.1638,-6.3276 3.16436,-6.32816 4.74594,-4.74594 4.74603,-3.1638 6.3275,-3.16436 6.32817,-1.58158 h 6.32816 l 7.90974,1.58158 4.74603,3.16436 6.32816,3.1638 4.74594,4.74594 3.1638,4.74602 3.1638,6.32807 1.58213,6.3276 v 6.32817 3.1638 l -1.58213,3.16436 -1.58167,6.3276 -4.74593,6.32807 -3.16437,4.74603 -6.3276,3.1638 -6.32816,3.16437 -6.32807,1.58157 h -6.3276 l -6.32817,-1.58157 -6.32816,-3.16437 -4.74594,-3.1638 -4.74602,-4.74603 -4.74594,-4.74593 z"
       id="path2899" />
    <path
       style="fill:#000000;fill-opacity:1;fill-rule:evenodd;stroke:none;stroke-width:1.5129"
       d="m 643.32993,586.32069 -1.58214,-6.3276 v -6.32816 l 1.58214,-3.16371 v -3.16436 l 3.1638,-6.32761 3.16436,-4.74593 4.74603,-4.74603 4.74594,-4.74593 6.3276,-1.58223 6.32816,-1.58214 h 6.32807 6.3276 l 6.32816,3.16437 6.32817,3.1638 4.74593,4.74593 3.1638,4.74594 3.1638,6.32816 1.58214,6.3276 v 7.9103 l -1.58214,3.1638 v 3.1638 l -1.58157,4.74593 -4.74603,6.32817 -4.74593,4.74603 -4.74603,3.1638 -6.32807,3.16427 -6.32817,1.58166 h -6.3276 l -6.32816,-1.58166 -6.32816,-1.58214 -6.32751,-3.1638 -4.74603,-4.74593 -3.16436,-6.32817 z"
       id="path2901" />
    <path
       style="fill:#000000;fill-opacity:1;fill-rule:evenodd;stroke:none;stroke-width:1.5129"
       d="m 682.87992,508.80359 -1.58223,-7.9103 v -6.3276 l 1.58223,-3.16436 v -3.1638 l 3.1638,-6.32816 3.1638,-4.74594 4.74593,-4.74603 4.74594,-3.1638 6.32816,-3.1637 6.32817,-1.58223 h 6.3276 l 6.32816,1.58223 6.32807,1.58157 6.3276,3.16436 4.74603,4.74594 3.16427,6.3276 3.1638,6.32816 1.58223,6.32816 v 6.3276 l -1.58223,3.16437 v 3.1637 l -3.1638,6.32817 -3.16427,4.74603 -4.74603,4.74593 -4.74593,4.74594 -6.3276,1.58166 -6.32817,1.58214 h -6.32816 -6.32751 l -6.32816,-3.1638 -6.32817,-3.16437 -4.74593,-4.74593 -3.1638,-4.74594 z"
       id="path2903" />
    <path
       style="fill:#000000;fill-opacity:1;fill-rule:evenodd;stroke:none;stroke-width:1.5129"
       d="m 554.73873,551.51729 -1.58223,-7.9103 v -6.3276 -3.16436 l 1.58223,-3.1638 1.58157,-6.32817 3.16437,-4.74593 4.74603,-4.74594 6.3275,-3.1638 6.32817,-3.1638 6.32816,-1.58223 h 6.3276 l 6.32816,1.58223 6.32817,1.58157 4.74593,3.16437 4.74594,4.74603 4.74603,4.74593 1.58157,6.3276 1.58223,7.9103 v 6.3276 3.16437 3.1638 l -3.1638,6.32816 -3.16437,4.74593 -4.74602,4.74594 -4.74594,3.1638 -6.3276,3.1638 -6.32816,1.58214 h -7.90974 l -6.32816,-1.58214 -4.74594,-1.58157 -6.32816,-3.16436 -4.74594,-4.74603 -3.1638,-4.74594 z"
       id="path2905" />
    <path
       style="fill:#000000;fill-opacity:1;fill-rule:evenodd;stroke:none;stroke-width:1.5129"
       d="m 1127.4188,681.24005 h 273.684 v 30.05802 h -273.684 z m 0,-74.3533 h 273.684 v 44.29593 h -273.684 z m 0,-77.51766 h 273.684 v 45.87806 h -273.684 z m -83.8453,-113.90328 -102.82961,77.51766 v 110.73948 l 102.82961,-77.51766 z m 444.539,107.57568 101.2475,77.5171 V 489.81967 l -101.2475,-75.93544 z m -107.5752,-120.23145 -3.1643,7.90983 -4.746,9.49187 -4.746,7.91039 -6.3275,6.32751 -6.3281,7.91039 -6.3282,6.3276 -7.9097,6.32807 -7.9099,4.74603 -7.9103,4.74594 -7.9097,3.1638 -7.9097,3.16436 -9.492,1.58157 -12.6563,3.16437 h -12.6557 -7.9098 l -9.4919,-1.58214 -7.9104,-1.58223 -9.4919,-1.58157 -7.9098,-3.16436 -7.9097,-3.1638 -6.3282,-4.74594 -7.9097,-4.74603 -6.3282,-4.74593 -6.3282,-6.32817 -6.3275,-6.3276 -4.746,-6.32807 -4.7459,-6.32816 -4.746,-7.90983 -6.3281,-14.2379 h -93.3373 v 414.48149 h 376.5132 v -275.2662 h -1.5816 l 1.5816,-1.58214 V 402.81004 Z m -186.675,-34.80396 v 7.91039 l 1.5823,7.90974 3.1638,7.90973 3.1638,6.32817 3.1643,7.90973 4.746,6.32817 4.7459,4.74593 4.746,6.32816 4.746,4.74603 6.3276,4.74594 7.9103,3.1638 6.3276,3.1638 7.9103,3.16436 6.3276,1.58157 7.9103,1.58223 h 7.9098 7.9097 l 7.9103,-1.58223 7.9098,-1.58157 7.9098,-3.16436 6.3282,-3.1638 6.328,-3.1638 6.3276,-4.74594 6.3282,-4.74603 4.7459,-6.32816 4.7461,-4.74593 7.9097,-14.2379 3.1644,-6.32817 1.5815,-7.90973 3.1644,-15.82013 h 129.7227 l 137.6332,104.41132 h 1.5821 l -1.5821,1.58223 V 643.27229 H 1589.36 L 1488.1125,567.33686 V 815.7094 h 207.2404 v -275.26621 -1.58223 -17.4017 h 36.3862 l 101.2469,77.51776 V 488.23753 l -113.9032,-87.00962 h -23.7299 -71.1895 l -4.7459,7.9103 -3.1638,7.90973 -4.7461,7.90983 -6.328,7.9103 -23.7299,-18.98384 3.1644,-4.74602 3.1638,-4.74594 6.328,-11.0741 3.1638,-12.65576 3.1638,-12.65633 129.7233,-1.58157 137.6332,104.41132 v 1.58157 169.27331 h -34.804 v 1.58158 l -101.2469,-77.5171 V 847.349 l -243.6266,1.58222 h -409.7356 v 1.58214 h -34.8034 V 848.93122 815.7094 570.50122 l -102.82961,77.51709 v -1.58166 H 905.94046 V 477.16343 h -1.58223 l 1.58223,-1.58166 139.21474,-107.57569 z m 349.6196,-37.96776 v 52.20566 l -22.1476,-17.40161 v -41.13156 -9.49196 l 1.5821,-9.49197 3.1638,-7.9103 4.746,-7.90973 6.3281,-6.32818 4.746,-4.74597 7.9098,-4.74597 6.3282,-3.16379 h 1.5815 l 3.1644,-1.58217 4.7459,-3.16379 3.1638,-3.16379 3.1638,-3.16437 3.1644,-4.74596 3.1638,-6.32758 1.5821,-6.32815 v -6.32815 -71.18954 -6.32758 l -1.5821,-6.32815 -3.1638,-4.74597 -3.1644,-6.32814 -3.1638,-3.16379 -4.7459,-3.16379 -4.746,-1.58219 -4.746,-1.58218 -4.7459,1.58218 -4.746,1.58219 -4.746,3.16379 -3.1638,3.16379 -3.1643,6.32814 -3.1638,4.74597 v 6.32815 l -1.5822,6.32758 v 34.80397 l -23.7298,-14.23791 v -25.31203 l 1.5821,-11.07355 1.5822,-9.49193 4.746,-9.49195 3.1638,-4.74596 3.1638,-4.74597 6.3281,-6.32815 9.492,-4.74597 3.1637,-1.58218 4.746,-1.58161 11.0741,-1.58218 9.492,1.58218 7.9097,3.16379 9.492,4.74597 3.1644,3.16378 3.1638,3.16437 3.1637,4.74597 3.1643,4.74596 4.7461,9.49195 3.1638,9.49193 v 6.32759 4.74596 82.26366 9.49194 l -1.5823,9.49193 -3.1638,7.90977 -4.7459,7.91032 -4.7459,6.32758 -6.3282,6.32818 -6.3276,3.1638 -7.9103,3.16436 -1.5817,1.58157 h -4.7459 l -1.5822,1.58214 -1.5822,1.58223 -4.7459,3.1638 -3.1638,3.1638 -3.1638,4.74593 -1.5822,6.32817 -1.5822,6.32816 z m -298.996,-170.85485 1.5821,-11.07355 1.5822,-9.49193 4.746,-9.49195 3.1638,-4.74596 3.1638,-4.74597 7.9103,-6.32815 7.9098,-4.74597 4.7459,-1.58218 3.1638,-1.58161 11.0741,-1.58218 9.492,1.58218 9.492,3.16379 7.9097,4.74597 3.1644,3.16378 3.1638,3.16437 3.1638,4.74597 3.1642,4.74596 4.7461,9.49195 3.1638,9.49193 v 6.32759 4.74596 82.26366 9.49194 l -1.5823,9.49193 -3.1638,7.90977 -4.7459,7.91032 -4.7459,6.32758 -6.3282,6.32818 -6.3276,4.74593 -7.9103,1.58223 -1.5817,1.58157 h -4.7459 l -1.5822,1.58214 -1.5822,1.58223 -4.7459,3.1638 -3.1638,3.1638 -3.1638,4.74593 -1.5822,6.32817 -1.5822,6.32816 v 6.32751 52.20566 h -22.1476 v -58.53317 -9.49196 l 1.5821,-9.49197 3.1638,-7.9103 4.746,-7.90973 6.3281,-6.32818 4.746,-4.74597 7.9098,-4.74597 6.3282,-3.16379 h 1.5815 l 3.1644,-1.58217 4.7459,-3.16379 3.1638,-3.16379 3.1638,-3.16437 3.1644,-4.74596 3.1638,-6.32758 1.5821,-4.74597 v -7.91033 -71.18954 -6.32758 l -1.5821,-6.32815 -3.1638,-4.74597 -3.1644,-6.32814 -3.1638,-3.16379 -4.7459,-3.16379 -4.746,-1.58219 -4.746,-1.58218 -4.7459,1.58218 -4.746,1.58219 -4.746,3.16379 -3.1638,3.16379 -3.1643,6.32814 -3.1638,4.74597 v 6.32815 l -1.5822,6.32758 v 34.80397 l -23.7298,-14.23791 z"
       id="path2907" />
  </g>
</svg>
