<?xml version="1.0" encoding="UTF-8" standalone="no"?>
<svg
   xmlns:dc="http://purl.org/dc/elements/1.1/"
   xmlns:cc="http://creativecommons.org/ns#"
   xmlns:rdf="http://www.w3.org/1999/02/22-rdf-syntax-ns#"
   xmlns:svg="http://www.w3.org/2000/svg"
   xmlns="http://www.w3.org/2000/svg"
   xmlns:sodipodi="http://sodipodi.sourceforge.net/DTD/sodipodi-0.dtd"
   xmlns:inkscape="http://www.inkscape.org/namespaces/inkscape"
   aria-hidden="true"
   role="img"
   class="iconify iconify--logos"
   width="31.88"
   height="32"
   preserveAspectRatio="xMidYMid meet"
   viewBox="0 0 256 257"
   version="1.1"
   id="svg851"
   sodipodi:docname="favicon.svg"
   inkscape:version="1.0.2-2 (e86c870879, 2021-01-15)">
  <metadata
     id="metadata855">
    <rdf:RDF>
      <cc:Work
         rdf:about="">
        <dc:format>image/svg+xml</dc:format>
        <dc:type
           rdf:resource="http://purl.org/dc/dcmitype/StillImage" />
        <dc:title></dc:title>
      </cc:Work>
    </rdf:RDF>
  </metadata>
  <sodipodi:namedview
     pagecolor="#ffffff"
     bordercolor="#666666"
     borderopacity="1"
     objecttolerance="10"
     gridtolerance="10"
     guidetolerance="10"
     inkscape:pageopacity="0"
     inkscape:pageshadow="2"
     inkscape:window-width="1920"
     inkscape:window-height="1017"
     id="namedview853"
     showgrid="false"
     inkscape:zoom="20.647502"
     inkscape:cx="17.064116"
     inkscape:cy="17.419618"
     inkscape:window-x="-8"
     inkscape:window-y="-8"
     inkscape:window-maximized="1"
     inkscape:current-layer="svg851" />
  <defs
     id="defs845">
    <linearGradient
       id="IconifyId1813088fe1fbc01fb466"
       x1="-.828%"
       x2="57.636%"
       y1="7.652%"
       y2="78.411%">
      <stop
         offset="0%"
         stop-color="#41D1FF"
         id="stop833" />
      <stop
         offset="100%"
         stop-color="#BD34FE"
         id="stop835" />
    </linearGradient>
    <linearGradient
       id="IconifyId1813088fe1fbc01fb467"
       x1="43.376%"
       x2="50.316%"
       y1="2.242%"
       y2="89.03%">
      <stop
         offset="0%"
         stop-color="#FFEA83"
         id="stop838" />
      <stop
         offset="8.333%"
         stop-color="#FFDD35"
         id="stop840" />
      <stop
         offset="100%"
         stop-color="#FFA800"
         id="stop842" />
    </linearGradient>
    <pattern
       id="EMFhbasepattern"
       patternUnits="userSpaceOnUse"
       width="6"
       height="6"
       x="0"
       y="0" />
  </defs>
  <path
     style="fill:#5c3556;fill-opacity:1;fill-rule:evenodd;stroke:none;stroke-width:0.310585"
     d="M 27.939649,159.23084 106.53346,98.174477 v 36.698773 h 35.39969 v 41.89503 l 52.61237,-39.62166 h 26.95572 v 44.16841 H 106.53346 v 38.97215 z m 200.381721,-59.10775 -28.25481,21.75944 -50.33899,39.2969 v -36.37398 l -34.4254,-0.32478 V 80.637006 L 58.792587,122.20732 H 34.759777 V 78.038877 H 149.72757 V 39.066726 Z M 5.8554289,129.67695 6.1801835,123.18161 v -2.92292 l 0.3247854,-3.24767 0.649541,-6.17058 1.2990492,-5.84584 1.299081,-5.845803 1.6238359,-5.84583 0.974295,-2.92292 0.974327,-2.92292 0.974294,-2.598127 1.299081,-2.92292 2.273377,-5.521039 2.922885,-5.196297 2.922916,-5.196288 2.922917,-4.871506 3.572457,-4.871517 3.572426,-4.546745 3.897212,-4.546755 3.897211,-4.221994 4.221997,-3.897213 4.546752,-3.897213 4.546752,-3.572423 4.871507,-3.572462 2.598162,-1.623835 2.273348,-1.299075 5.196292,-2.922919 2.598159,-1.623836 2.598134,-1.299055 2.922914,-1.299074 2.598131,-0.974294 5.521047,-2.273377 5.845834,-1.948626 5.845807,-1.623836 5.84583,-1.2990776 5.84583,-1.299051 6.17059,-0.649538 6.17059,-0.324756 6.49533,-0.324786 6.17059,0.324786 h 3.24767 l 2.92292,0.324756 6.1706,0.649538 6.17058,1.299051 5.84584,1.2990776 5.8458,1.623836 2.59815,0.974303 2.92292,0.974323 2.92288,0.974293 2.59816,1.299084 5.52105,2.273368 5.19629,2.922891 5.1963,2.922919 4.8715,2.92291 4.87151,3.572462 4.54675,3.572423 4.54676,3.897213 4.22196,3.897213 3.89725,4.221994 3.89721,4.546755 3.57242,4.546745 3.57245,4.871517 1.62384,2.598129 1.62384,2.273377 2.92292,5.196288 1.29908,2.598168 1.29904,2.598129 1.29909,2.92291 1.29908,2.598129 1.94859,5.521047 1.94862,5.84584 1.62384,5.84583 1.62383,5.845803 0.9743,5.84584 0.64953,6.17058 0.64954,6.17059 v 6.49534 6.17059 l -0.32475,3.24767 -0.32479,2.92291 -0.64953,6.1706 -0.9743,5.84582 -1.62383,6.1706 -1.62384,5.8458 -0.9743,2.59816 -0.97432,2.92291 -0.97429,2.92292 -0.9743,2.59813 -2.59817,5.52105 -2.59812,5.19629 -2.92292,5.1963 -3.24768,4.8715 -3.57245,4.87151 -3.57242,4.54675 -3.89721,4.54675 -3.89725,4.22196 -4.22196,3.89726 -4.54676,3.8972 -4.54675,3.57243 -4.87151,3.57245 -2.27338,1.62384 -2.59812,1.62384 -5.1963,2.92291 -2.59816,1.29908 -2.59813,1.29905 -2.59813,1.29909 -2.92292,1.29907 -5.52104,1.9486 -5.52107,1.94862 -5.8458,1.62383 -5.84584,1.29906 -6.17058,1.29907 -6.1706,0.64954 -6.17059,0.64954 h -6.17059 -6.49533 l -2.92292,-0.32475 -3.24767,-0.32479 -6.17059,-0.64954 -5.84583,-1.29907 -5.84583,-1.29906 -5.845807,-1.62383 -2.922917,-0.9743 -2.922917,-0.97432 -2.598131,-0.9743 -2.922916,-0.9743 -5.521045,-2.59816 -5.196293,-2.59813 -5.196292,-2.92291 -4.87151,-3.24768 -4.871507,-3.57245 -4.546752,-3.57243 -4.546752,-3.8972 -4.221997,-3.89726 -3.897211,-4.22196 -3.897212,-4.54675 -3.572426,-4.54675 -3.572457,-4.87151 -1.623836,-2.27338 -1.299081,-2.59812 -2.922916,-5.1963 -1.623836,-2.59816 -1.299049,-2.59813 -1.299082,-2.59813 -0.974295,-2.92292 -2.273375,-5.52105 -1.948622,-5.52107 -1.6238359,-5.8458 -1.299081,-6.1706 -1.2990492,-5.84582 -0.649541,-6.1706 -0.3247854,-6.17058 z"
     id="path860" />
  <path
     style="fill:#ffffff;stroke-width:21.1584"
     d="M 67.68512,189.64024 C 46.528964,173.20038 29.264831,159.47885 29.32038,159.14796 c 0.05555,-0.3309 17.36513,-14.0139 38.465736,-30.40665 l 38.364744,-29.805033 0.15912,18.223643 0.15908,18.22365 h 17.43857 17.43858 v 20.75623 c 0,11.63069 0.23397,20.75624 0.53218,20.75624 0.2927,0 12.37977,-8.93421 26.86015,-19.8538 l 26.32797,-19.85378 h 13.14823 13.14824 v 21.9595 21.95949 h -57.44732 -57.44732 l -0.15876,19.21172 -0.15873,19.21172 z"
     id="path870" />
  <path
     style="fill:#ffffff;stroke-width:21.1584"
     d="m 149.76902,142.67561 v -18.12138 l -13.08545,-0.004 c -7.19699,-0.002 -14.91289,-0.17686 -17.14644,-0.38782 l -4.06101,-0.38353 v -21.57153 c 0,-11.864413 -0.20305,-21.563029 -0.45122,-21.552451 -0.24816,0.01068 -13.1174,9.350878 -28.598294,20.756231 L 58.279535,122.14772 H 46.568626 34.857715 V 100.18823 78.228728 h 57.447321 57.447314 l 0.15876,-19.216554 0.15873,-19.216564 37.60187,29.181751 c 20.68102,16.049958 38.09882,29.668986 38.70621,30.264506 1.06732,1.046453 0.71429,1.382393 -10.52852,10.018683 -12.45167,9.56489 -59.27523,46.02682 -63.52345,49.46628 l -2.55693,2.07014 z"
     id="path872" />
</svg>
