<?xml version="1.0" encoding="UTF-8" standalone="no"?>
<svg
   xmlns:dc="http://purl.org/dc/elements/1.1/"
   xmlns:cc="http://creativecommons.org/ns#"
   xmlns:rdf="http://www.w3.org/1999/02/22-rdf-syntax-ns#"
   xmlns:svg="http://www.w3.org/2000/svg"
   xmlns="http://www.w3.org/2000/svg"
   xmlns:sodipodi="http://sodipodi.sourceforge.net/DTD/sodipodi-0.dtd"
   xmlns:inkscape="http://www.inkscape.org/namespaces/inkscape"
   width="9000mm"
   height="9000mm"
   viewBox="0 0 9000 9000"
   version="1.1"
   id="svg8"
   inkscape:version="1.0.2-2 (e86c870879, 2021-01-15)"
   sodipodi:docname="flechas.svg">
  <defs
     id="defs2">
    <pattern
       id="EMFhbasepattern"
       patternUnits="userSpaceOnUse"
       width="6"
       height="6"
       x="0"
       y="0" />
    <pattern
       id="EMFhbasepattern-4"
       patternUnits="userSpaceOnUse"
       width="6"
       height="6"
       x="0"
       y="0" />
    <pattern
       id="EMFhbasepattern-7"
       patternUnits="userSpaceOnUse"
       width="6"
       height="6"
       x="0"
       y="0" />
    <pattern
       id="EMFhbasepattern-5"
       patternUnits="userSpaceOnUse"
       width="6"
       height="6"
       x="0"
       y="0" />
    <pattern
       id="EMFhbasepattern-2"
       patternUnits="userSpaceOnUse"
       width="6"
       height="6"
       x="0"
       y="0" />
    <pattern
       id="EMFhbasepattern-3"
       patternUnits="userSpaceOnUse"
       width="6"
       height="6"
       x="0"
       y="0" />
    <pattern
       id="EMFhbasepattern-52"
       patternUnits="userSpaceOnUse"
       width="6"
       height="6"
       x="0"
       y="0" />
  </defs>
  <sodipodi:namedview
     id="base"
     pagecolor="#ffffff"
     bordercolor="#666666"
     borderopacity="1.0"
     inkscape:pageopacity="0.0"
     inkscape:pageshadow="2"
     inkscape:zoom="0.015467961"
     inkscape:cx="17268.238"
     inkscape:cy="17114.987"
     inkscape:document-units="mm"
     inkscape:current-layer="layer1"
     inkscape:document-rotation="0"
     showgrid="false"
     inkscape:window-width="1298"
     inkscape:window-height="1040"
     inkscape:window-x="78"
     inkscape:window-y="0"
     inkscape:window-maximized="0" />
  <metadata
     id="metadata5">
    <rdf:RDF>
      <cc:Work
         rdf:about="">
        <dc:format>image/svg+xml</dc:format>
        <dc:type
           rdf:resource="http://purl.org/dc/dcmitype/StillImage" />
        <dc:title></dc:title>
      </cc:Work>
    </rdf:RDF>
  </metadata>
  <g
     inkscape:label="Capa 1"
     inkscape:groupmode="layer"
     id="layer1">
    <path
       style="fill:#000000;fill-opacity:1;fill-rule:nonzero;stroke:none;stroke-width:11.47"
       d="m 2309.8131,1031.5649 v 11.9953 l 11.9953,35.9815 11.9908,23.9865 23.9908,35.9815 35.9816,35.9817 47.9727,23.9863 23.9905,11.9953 h 23.9864 l 71.9632,11.9955 h 2662.6411 35.9816 l 23.9865,11.9909 35.9815,11.9952 23.9906,23.9864 h 11.991 l 11.9953,11.9955 11.9953,23.9862 23.9863,35.9816 v 35.9818 l 11.9953,35.9817 v 695.6461 923.5273 695.6464 l -11.9953,35.9817 v 35.9816 l -23.9863,23.9864 -11.9953,23.9904 -11.9953,11.9912 -11.991,11.9952 -23.9906,11.9952 -35.9815,23.9864 -23.9865,11.9953 h -35.9816 -2662.6411 -71.9632 l -23.9864,11.9911 -23.9905,11.9953 -47.9727,23.9862 -35.9816,23.9907 -23.9908,35.9815 -11.9908,23.9865 -11.9953,35.9815 v 11.9955 179.9081 L 726.62092,2698.7155 l -23.98605,-23.9907 -11.99554,-35.9817 -11.99524,-35.9816 v -23.9864 -11.9952 -11.991 -35.9817 l 11.99524,-35.9816 11.99554,-23.9905 23.98605,-35.9817 L 2309.8131,839.66134 Z m 3502.2139,155.9219 v -35.9816 -35.9818 l -23.9906,-71.9632 -35.9816,-59.97223 -47.9727,-59.96796 -47.9769,-47.97706 -71.9635,-35.98161 -35.9816,-11.99087 -35.9817,-11.99525 H 5440.2153 2693.6156 V 311.93233 l -11.9908,-35.98185 -11.9955,-35.98162 -35.9817,-35.98162 -23.986,-23.98612 -23.9909,-11.99549 -23.9863,-11.99527 h -23.9863 -35.9817 -23.9905 l -23.9864,11.99527 -23.9862,11.99549 -47.9769,23.98612 -11.9954,23.98636 -71.9634,47.97688 -2014.97152,2014.97172 -47.97247,59.968 -11.9955,35.9816 -23.98613,35.9816 -11.99548,71.9633 -11.99527,71.9632 11.99527,59.9724 v 35.9817 l 11.99548,35.9815 35.98163,71.9633 47.97247,59.9679 2026.96702,2026.9669 71.9633,71.9632 35.9816,23.9864 23.9863,11.9952 35.9816,11.9911 h 35.9817 35.9816 l 23.9905,-11.9911 35.9819,-11.9952 23.986,-23.9864 23.9864,-23.9906 11.9953,-11.991 11.9955,-35.9816 11.9908,-35.9817 V 4317.889 l 2746.5997,11.9911 71.9631,-11.9911 71.9633,-23.9907 71.9635,-35.9817 47.9769,-47.9724 47.9727,-47.9771 35.9816,-71.9633 11.9952,-23.9864 11.9954,-35.9816 v -83.9584 -1595.1872 z"
       id="path1431" />
    <path
       style="fill:#000000;fill-opacity:1;fill-rule:nonzero;stroke:none;stroke-width:11.47"
       d="m 6555.6459,4929.5768 v 11.9911 l -11.9953,35.9816 -11.9908,23.9905 -23.9909,35.9816 -23.9863,35.9819 -47.9767,23.9861 -23.9865,11.9955 h -35.9816 l -71.9632,11.9908 h -2650.6457 -35.9817 l -35.9814,11.9953 -23.9909,11.9956 -35.9816,23.9862 -11.9911,11.9953 -23.9905,23.9864 -11.9911,35.9815 -11.9953,35.9817 v 35.9816 695.6463 923.5273 695.6465 35.9816 l 11.9953,35.9815 11.9911,23.9864 23.9905,23.9864 11.9911,11.9951 v 11.9954 l 35.9816,11.991 23.9909,23.9906 35.9814,11.9911 h 35.9817 2650.6457 71.9632 l 35.9816,11.9952 23.9865,11.9954 35.9815,23.9863 35.9815,23.9863 23.9909,35.9817 11.9908,23.9905 11.9953,35.9818 v 11.9909 179.9081 l 1595.1873,-1583.1919 11.9909,-23.9863 23.9908,-35.9816 11.9911,-35.9817 v -23.9864 -11.9952 -11.9953 -35.9815 l -11.9911,-35.9816 -23.9908,-23.9864 -11.9909,-35.9817 L 6555.6459,4737.6735 Z M 3053.432,5085.4943 v -35.9815 l 11.9953,-35.9817 23.9864,-71.9632 35.9816,-59.968 35.9816,-59.968 59.9724,-47.9769 59.9679,-35.9815 35.9817,-11.9956 35.9816,-11.9909 h 71.9632 2758.5906 v -503.7428 -35.9816 l 23.9906,-35.9817 23.9864,-35.9816 23.9864,-23.9908 23.9905,-11.9911 23.9864,-11.9951 h 35.9816 23.9864 23.9904 l 35.9816,11.9951 23.9864,11.9911 35.9816,23.9908 23.9863,23.9861 59.9724,47.9772 2014.9717,2014.9715 47.9724,59.968 23.9907,35.9816 11.991,35.9816 23.9906,71.9632 v 71.9633 59.9679 l -11.9953,35.9816 -11.9953,35.9817 -35.9817,71.9631 -47.9724,59.9725 -2026.9671,2026.9626 -71.9633,71.9633 -23.9863,23.9904 -35.9817,11.9912 -23.9904,11.9952 h -35.9816 -35.9817 l -35.9816,-11.9952 -23.9864,-11.9912 -35.9816,-23.9904 -11.9955,-23.9864 -11.9909,-11.9952 -23.9906,-35.9817 v -35.9816 -503.7428 l -2758.5906,11.9951 -71.9632,-11.9951 -71.9633,-23.9865 -59.9679,-35.9815 -59.9724,-47.9772 -35.9816,-47.9724 -35.9816,-71.9633 -11.9911,-23.9907 -11.9953,-35.9816 -11.9953,-83.9543 V 6248.9021 Z"
       id="path1433" />
    <path
       style="fill:#ff6600;fill-opacity:1;fill-rule:nonzero;stroke:none;stroke-width:11.47"
       d="m 2309.8131,1031.5649 v 11.9953 l 11.9953,35.9815 11.9908,23.9865 23.9908,35.9815 35.9816,35.9817 47.9727,23.9863 23.9905,11.9953 h 23.9864 l 71.9632,11.9955 h 2662.6411 35.9816 l 23.9865,11.9909 35.9815,11.9952 23.9906,23.9864 h 11.991 l 11.9953,11.9955 11.9953,23.9862 23.9863,35.9816 v 35.9818 l 11.9953,35.9817 v 695.6461 923.5273 695.6464 l -11.9953,35.9817 v 35.9816 l -23.9863,23.9864 -11.9953,23.9904 -11.9953,11.9912 -11.991,11.9952 -23.9906,11.9952 -35.9815,23.9864 -23.9865,11.9953 h -35.9816 -2662.6411 -71.9632 l -23.9864,11.9911 -23.9905,11.9953 -47.9727,23.9862 -35.9816,23.9907 -23.9908,35.9815 -11.9908,23.9865 -11.9953,35.9815 v 11.9955 179.9081 L 726.62092,2698.7155 l -23.98605,-23.9907 -11.99554,-35.9817 -11.99524,-35.9816 v -23.9864 -11.9952 -11.991 -35.9817 l 11.99524,-35.9816 11.99554,-23.9905 23.98605,-35.9817 L 2309.8131,839.66134 Z"
       id="path1435" />
    <path
       style="fill:#00ccff;fill-opacity:1;fill-rule:nonzero;stroke:none;stroke-width:11.47"
       d="m 6555.6459,4929.5768 v 11.9911 l -11.9953,35.9816 -11.9908,23.9905 -23.9909,35.9816 -23.9863,35.9819 -47.9767,23.9861 -23.9865,11.9955 h -35.9816 l -71.9632,11.9908 h -2650.6457 -35.9817 l -35.9814,11.9953 -23.9909,11.9956 -35.9816,23.9862 -11.9911,11.9953 -23.9905,23.9864 -11.9911,35.9815 -11.9953,35.9817 v 35.9816 695.6463 923.5273 695.6465 35.9816 l 11.9953,35.9815 11.9911,23.9864 23.9905,23.9864 11.9911,11.9951 v 11.9954 l 35.9816,11.991 23.9909,23.9906 35.9814,11.9911 h 35.9817 2650.6457 71.9632 l 35.9816,11.9952 23.9865,11.9954 35.9815,23.9863 35.9815,23.9863 23.9909,35.9817 11.9908,23.9905 11.9953,35.9818 v 11.9909 179.9081 l 1595.1873,-1583.1919 11.9909,-23.9863 23.9908,-35.9816 11.9911,-35.9817 v -23.9864 -11.9952 -11.9953 -35.9815 l -11.9911,-35.9816 -23.9908,-23.9864 -11.9909,-35.9817 -1595.1873,-1583.1918 z"
       id="path1437" />
  </g>
</svg>
