<?xml version="1.0" encoding="UTF-8" standalone="no"?>
<svg
   xmlns:dc="http://purl.org/dc/elements/1.1/"
   xmlns:cc="http://creativecommons.org/ns#"
   xmlns:rdf="http://www.w3.org/1999/02/22-rdf-syntax-ns#"
   xmlns:svg="http://www.w3.org/2000/svg"
   xmlns="http://www.w3.org/2000/svg"
   xmlns:sodipodi="http://sodipodi.sourceforge.net/DTD/sodipodi-0.dtd"
   xmlns:inkscape="http://www.inkscape.org/namespaces/inkscape"
   width="210cm"
   height="170cm"
   viewBox="0 0 2100 1700"
   version="1.1"
   id="svg1047"
   inkscape:version="1.0.2-2 (e86c870879, 2021-01-15)"
   sodipodi:docname="home-icon.svg">
  <defs
     id="defs1041">
    <pattern
       id="EMFhbasepattern"
       patternUnits="userSpaceOnUse"
       width="6"
       height="6"
       x="0"
       y="0" />
    <pattern
       id="EMFhbasepattern-9"
       patternUnits="userSpaceOnUse"
       width="6"
       height="6"
       x="0"
       y="0" />
  </defs>
  <sodipodi:namedview
     id="base"
     pagecolor="#ffffff"
     bordercolor="#666666"
     borderopacity="1.0"
     inkscape:pageopacity="0.0"
     inkscape:pageshadow="2"
     inkscape:zoom="0.04375"
     inkscape:cx="4888.607"
     inkscape:cy="3024.7385"
     inkscape:document-units="mm"
     inkscape:current-layer="layer1"
     inkscape:document-rotation="0"
     showgrid="false"
     inkscape:window-width="1920"
     inkscape:window-height="1017"
     inkscape:window-x="-8"
     inkscape:window-y="-8"
     inkscape:window-maximized="1" />
  <metadata
     id="metadata1044">
    <rdf:RDF>
      <cc:Work
         rdf:about="">
        <dc:format>image/svg+xml</dc:format>
        <dc:type
           rdf:resource="http://purl.org/dc/dcmitype/StillImage" />
        <dc:title></dc:title>
      </cc:Work>
    </rdf:RDF>
  </metadata>
  <g
     inkscape:label="Capa 1"
     inkscape:groupmode="layer"
     id="layer1">
    <path
       style="fill:#000000;fill-opacity:1;fill-rule:nonzero;stroke:none;stroke-width:5.37954"
       d="m 1739.2713,780.80035 22.5011,22.50165 11.2502,11.24993 11.2506,16.87557 5.6251,11.25182 5.6254,16.87568 11.2504,33.75136 -5.6253,33.75126 v 613.14898 28.1274 l -11.2505,28.1256 -11.2504,28.1255 -5.6253,11.2517 -11.2502,5.6238 -22.5011,22.5016 -22.5008,11.2499 -16.8757,5.626 -11.2507,5.6259 h -33.7513 -354.3894 v -95.6304 h 275.6363 39.3766 l 28.126,-5.6238 22.5011,-5.626 5.6253,-11.2498 11.2504,-5.6259 11.2504,-16.8757 5.6253,-22.5016 5.6251,-28.1254 V 1467.08 955.18334 927.05762 l -5.6251,-28.12729 -5.6253,-16.87578 -5.6254,-11.24993 -22.5007,-22.50144 -16.8758,-16.87568 -511.896,-399.39074 -16.8755,-16.87576 -22.5012,-11.24965 -22.5007,-5.62591 h -28.1264 -22.5009 l -22.5009,5.62591 -22.50087,11.24965 -11.25045,11.24986 -11.25043,5.6259 -523.14639,410.64256 -16.87571,22.49944 -16.8757,22.50175 -5.6253,28.1254 v 28.1276 523.14649 28.1254 l 5.6253,28.1254 5.62509,22.5016 11.25061,16.8757 11.2504,5.6259 5.62531,5.624 11.25046,5.6258 11.25023,5.626 28.12642,5.6238 h 39.37646 264.38575 v -371.2652 -28.1257 l 11.25064,-22.5014 11.25045,-22.4995 16.87556,-16.8757 16.87577,-16.8758 22.50088,-11.2519 22.50109,-11.2496 h 28.12602 258.76071 22.5009 l 28.1261,11.2496 22.5009,11.2519 16.8758,16.8758 16.8756,16.8757 11.2505,22.4995 5.6253,22.5014 v 28.1257 466.8956 h -95.629 v -438.7682 -16.8756 l -5.6252,-16.8757 -5.6253,-11.2519 -11.2506,-11.2499 -16.8755,-11.2496 -11.2504,-5.6259 h -33.7513 -157.50673 -28.12601 l -16.87577,5.6259 -11.25045,11.2496 -11.25045,11.2499 -5.62512,11.2519 -5.62531,16.8757 -5.62532,16.8756 V 1686.464 H 799.85782 439.84299 411.71684 l -28.12607,-11.2519 -22.50101,-11.2499 -11.25039,-11.2498 -11.2506,-11.2518 -16.87569,-16.8755 -11.25038,-28.1255 -5.6253,-11.2498 -5.6251,-16.8758 -5.6253,-28.1274 V 910.18215 898.93033 l 5.6253,-16.87578 5.6251,-28.12541 11.25058,-28.1254 22.50079,-28.1276 607.52503,-466.89358 22.50088,-16.87556 22.50108,-11.24986 28.12604,-11.25182 h 28.126 28.1264 l 16.8754,5.62591 11.2506,5.62591 28.1262,11.24986 22.501,16.87556 z"
       id="path1632" />
    <path
       style="fill:#000000;fill-opacity:1;fill-rule:evenodd;stroke:none;stroke-width:5.37954"
       d="m 2071.1601,730.17331 5.6253,11.25182 5.6252,5.62386 5.6252,11.25182 v 11.24993 l -5.6252,16.87557 -11.2505,16.87569 -11.2504,5.62596 -16.8758,5.62397 h -11.2505 l -11.2504,-5.62397 -16.8757,-11.25182 -838.1595,-641.27635 -11.2504,-11.24986 -11.2505,-5.62591 -11.2505,-5.62375 -16.8757,-5.62591 -33.7514,-11.24985 h -33.7515 -33.7514 l -33.75127,11.24985 -28.12622,11.24966 -28.126,16.87577 L 96.703967,797.67614 79.828285,808.92796 H 57.32729 40.451613 L 29.201207,797.67614 17.950624,780.80035 12.32552,775.17659 v -11.25171 l 5.625104,-16.87589 5.625282,-11.24983 11.250405,-11.24961 877.535949,-663.778061 11.25065,-11.249658 16.87557,-5.625909 33.75153,-11.249856 39.37639,-11.251818 h 39.3768 39.3764 l 33.7517,11.251818 16.8756,5.623948 16.8758,5.625908 11.2504,5.625909 11.2502,11.249658 z"
       id="path1634" />
  </g>
</svg>
