<?xml version="1.0" encoding="UTF-8" standalone="no"?>
<svg
   xmlns:dc="http://purl.org/dc/elements/1.1/"
   xmlns:cc="http://creativecommons.org/ns#"
   xmlns:rdf="http://www.w3.org/1999/02/22-rdf-syntax-ns#"
   xmlns:svg="http://www.w3.org/2000/svg"
   xmlns="http://www.w3.org/2000/svg"
   width="210cm"
   height="35.700001cm"
   viewBox="0 0 2100 357.00002"
   version="1.1"
   id="svg8">
  <defs
     id="defs2">
    <pattern
       id="EMFhbasepattern"
       patternUnits="userSpaceOnUse"
       width="6"
       height="6"
       x="0"
       y="0" />
    <pattern
       id="EMFhbasepattern-2"
       patternUnits="userSpaceOnUse"
       width="6"
       height="6"
       x="0"
       y="0" />
    <pattern
       id="EMFhbasepattern-3"
       patternUnits="userSpaceOnUse"
       width="6"
       height="6"
       x="0"
       y="0" />
  </defs>
  <metadata
     id="metadata5">
    <rdf:RDF>
      <cc:Work
         rdf:about="">
        <dc:format>image/svg+xml</dc:format>
        <dc:type
           rdf:resource="http://purl.org/dc/dcmitype/StillImage" />
        <dc:title></dc:title>
      </cc:Work>
    </rdf:RDF>
  </metadata>
  <g
     id="layer1">
    <path
       style="fill:#000000;fill-opacity:1;fill-rule:evenodd;stroke:none;stroke-width:0.264583"
       d="m 490.40501,274.13614 -3.87334,-0.27666 -3.32,-0.27667 -3.32001,-0.55333 -1.66,-0.27667 -1.66,-0.55333 -1.38332,-0.27667 -1.38334,-0.55333 -2.49,-1.38334 -2.21334,-1.38333 -1.93665,-1.93667 -1.93667,-1.93666 -1.38335,-2.21334 -1.38332,-2.49 -0.55335,-1.38333 -0.55332,-1.38333 -0.55332,-1.38334 -0.27668,-1.66 -0.55332,-3.32 -0.27668,-3.59666 -0.27667,-3.59667 v -92.68333 h -16.32334 v -13.00334 l 7.19334,-2.76666 4.70334,-1.66 1.93667,-0.83 1.65999,-0.55334 0.83,-1.10666 1.10667,-0.83 1.10667,-1.38334 0.83,-1.38333 1.66,-3.04333 1.65999,-3.59667 1.38335,-3.87333 1.93665,-5.53334 2.21334,-7.47004 2.76667,-9.406679 h 20.19665 l 1.10667,37.073389 h 38.45669 v 19.36667 h -38.18001 v 70.82666 6.64 5.53334 l 0.27667,4.42666 0.27665,3.32 0.55335,2.76667 0.83,1.93667 0.27665,1.10666 0.55335,0.55334 0.55332,0.55333 0.55335,0.55333 0.83,0.27667 0.83,0.55333 1.93667,0.55334 2.48999,0.27666 h 2.76667 3.31999 l 3.04334,-0.27666 3.32,-0.55334 3.59666,-0.55333 3.04335,-0.83 3.04331,-0.83 2.76667,-0.83 2.48999,-0.83 4.70334,14.11 -1.93667,1.10667 -1.93664,1.38333 -4.98002,2.49 -2.48999,1.10667 -3.04334,1.10666 -3.04332,1.10667 -3.32002,1.10667 -6.63998,1.93666 -3.32002,0.83 -3.31999,0.55334 -6.64001,0.83 -3.31999,0.27666 z"
       id="path992" />
    <path
       style="fill:#000000;fill-opacity:1;fill-rule:evenodd;stroke:none;stroke-width:0.264583"
       d="m 614.35166,274.68948 -3.87334,-0.27667 h -4.14999 l -1.93667,-0.27667 -1.93667,-0.27666 -3.59667,-0.55334 -3.59666,-0.55333 -3.31999,-0.83 -3.32,-1.10667 -3.32001,-1.10666 -3.04332,-1.38334 -2.76667,-1.38333 -2.76667,-1.66 -2.76667,-1.66 -2.48999,-1.93667 -2.21335,-1.93666 -2.21332,-2.21334 -1.10667,-1.38333 -1.10667,-1.10667 -1.93667,-2.49 -1.93667,-2.49 -1.66,-2.76666 -1.65999,-2.76667 -1.38332,-3.04333 -1.38335,-3.04334 -1.10667,-3.32 -1.10665,-3.04333 -0.83,-3.59667 -0.83002,-3.32 -0.83,-3.59666 -0.55332,-3.87334 -0.55333,-3.87333 -0.27667,-3.87333 v -4.15 l -0.27668,-4.15 0.27668,-5.53334 0.27667,-5.25666 0.83,-5.25667 0.83,-4.98 1.10667,-4.98 0.83,-2.21333 0.83,-2.49 1.65999,-4.42667 1.93667,-4.15 2.21332,-4.15 2.49002,-3.59667 1.10665,-1.93666 1.38335,-1.66 1.38332,-1.66 1.65999,-1.66 1.38335,-1.66 1.66,-1.38334 1.65999,-1.38333 1.66,-1.38333 1.65999,-1.38334 1.93667,-1.38333 3.59667,-2.21333 1.93667,-1.10667 1.93667,-1.10667 4.14999,-1.66 4.15002,-1.66 4.42666,-1.10666 4.42667,-1.10667 4.70334,-0.55333 2.48999,-0.27667 2.48999,-0.27667 h 4.98002 l 6.08666,0.27667 2.76667,0.27667 3.04334,0.27666 2.76664,0.55334 2.49002,0.55333 2.49,0.55333 2.48999,0.83 2.48999,0.83 2.21335,1.10667 2.21332,1.10667 2.21334,1.10666 1.93667,1.38334 1.93667,1.38333 1.93667,1.38333 1.66,1.66 1.66,1.66 1.65999,1.66 1.38335,1.93667 1.38332,1.93667 1.10667,2.21333 1.10668,1.93667 1.10664,2.49 0.83,2.21333 0.83,2.49 0.83002,2.49 0.55333,2.49 0.55332,2.49 0.55335,2.76667 0.27665,3.04333 0.27667,2.76667 v 3.04333 7.74667 l -0.55332,6.91666 -0.27668,2.76667 -0.27667,2.76667 -0.27665,2.49 -0.55335,2.21333 h -82.17 l 0.27667,2.76667 0.27668,2.76666 0.55332,5.25667 0.55335,2.49 0.55332,2.49 0.55332,2.21333 0.55335,2.21334 1.66,4.42666 0.83,1.93667 0.83,1.93667 0.82999,1.93666 1.10668,1.66 1.10667,1.93667 1.38332,1.66 1.10667,1.38333 1.38332,1.38334 1.38335,1.38333 1.38332,1.38333 1.66,1.10667 1.66002,1.10667 1.66,0.83 1.65999,0.83 1.66,0.83 1.93667,0.55333 1.93667,0.55333 1.93667,0.55334 1.93664,0.27666 2.21335,0.27667 4.42666,0.27667 4.98002,-0.27667 4.97998,-0.55333 5.25667,-1.10667 4.98001,-1.38333 4.97999,-1.66 4.42666,-1.93667 1.93667,-1.10667 1.93667,-1.10666 3.32,-2.21334 6.36333,14.11 -0.83,0.83 -1.10667,0.83 -1.93664,1.93667 -2.49002,1.66 -2.49,1.66 -6.08666,3.32 -3.59666,1.66 -3.59667,1.38333 -3.87334,1.66 -3.87334,1.10667 -3.87332,1.10667 -3.59666,0.83 -3.87335,0.83 -3.87334,0.27666 -4.14999,0.27667 z m 19.64333,-86.04334 0.55335,-6.36333 v -4.42667 -4.15 l -0.27668,-3.87333 -0.55332,-3.59667 -0.27667,-1.66 -0.27668,-1.38333 -0.83,-3.04333 -0.82999,-2.76667 -1.10668,-2.49 -1.38332,-2.21333 -0.83,-1.10667 -0.55334,-0.83 -1.66,-1.93667 -1.10665,-0.55333 -0.83002,-0.83 -1.93665,-1.10667 -2.21334,-0.83 -1.10667,-0.55333 -1.38332,-0.27667 -2.49,-0.27666 -2.76667,-0.27667 -3.04334,0.27667 -1.38332,0.27666 -1.38335,0.27667 -2.76667,0.55333 -1.10667,0.55334 -1.38332,0.55333 -2.21335,1.38333 -1.10664,0.83 -1.10668,0.83 -1.93667,2.21334 -0.82999,1.10666 -0.83,1.10667 -1.66,2.76667 -1.38335,3.04333 -1.38332,3.59667 -0.82999,4.15 -0.55335,2.21333 -0.27665,2.21333 -0.83003,5.25667 -0.27664,5.25667 -0.55335,6.08666 z"
       id="path994" />
    <path
       style="fill:#000000;fill-opacity:1;fill-rule:evenodd;stroke:none;stroke-width:0.264583"
       d="m 704.545,87.386081 -18.81333,-3.32 v -13.55666 l 46.75666,-5.53334 h 0.55333 l 6.64,4.70334 V 254.76948 l 18.53666,1.93666 v 15.21667 h -71.37998 v -15.21667 l 17.70666,-2.21333 z"
       id="path996" />
    <path
       style="fill:#000000;fill-opacity:1;fill-rule:evenodd;stroke:none;stroke-width:0.264583"
       d="m 775.37165,201.92614 0.27668,-5.81 0.27667,-2.76666 v -2.76667 l 0.55333,-2.76667 0.27667,-2.76666 1.10667,-4.98 1.38333,-4.98 0.82999,-2.49 0.83,-2.21334 1.93667,-4.42666 2.21335,-4.42667 1.10664,-1.93667 1.10668,-1.93666 1.38334,-1.93667 1.38333,-1.93667 1.38334,-1.66 1.38332,-1.93666 3.32,-3.32 3.04334,-2.76667 3.59667,-2.76667 1.65999,-1.38333 1.93667,-1.10667 3.87334,-2.21333 4.14999,-2.21333 4.15002,-1.66 1.93664,-0.83 2.21335,-0.55334 4.14999,-1.10666 2.21334,-0.55334 2.21332,-0.55333 4.42669,-0.55333 4.42667,-0.55334 h 4.70331 3.87334 l 3.87334,0.27667 1.93667,0.27667 h 1.66 l 3.59667,0.55333 3.59666,0.83 3.31999,0.83 3.32,1.10667 3.04334,1.10666 3.04334,1.10667 2.76667,1.66 2.76667,1.38333 2.76664,1.93667 2.49002,1.93667 2.49,1.93666 2.21331,2.21334 2.21335,2.49 2.21334,2.49 1.93665,2.49 1.93667,2.76666 1.66,2.76667 1.38334,3.04333 1.38332,3.04334 1.38335,3.04333 1.10667,3.32 1.10665,3.32 0.83,3.59667 0.83002,3.59666 0.55333,3.59667 0.55332,3.87333 0.27667,3.87334 0.27668,4.15 v 4.15 l -0.27668,5.81 v 2.76666 l -0.27667,2.76667 -0.27665,2.76667 -0.55335,2.76666 -0.55332,2.49 -0.55335,2.76667 -1.10665,4.98 -1.65999,4.70333 -1.93667,4.42667 -2.21335,4.42667 -1.38332,1.93666 -1.10667,2.21334 -2.76667,3.59666 -1.38335,1.93667 -1.38332,1.66 -3.04334,3.32 -3.32,3.04333 -1.65999,1.38334 -1.66,1.10666 -3.87334,2.49 -3.59666,2.21334 -4.14999,1.93666 -1.93668,0.83 -2.21334,0.83 -4.14999,1.38334 -4.15002,1.10666 -4.42666,1.10667 -2.21332,0.27667 -2.21334,0.27666 -4.70332,0.27667 -4.70334,0.27667 -3.87334,-0.27667 h -3.87334 l -1.66,-0.27667 -1.93667,-0.27666 -3.59666,-0.55334 -3.31999,-0.55333 -3.32,-0.83 -3.32001,-1.10667 -3.04332,-1.10666 -3.04334,-1.38334 -2.76667,-1.38333 -2.76667,-1.66 -2.76667,-1.66 -2.48999,-1.93667 -2.49,-1.93666 -2.48999,-2.21334 -2.21335,-2.49 -1.93667,-2.49 -1.93667,-2.49 -1.93664,-2.76666 -1.66002,-2.76667 -1.66,-3.04333 -1.38332,-3.04334 -1.38335,-3.04333 -1.10664,-3.32 -1.10668,-3.32 -0.83,-3.59667 -0.82999,-3.59666 -0.55335,-3.59667 -0.27665,-3.87333 -0.55335,-3.87334 v -4.15 z m 68.33669,56.16334 h 3.59667 l 1.66,-0.27667 1.65999,-0.55333 1.38332,-0.27667 1.38335,-0.83 1.66,-0.55333 1.38332,-0.83 1.10667,-0.83 1.38335,-1.10667 1.10664,-1.10667 1.10668,-1.10666 1.10667,-1.38334 1.10667,-1.66 0.83,-1.38333 1.10667,-1.66 0.83,-1.93667 0.83,-1.66 0.55332,-2.21333 0.83,-1.93667 1.10667,-4.42666 1.10667,-4.98 0.83,-5.53334 0.55333,-5.81 0.27667,-6.08666 v -6.64 -7.19334 l -0.27667,-6.36333 -0.55333,-6.08667 -0.83,-5.81 -0.82999,-5.25666 -1.10668,-4.70334 -1.38334,-4.42666 -1.66,-3.87334 -0.83,-1.93666 -1.10667,-1.66 -0.83,-1.66 -1.10664,-1.38334 -1.38335,-1.38333 -1.10667,-1.38333 -2.76667,-1.93667 -1.38332,-0.83 -1.38332,-0.83 -1.66003,-0.55333 -1.65999,-0.55334 -1.66,-0.55333 -1.65999,-0.27667 -1.93668,-0.27666 h -1.65999 -1.93667 l -1.66,0.27666 -1.65999,0.27667 -1.66,0.27667 -1.66002,0.55333 -1.38332,0.55333 -1.66,0.83 -1.38335,0.83 -1.38332,0.83 -1.10667,1.10667 -1.38332,1.10667 -1.10667,1.10666 -1.10668,1.38334 -1.10667,1.38333 -0.83,1.66 -1.10667,1.66 -1.66,3.59667 -0.82999,1.93666 -0.55333,2.21334 -0.82999,2.21333 -0.55335,2.21333 -0.55333,2.49 -0.55332,2.49 -0.55335,5.25667 -0.55332,5.81 -0.55335,6.36333 v 6.64 6.91667 l 0.27667,6.64 0.83,6.08667 0.55335,5.81 0.55332,2.49 0.55333,2.76666 0.55335,2.21334 0.55332,2.49 0.83,2.21333 0.82999,2.21333 1.66,3.87334 1.93667,3.59666 1.10667,1.66 1.10668,1.38334 1.10667,1.38333 1.10665,1.10667 1.38334,1.10666 1.38332,1.10667 1.38335,0.83 1.66,0.83 1.65999,0.55333 1.38335,0.55334 1.93665,0.55333 1.66002,0.27667 h 1.93664 z"
       id="path998" />
    <path
       style="fill:#000000;fill-opacity:1;fill-rule:evenodd;stroke:none;stroke-width:0.264583"
       d="m 930.85834,202.47948 0.27667,-5.25667 0.27665,-5.25667 0.83,-4.98 0.83,-4.98 1.38334,-4.70333 1.38332,-4.70333 0.83,-2.21334 0.83,-2.21333 2.21335,-4.42667 2.21334,-3.87333 2.48999,-3.87333 2.76667,-3.87334 3.04332,-3.32 3.32002,-3.04333 3.31999,-3.04333 1.93667,-1.38334 1.93667,-1.38333 1.93667,-1.10667 1.93665,-1.38333 4.15001,-2.21333 4.42667,-1.93667 2.21332,-0.83 2.21334,-0.83 2.21335,-0.55333 2.48999,-0.55334 2.21332,-0.55333 2.49002,-0.55333 4.97999,-0.83 2.48999,-0.27667 h 2.76667 l 5.25667,-0.27667 h 4.98 l 4.4267,0.27667 4.15,0.55333 3.8733,0.55334 3.8733,0.83 3.8734,1.10666 8.5766,2.21334 7.47,1.93666 -1.66,43.16 h -21.8566 l -6.3634,-27.66666 -0.5533,-1.66 -0.2767,-0.55334 -0.5533,-0.55333 -0.5533,-0.83 -0.83,-0.27667 -1.66,-1.10666 -1.9367,-0.55334 -2.49,-0.55333 -2.7667,-0.27667 -3.31998,-0.27666 -3.31999,0.27666 -3.31999,0.55334 -1.38335,0.55333 -1.65999,0.55333 -1.38332,0.55334 -1.38335,0.55333 -1.38332,0.83 -1.38335,1.10667 -2.48999,1.93666 -2.21335,2.49 -1.10664,1.66 -0.83,1.38334 -1.10668,1.66 -0.82999,1.66 -1.66,3.59666 -1.38335,4.15 -1.10667,4.70334 -0.83,4.98 -0.82999,5.53333 -0.27668,3.04333 v 3.04334 l -0.27665,6.08666 0.27665,6.91667 v 3.04333 l 0.27668,3.32 0.27667,3.04334 0.55332,2.76666 0.55335,2.76667 0.55333,2.76667 1.38332,4.98 0.55335,2.49 0.82999,2.21333 2.21335,4.42667 0.83,1.93666 1.38332,1.93667 2.48999,3.59667 1.10668,1.38333 1.38334,1.38333 1.66,1.38334 1.38332,1.38333 1.38335,1.10667 1.65999,0.83 1.66,0.83 1.65999,0.83 1.66,0.55333 1.66,0.55333 1.93667,0.55334 1.93667,0.27666 h 3.8733 4.7034 l 4.7033,-0.55333 4.4267,-0.83 4.4266,-1.10667 4.4267,-1.38333 4.4267,-1.93667 4.15,-1.93666 3.8733,-2.49 5.81,13.00333 -1.66,1.93667 -1.9367,1.66 -2.2133,1.66 -2.49,1.66 -2.49,1.66 -2.7667,1.66 -6.3633,3.04333 -3.32,1.38333 -3.5967,1.10667 -3.5966,1.10667 -3.5967,0.83 -3.5967,0.83 -3.8733,0.27666 -3.59668,0.27667 -3.87331,0.27667 -4.15002,-0.27667 h -3.87331 l -3.59667,-0.55333 -3.59667,-0.55334 -3.59666,-0.55333 -3.32002,-0.83 -3.04332,-1.10667 -3.32002,-1.10666 -2.76666,-1.38334 -3.04332,-1.38333 -1.38335,-0.83 -1.38332,-0.83 -2.48999,-1.93667 -2.49002,-1.93666 -2.21332,-1.93667 -1.10668,-1.10667 -1.10667,-1.38333 -2.21332,-2.21333 -1.93667,-2.49 -1.93667,-2.76667 -1.65999,-2.76667 -1.66,-2.76666 -1.38335,-3.04334 -1.38332,-3.04333 -1.10667,-3.04333 -1.10667,-3.04334 -1.10668,-3.32 -0.55332,-3.59666 -0.83,-3.32 -0.55332,-3.59667 -0.55335,-3.87333 -0.27665,-3.87334 -0.27667,-3.87333 z"
       id="path1000" />
    <path
       style="fill:#000000;fill-opacity:1;fill-rule:evenodd;stroke:none;stroke-width:0.264583"
       d="m 1062.5517,232.35948 v -2.76667 l 0.2766,-2.76667 0.5534,-2.49 0.5533,-2.49 0.83,-2.49 1.1067,-2.49 1.1066,-2.21333 1.3834,-2.21333 1.3833,-2.21334 1.66,-1.93666 1.9367,-1.93667 2.2133,-1.93667 1.1067,-0.83 1.1066,-0.83 2.49,-1.66 2.49,-1.66 2.7667,-1.38333 3.0433,-1.66 3.0434,-1.10667 3.0433,-1.38333 3.32,-1.10667 3.32,-1.10666 3.5967,-0.83 3.5966,-0.83 3.5967,-0.83 7.7467,-1.38334 8.0233,-0.83 4.15,-0.55333 h 4.4267 l 4.4266,-0.27667 h 4.4267 v -5.81 l -0.2767,-4.98 v -2.21333 l -0.2766,-2.21333 -0.5534,-3.59667 -0.5533,-1.66 -0.5533,-1.66 -0.2767,-0.55333 -0.2767,-0.83 -0.83,-1.10667 -0.5533,-1.38333 -1.1067,-1.10667 -1.1066,-1.10667 -1.1067,-0.83 -1.1067,-0.83 -1.3833,-0.83 -1.66,-0.83 -1.66,-0.55333 -1.66,-0.27667 -1.9367,-0.55333 -4.4266,-0.55333 h -2.49 l -2.7667,-0.27667 -3.0433,0.27667 h -3.0434 l -2.7666,0.27666 -2.7667,0.27667 -5.5333,1.10667 -2.49,0.55333 -2.49,0.83 -4.98,1.66 -4.98,1.93667 -5.2567,2.21333 -5.2567,2.21333 -7.7466,-16.04666 2.2133,-1.66 2.7667,-1.93667 3.5966,-1.93667 4.15,-2.21333 2.2134,-1.10667 2.49,-1.10666 4.98,-2.21334 5.5333,-1.66 6.0867,-1.93666 6.0866,-1.38334 6.3634,-1.10666 6.3633,-0.55334 6.64,-0.27666 h 4.7033 l 4.4267,0.27666 4.15,0.27667 4.15,0.55333 3.5967,0.83 3.32,0.83 1.66,0.55334 1.3833,0.55333 3.0433,1.10667 2.49,1.38333 2.49,1.66 2.2134,1.66 2.2133,1.93667 0.83,0.83 1.1067,1.10666 1.66,2.49 1.3833,2.49 1.3833,2.49 1.1067,3.04334 0.83,3.04333 0.83,3.32 0.83,3.59667 0.5533,3.87333 0.2767,4.15 0.2767,4.42667 v 4.42666 77.19 h 13.5566 v 14.11 l -6.0866,1.38334 -8.3,1.10666 -4.4267,0.55334 -4.15,0.55333 h -4.15 l -3.5967,0.27667 -3.8733,-0.27667 -3.32,-0.55333 -1.3833,-0.27667 -1.1067,-0.27667 -0.83,-0.55333 -0.83,-0.55333 -0.83,-0.83 -0.5533,-0.83 -0.5534,-1.10667 -0.2766,-1.10667 -0.5534,-3.04333 -0.2766,-1.66 v -1.93667 -6.64 l -1.66,1.66 -1.9367,1.93667 -4.15,3.59667 -4.7033,3.32 -2.49,1.38333 -2.7667,1.66 -2.7667,1.38333 -2.7666,1.10667 -2.7667,1.10667 -1.66,0.55333 -1.3833,0.27667 -3.32,0.83 -3.0434,0.27666 -3.32,0.27667 -3.32,0.27667 -2.7666,-0.27667 h -3.0434 l -2.7666,-0.55333 -2.49,-0.55334 -2.7667,-0.55333 -2.49,-0.83 -2.49,-1.10667 -2.49,-1.10666 -2.49,-1.38334 -2.2133,-1.38333 -1.9367,-1.66 -2.2133,-1.66 -1.9367,-1.93667 -1.66,-1.93666 -1.66,-2.21334 -1.3833,-2.21333 -1.3834,-2.49 -1.1066,-2.49 -1.1067,-2.76667 -0.83,-2.76666 -0.5533,-2.76667 -0.5534,-3.04333 -0.2766,-3.32 z m 58.6533,21.30333 2.7667,-0.27667 3.0433,-0.55333 3.0433,-0.83 3.32,-1.38333 3.32,-1.66 1.66,-1.10667 1.3834,-0.83 2.7666,-1.93667 2.7667,-2.21333 v -41.5 l -5.5333,0.27667 -5.2567,0.27666 -2.2133,0.27667 -2.49,0.27667 -2.2134,0.55333 -2.2133,0.27667 -4.15,1.10666 -3.5967,1.38334 -1.66,0.83 -1.66,0.83 -3.0433,1.66 -1.3833,1.10666 -1.1067,0.83 -1.3833,1.10667 -1.1067,1.10667 -1.66,2.21333 -1.66,2.49 -0.83,1.10667 -0.5533,1.38333 -0.83,2.76667 -0.5534,2.76666 v 1.38334 1.66 2.76666 l 0.2767,2.76667 0.5533,2.76667 0.5534,2.21333 0.2766,1.10667 0.5534,1.10666 0.83,2.21334 1.1066,1.66 0.83,0.83 0.5534,0.83 1.66,1.66 1.3833,1.10666 1.9367,1.10667 1.66,0.83 2.2133,0.83 1.9367,0.55333 2.49,0.27667 z"
       id="path1002" />
    <path
       style="fill:#000000;fill-opacity:1;fill-rule:evenodd;stroke:none;stroke-width:0.264583"
       d="m 1208.0783,256.70614 14.11,-2.21333 v -99.04667 l -16.0466,-4.42666 v -17.43 l 41.7766,-5.25667 3.0434,1.93667 3.8733,8.3 v 10.79 l 2.2133,-2.21334 2.49,-1.93666 2.49,-1.66 3.0434,-1.93667 3.0433,-1.66 3.32,-1.66 3.5967,-1.66 3.5966,-1.66 3.8734,-1.38333 3.5966,-1.38334 3.5967,-1.10666 3.5967,-0.83 3.0433,-0.55334 3.32,-0.55333 3.0433,-0.27667 h 2.7667 3.32 l 3.32,0.27667 3.0433,0.27667 2.7667,0.55333 2.7667,0.55333 2.49,0.83 2.2133,0.83 2.2133,1.10667 2.2134,1.38333 1.66,1.10667 1.9366,1.66 1.66,1.66 1.3834,1.93667 1.66,1.93666 0.5533,1.10667 0.5533,1.10667 1.1067,2.21333 2.2133,-1.93667 2.2134,-1.66 2.49,-1.66 2.7666,-1.66 2.7667,-1.66 3.0433,-1.66 3.32,-1.38333 3.32,-1.38333 3.32,-1.38334 3.32,-1.10666 3.32,-0.83 3.32,-0.83 3.32,-0.55334 3.32,-0.55333 3.32,-0.27667 h 3.32 2.7667 2.7667 l 2.49,0.27667 2.49,0.55333 2.2133,0.27667 2.2133,0.55333 2.2134,0.83 1.9366,0.83 1.9367,0.83 1.9367,0.83 1.66,1.10667 1.66,1.10667 1.66,1.38333 1.3833,1.38333 2.49,3.04334 2.2133,3.59666 1.1067,1.93667 0.83,2.21333 1.66,4.42667 1.1067,5.25667 0.5533,2.76666 0.5533,2.76667 0.83,6.08667 0.2767,3.32 v 3.32 l 0.2767,7.19333 v 69.72 l 16.3233,2.21333 v 15.21667 h -65.2933 v -15.21667 l 13.0033,-2.21333 v -68.61333 -4.70334 l -0.2767,-4.42666 -0.2766,-4.15 -0.5534,-3.59667 -0.5533,-3.32 -0.5533,-1.38333 -0.2767,-1.38334 -1.1067,-2.49 -0.5533,-1.10666 -0.5533,-1.10667 -0.5534,-1.10667 -0.5533,-0.83 -0.83,-0.83 -0.83,-0.83 -1.66,-1.38333 -2.2133,-1.10667 -2.49,-0.83 -1.1067,-0.27666 -1.3833,-0.27667 -2.7667,-0.27667 -3.32,-0.27666 -3.5967,0.27666 -3.5966,0.55334 -3.5967,1.10666 -1.9367,0.55334 -1.66,0.83 -3.5966,1.66 -1.9367,0.83 -1.66,0.83 -3.0433,2.21333 -3.0434,1.93667 0.83,5.25666 0.5534,5.53334 0.2766,6.36333 v 6.91667 69.44333 l 15.77,2.21333 v 15.21667 h -65.8466 v -15.21667 l 13.8333,-2.21333 v -69.44333 -6.08667 l -0.5533,-5.53333 -0.2767,-4.98 -0.83,-3.87334 -1.1067,-3.59666 -0.5533,-1.38334 -0.83,-1.66 -0.5533,-1.10666 -1.1067,-1.10667 -0.83,-1.10667 -1.1067,-0.83 -2.49,-1.66 -1.66,-0.55333 -1.3833,-0.55333 -1.9367,-0.27667 -1.66,-0.27667 -1.9366,-0.27666 h -2.2134 l -3.8733,0.27666 -2.2133,0.27667 -1.9367,0.55333 -1.9367,0.27667 -1.9366,0.83 -4.15,1.38333 -3.8734,1.93667 -3.5966,2.21333 -1.66,1.10667 -1.66,1.10667 -3.32,2.49 v 91.85333 l 14.94,2.21333 v 15.21667 h -65.2934 z"
       id="path1004" />
    <path
       style="fill:#000000;fill-opacity:1;fill-rule:evenodd;stroke:none;stroke-width:0.264583"
       d="m 1452.375,70.509421 46.2033,-5.53334 h 0.5534 l 6.9166,4.70334 v 74.423389 l 1.9367,-1.66 1.66,-1.38333 1.9367,-1.66 2.2133,-1.38334 4.4267,-2.76666 2.2133,-1.38334 2.49,-1.10666 2.49,-1.10667 2.49,-1.10667 2.7667,-0.55333 2.49,-0.83 2.7666,-0.55333 2.7667,-0.27667 2.7667,-0.27667 h 3.0433 3.0433 l 2.7667,0.27667 3.0433,0.27667 2.7667,0.55333 2.49,0.55333 2.7667,0.83 2.49,0.83 2.49,0.83 2.49,1.10667 2.49,1.38333 2.2133,1.38334 2.2133,1.66 2.2134,1.66 1.9366,1.66 2.2134,1.93666 1.9366,2.21334 1.66,1.93666 1.9367,2.49 1.3833,2.49 1.66,2.49 1.3834,2.76667 1.1066,3.04333 1.1067,3.04334 1.1067,3.04333 0.83,3.32 0.83,3.59667 0.2766,1.66 0.2767,1.93666 0.5533,3.87334 0.5534,3.87333 0.2766,3.87333 0.2767,4.15 v 4.42667 l -0.2767,5.25667 v 2.76666 l -0.2766,2.49 -0.83,5.25667 -0.83,4.98 -0.83,2.21333 -0.5534,2.49 -0.83,2.49 -0.83,2.21334 -1.66,4.70333 -2.2133,4.42667 -1.1067,2.21333 -1.3833,2.21333 -2.49,3.87334 -1.3833,1.93666 -1.66,1.93667 -3.0434,3.59667 -3.32,3.32 -1.9366,1.66 -1.66,1.66 -1.9367,1.38333 -2.2133,1.38333 -3.8734,2.76667 -4.4266,2.21333 -2.2134,1.10667 -2.2133,1.10667 -2.49,0.83 -2.2133,0.83 -2.49,0.83 -2.49,0.83 -2.49,0.55333 -2.49,0.55333 -5.2567,0.55334 -5.2567,0.55333 -2.7666,0.27667 h -2.7667 -4.98 l -4.7033,-0.27667 -4.4267,-0.27667 -4.4267,-0.27666 -4.4266,-0.55334 -3.8734,-0.55333 -4.15,-0.83 -3.5966,-0.83 -6.64,-1.66 -2.7667,-0.55333 -2.49,-0.83 -2.2133,-0.83 -1.9367,-0.83 -1.3833,-0.55334 -1.3834,-0.83 V 86.556081 l -18.8133,-2.76666 z m 78.85,79.680059 -3.8733,0.27666 -1.9367,0.27667 -1.66,0.27667 -3.5967,1.10666 -1.66,0.83 -1.66,0.83 -3.0433,1.66 -3.0433,1.93667 -1.1067,0.83 -1.3833,1.10667 -2.2134,1.93666 v 92.13 l 0.5534,0.83 0.5533,0.55334 0.5533,0.55333 0.83,0.55333 2.2134,1.10667 2.49,1.10667 2.7666,0.55333 3.0434,0.55333 3.32,0.55334 h 3.32 l 4.15,-0.27667 1.66,-0.27667 1.9366,-0.27666 1.9367,-0.55334 1.66,-0.83 1.66,-0.55333 1.66,-1.10667 1.66,-0.83 1.3833,-1.10666 1.66,-1.38334 1.3834,-1.38333 1.3833,-1.38333 1.3833,-1.66 1.1067,-1.66 1.3833,-1.66 1.1067,-1.93667 1.1067,-2.21333 1.9366,-4.42667 0.83,-2.21333 0.83,-2.49 1.3834,-5.53334 0.5533,-2.76666 0.5533,-3.04334 0.83,-6.08666 0.2767,-6.64 0.2767,-7.19334 -0.2767,-6.36333 v -2.76667 l -0.2767,-2.76666 -0.5533,-5.53334 -1.1067,-4.70333 -1.1066,-4.70333 -0.5534,-1.93667 -0.83,-1.93667 -1.66,-3.87333 -1.9366,-3.32 -1.1067,-1.38333 -1.1067,-1.38334 -1.1066,-1.38333 -1.1067,-1.10667 -2.49,-1.93666 -1.3833,-1.10667 -1.3834,-0.83 -1.3833,-0.55333 -1.3833,-0.83 -1.66,-0.27667 -1.3834,-0.55333 -1.66,-0.27667 -1.3833,-0.27667 z"
       id="path1006" />
    <path
       style="fill:#000000;fill-opacity:1;fill-rule:evenodd;stroke:none;stroke-width:0.264583"
       d="m 1649.915,108.68947 -2.2133,-0.27667 h -2.2134 l -1.9366,-0.55334 -1.9367,-0.55334 -1.66,-0.83 -1.66,-0.83001 -1.3833,-1.10667 -1.3834,-1.10667 -1.3833,-1.38334 -1.1067,-1.66001 -0.83,-1.383339 -0.83,-1.66 -0.5533,-1.93666 -0.2767,-1.66 -0.2766,-1.93667 v -2.21333 -2.21334 l 0.2766,-2.21333 0.5534,-2.21333 0.5533,-1.93667 0.83,-1.93667 1.1067,-1.93666 0.5533,-0.83 0.5533,-0.83 1.66,-1.66 0.5534,-0.83 0.83,-0.55334 1.66,-1.38333 1.9366,-1.10667 1.9367,-0.83 2.2133,-0.83 2.2134,-0.27666 2.2133,-0.27667 2.49,-0.27667 h 2.49 l 2.2133,0.27667 2.2134,0.55333 1.1066,0.27667 0.83,0.27667 1.9367,0.83 1.66,0.83 1.3833,1.10666 1.66,1.38334 1.1067,1.38333 1.1067,1.38333 0.83,1.66 0.83,1.66 0.5533,1.66 0.2767,1.93667 0.2766,1.66 0.2767,2.21333 -0.2767,2.21334 -0.2766,2.49 -0.2767,2.21333 -0.83,1.93667 -0.83,1.93666 -1.1067,1.93667 -0.5533,0.829999 -0.5533,0.83 -0.83,0.83001 -0.5534,0.83 -1.66,1.38334 -1.66,1.10668 -1.9366,1.10666 -1.1067,0.55335 -0.83,0.27667 -2.2133,0.83 -2.49,0.27667 -2.49,0.27667 -2.49,0.27667 z m -13.5567,46.75667 -17.7066,-4.70333 v -16.87667 l 46.2033,-5.53333 h 0.2767 l 7.1933,4.98 v 121.45667 l 16.8767,1.93666 v 15.21667 h -70.2734 v -15.21667 l 17.43,-2.21333 z"
       id="path1008" />
    <path
       style="fill:#000000;fill-opacity:1;fill-rule:evenodd;stroke:none;stroke-width:0.264583"
       d="m 1707.4617,201.92614 v -5.81 l 0.2766,-2.76666 0.2767,-2.76667 0.2767,-2.76667 0.5533,-2.76666 0.83,-4.98 1.3833,-4.98 0.83,-2.49 0.83,-2.21334 1.9367,-4.42666 2.2133,-4.42667 1.1067,-1.93667 1.3833,-1.93666 1.3834,-1.93667 1.3833,-1.93667 1.3833,-1.66 1.3834,-1.93666 3.0433,-3.32 3.32,-2.76667 3.32,-2.76667 1.9367,-1.38333 1.9366,-1.10667 3.8734,-2.21333 3.8733,-2.21333 4.15,-1.66 2.2133,-0.83 1.9367,-0.55334 4.4267,-1.10666 2.2133,-0.55334 1.9367,-0.55333 4.7033,-0.55333 4.4267,-0.55334 h 4.7033 3.8733 l 3.8734,0.27667 1.66,0.27667 h 1.9366 l 3.5967,0.55333 3.32,0.83 3.32,0.83 3.32,1.10667 3.0433,1.10666 3.0434,1.10667 3.0433,1.66 2.7667,1.38333 2.49,1.93667 2.7666,1.93667 2.49,1.93666 2.2134,2.21334 2.2133,2.49 2.2133,2.49 1.9367,2.49 1.66,2.76666 1.66,2.76667 1.66,3.04333 1.3833,3.04334 1.3834,3.04333 1.1066,3.32 1.1067,3.32 0.83,3.59667 0.5533,3.59666 0.83,3.59667 0.2767,3.87333 0.2767,3.87334 0.2766,4.15 v 4.15 5.81 l -0.2766,2.76666 -0.2767,2.76667 -0.2767,2.76667 -0.2766,2.76666 -0.5534,2.49 -0.5533,2.76667 -1.3833,4.98 -1.66,4.70333 -1.9367,4.42667 -2.2133,4.42667 -1.1067,1.93666 -1.3833,2.21334 -2.49,3.59666 -1.3834,1.93667 -1.66,1.66 -3.0433,3.32 -3.0433,3.04333 -1.9367,1.38334 -1.66,1.10666 -3.5967,2.49 -3.8733,2.21334 -3.8733,1.93666 -2.2134,0.83 -1.9366,0.83 -4.15,1.38334 -4.4267,1.10666 -4.4267,1.10667 -2.2133,0.27667 -2.2133,0.27666 -4.4267,0.27667 -4.7033,0.27667 -3.8734,-0.27667 h -3.8733 l -1.9367,-0.27667 -1.66,-0.27666 -3.5966,-0.55334 -3.5967,-0.55333 -3.32,-0.83 -3.0433,-1.10667 -3.0434,-1.10666 -3.0433,-1.38334 -3.0433,-1.38333 -2.7667,-1.66 -2.7667,-1.66 -2.49,-1.93667 -2.49,-1.93666 -2.2133,-2.21334 -2.2133,-2.49 -2.2134,-2.49 -1.9366,-2.49 -1.9367,-2.76666 -1.66,-2.76667 -1.3833,-3.04333 -1.66,-3.04334 -1.1067,-3.04333 -1.1067,-3.32 -1.1066,-3.32 -0.83,-3.59667 -0.83,-3.59666 -0.5534,-3.59667 -0.5533,-3.87333 -0.2767,-3.87334 -0.2766,-4.15 z m 68.3366,56.16334 h 3.32 l 1.66,-0.27667 1.66,-0.55333 1.66,-0.27667 1.3834,-0.83 1.3833,-0.55333 1.3833,-0.83 1.3834,-0.83 1.1066,-1.10667 1.3834,-1.10667 1.1066,-1.10666 1.1067,-1.38334 0.83,-1.66 1.1067,-1.38333 0.83,-1.66 0.83,-1.93667 0.83,-1.66 0.83,-2.21333 0.83,-1.93667 1.1066,-4.42666 1.1067,-4.98 0.5533,-5.53334 0.5534,-5.81 0.5533,-6.08666 v -6.64 -7.19334 l -0.2767,-6.36333 -0.5533,-6.08667 -0.83,-5.81 -1.1067,-5.25666 -1.1066,-4.70334 -1.3834,-4.42666 -1.66,-3.87334 -0.83,-1.93666 -0.83,-1.66 -1.1066,-1.66 -1.1067,-1.38334 -1.1067,-1.38333 -1.1066,-1.38333 -2.7667,-1.93667 -1.3833,-0.83 -1.3834,-0.83 -1.66,-0.55333 -1.66,-0.55334 -1.66,-0.55333 -1.66,-0.27667 -1.9366,-0.27666 h -1.9367 -1.66 l -1.9367,0.27666 -1.66,0.27667 -1.66,0.27667 -1.3833,0.55333 -1.66,0.55333 -1.3833,0.83 -1.3834,0.83 -1.3833,0.83 -1.3833,1.10667 -1.1067,1.10667 -1.1067,1.10666 -1.1066,1.38334 -1.1067,1.38333 -1.1067,1.66 -0.83,1.66 -1.66,3.59667 -0.83,1.93666 -0.83,2.21334 -0.5533,2.21333 -0.5533,2.21333 -0.5534,2.49 -0.5533,2.49 -0.83,5.25667 -0.5533,5.81 -0.2767,6.36333 -0.2767,6.64 0.2767,6.91667 0.2767,6.64 0.5533,6.08667 0.83,5.81 0.5533,2.49 0.5534,2.76666 0.5533,2.21334 0.5533,2.49 0.83,2.21333 0.5534,2.21333 1.66,3.87334 1.9366,3.59666 1.1067,1.66 1.1067,1.38334 1.3833,1.38333 1.1067,1.10667 1.3833,1.10666 1.3833,1.10667 1.3834,0.83 1.3833,0.83 1.66,0.55333 1.66,0.55334 1.66,0.55333 1.9367,0.27667 h 1.66 z"
       id="path1010" />
    <path
       style="fill:#e6b563;fill-opacity:1;fill-rule:evenodd;stroke:none;stroke-width:0.264583"
       d="m 1971.4017,246.74614 -0.83,1.10667 -1.1067,1.38333 -1.9367,2.49 -2.2133,2.49 -2.49,2.49 -2.7667,2.21334 -3.0433,2.49 -3.32,2.21333 -3.5967,2.49 -3.8733,1.93667 -1.9367,1.10666 -1.9366,0.83 -4.15,1.66 -1.9367,0.55334 -2.2133,0.55333 -4.15,1.10667 -2.2134,0.27666 -2.49,0.55334 h -2.2133 l -2.2133,0.27666 -4.98,0.27667 -4.4267,-0.27667 -4.15,-0.27666 -1.9367,-0.27667 -2.2133,-0.27667 -3.8733,-1.10666 -3.5967,-0.83 -3.32,-1.38334 -3.32,-1.66 -3.0433,-1.93666 -2.7667,-1.93667 -2.7667,-2.21333 -2.2133,-2.21334 -2.2133,-2.49 -2.2134,-2.76666 -1.66,-2.76667 -1.66,-2.76667 -1.3833,-3.32 -1.3833,-3.04333 -1.1067,-3.32 -0.83,-3.32 -0.83,-3.32 -0.5533,-3.59667 -0.2767,-3.59666 -0.2767,-3.59667 v -3.59667 -6.08666 l 0.5534,-6.36334 0.2766,-2.76666 0.5534,-3.04334 1.1066,-5.81 0.5534,-2.76666 0.83,-3.04334 1.66,-5.53333 2.2133,-5.25667 1.1067,-2.76666 1.1066,-2.49 1.3834,-2.76667 1.3833,-2.49 1.3833,-2.21333 1.66,-2.49 3.0434,-4.42667 1.66,-2.21333 1.66,-2.21334 3.5966,-3.87333 3.8734,-3.59667 4.15,-3.59666 4.15,-3.04334 2.2133,-1.66 2.2133,-1.38333 2.49,-1.10667 2.2134,-1.10666 2.49,-1.10667 2.2133,-1.10667 4.98,-1.66 2.49,-0.83 2.49,-0.55333 4.98,-0.83 2.7667,-0.55333 h 2.49 l 2.7666,-0.27667 h 2.49 4.7034 l 2.49,0.27667 1.9366,0.27666 4.15,0.55334 3.8734,1.10666 1.66,0.55334 1.66,0.83 3.32,1.38333 2.7666,1.93667 1.1067,0.83 1.3833,1.10666 2.2134,2.49 1.9366,2.49 0.83,1.10667 0.83,1.38333 0.5534,1.38334 0.5533,1.66 1.1067,2.76666 0.83,3.32 0.5533,3.32 v 3.59667 2.21333 l -0.2767,2.21334 -0.5533,4.15 -0.5533,2.21333 -0.5534,1.93667 -0.5533,1.93666 -0.83,1.93667 -0.83,1.93667 -0.83,1.66 -2.49,3.59666 -2.49,3.32 -1.66,1.38334 -1.3833,1.66 -1.66,1.38333 -1.9367,1.66 -3.32,2.76667 -3.8733,2.49 -3.8734,2.21333 -3.8733,2.21333 -4.15,1.93667 -4.4267,1.93667 -4.4266,1.38333 -4.7034,1.38333 -4.4266,1.38334 -4.4267,1.10666 -4.4267,0.83 -4.4266,0.55334 -4.15,0.55333 -8.3,0.55333 v 4.42667 2.21333 2.21334 l 0.2766,1.93666 0.2767,1.93667 0.5533,3.87333 0.83,3.59667 1.1067,3.32 1.3833,3.04333 1.3834,2.76667 1.66,2.76667 1.1066,1.10666 0.83,1.10667 2.2134,1.93667 2.49,1.38333 1.1066,0.83 1.3834,0.55333 2.7666,0.83 2.7667,0.55334 h 3.32 2.7667 l 2.49,-0.27667 2.7666,-0.27667 2.49,-0.55333 2.7667,-0.83 2.49,-0.83 2.49,-1.10667 2.49,-1.10666 2.49,-1.38334 2.2133,-1.38333 2.49,-1.66 2.2134,-1.93667 2.49,-1.93666 2.2133,-1.93667 2.2133,-2.49 2.2134,-2.49 z m -37.9034,-102.92 -1.9366,0.27667 h -1.66 l -3.32,0.83 -1.66,0.83 -1.66,0.83 -1.66,0.83 -1.3834,1.10667 -1.3833,1.10666 -1.3833,1.38334 -1.3834,1.38333 -1.3833,1.66 -1.1067,1.66 -1.3833,1.93667 -1.1067,1.93666 -1.1066,2.21334 -1.9367,4.70333 -1.9367,4.42667 -1.3833,4.98 -1.3833,4.98 -1.1067,4.98 -1.1067,4.98 -0.5533,5.53333 -0.5533,5.25667 h 2.49 l 2.49,-0.55334 4.98,-0.83 2.7666,-0.83 2.49,-0.83 2.7667,-1.10666 2.7667,-1.10667 2.7666,-1.10667 2.49,-1.38333 2.49,-1.66 2.49,-1.66 2.2134,-1.66 1.9366,-1.93667 2.2134,-1.93666 1.9366,-2.21334 1.66,-2.21333 1.3834,-2.21333 1.3833,-2.49 1.1067,-2.49 0.83,-2.49 0.5533,-2.49 0.2767,-2.76667 0.2766,-2.76667 -0.2766,-2.21333 v -2.21333 l -0.2767,-1.93667 -0.5533,-1.66 -0.2767,-1.66 -0.5533,-1.66 -0.83,-1.38333 -0.83,-1.38334 -0.83,-1.10666 -1.1067,-1.10667 -0.5533,-0.27667 -0.5534,-0.55333 -1.1066,-0.55333 -1.1067,-0.55334 -1.3833,-0.27666 -1.3834,-0.27667 z"
       id="path1012" />
    <path
       style="fill:#e6b563;fill-opacity:1;fill-rule:evenodd;stroke:none;stroke-width:0.264583"
       d="m 2082.345,155.72281 -0.83,-0.83 -0.83,-0.83 -2.2133,-1.93667 -2.7667,-1.66 -3.32,-1.93666 -1.66,-0.83 -1.9367,-0.83 -1.9366,-0.55334 -1.9367,-0.55333 -1.9367,-0.55333 -2.2133,-0.27667 -4.4267,-0.27667 h -2.49 l -2.2133,0.27667 -2.2133,0.27667 -2.2134,0.55333 -1.9366,0.55333 -1.66,0.83 -1.9367,0.83 -1.3833,1.10667 -1.66,1.10667 -0.5534,0.83 -0.5533,0.55333 -0.5533,0.83 -0.5534,0.55333 -0.83,1.66 -0.83,1.66 -0.2766,1.93667 -0.2767,1.93667 -0.2767,1.93666 v 1.93667 l 0.2767,1.66 0.5533,1.93667 0.5534,1.66 0.5533,1.66 1.1067,1.66 0.83,1.38333 1.3833,1.66 3.0433,3.04333 1.66,1.66 1.9367,1.66 4.7033,3.87334 5.2567,3.87333 6.0867,4.98 2.7666,2.21333 2.7667,2.21334 2.2133,2.49 2.2134,2.21333 3.8733,4.42667 1.3833,2.49 1.3834,2.49 1.3833,2.49 0.83,2.76666 0.83,3.04334 0.5533,3.04333 0.2767,3.32 v 3.32 3.32 l -0.2767,3.32 -0.2766,1.66 -0.5534,1.38333 -0.83,3.04334 -0.83,3.04333 -1.3833,2.76667 -1.66,2.49 -1.66,2.49 -1.9367,2.49 -2.2133,2.21333 -2.2133,1.93667 -2.49,1.93666 -2.49,1.66 -2.7667,1.66 -3.0433,1.38334 -3.0434,1.38333 -3.32,1.10667 -3.0433,1.10666 -3.5967,0.83 -3.32,0.55334 -3.5966,0.55333 -3.5967,0.55333 -3.5967,0.27667 h -3.5966 l -5.81,-0.27667 -5.81,-0.55333 -5.81,-0.83 -3.0434,-0.55333 -2.7666,-0.55334 -5.5334,-1.38333 -2.2133,-0.55333 -2.2133,-0.83 -1.66,-0.55334 -1.66,-0.83 -1.1067,-0.83 -1.1067,-0.55333 4.98,-21.58 1.3834,1.10667 1.66,1.10666 1.66,1.10667 1.66,1.10667 3.8733,2.21333 4.15,1.93667 2.49,1.10666 2.2133,0.83 2.2134,0.55334 2.49,0.55333 2.2133,0.55333 2.49,0.27667 2.49,0.27667 h 2.49 2.2133 l 2.2134,-0.27667 2.2133,-0.27667 1.9367,-0.55333 1.9366,-0.55333 1.9367,-0.83 1.66,-0.83 1.9367,-1.10667 1.3833,-1.10667 1.3833,-1.38333 1.1067,-1.38333 1.1067,-1.66 0.5533,-1.66 0.5533,-1.93667 0.2767,-1.93667 0.2767,-2.21333 -0.2767,-1.93667 -0.2767,-1.93666 -0.2766,-1.66 -0.5534,-1.93667 -0.5533,-0.83 -0.2767,-0.83 -1.1066,-1.66 -1.1067,-1.66 -1.3833,-1.66 -3.32,-3.32 -3.8734,-3.32 -4.7033,-3.87333 -5.5333,-3.87334 -4.98,-3.87333 -2.49,-1.93667 -2.2134,-2.21333 -2.2133,-2.21333 -2.2133,-2.21334 -1.9367,-2.49 -1.66,-2.21333 -1.1067,-1.38333 -0.5533,-1.38334 -1.66,-2.49 -1.1067,-3.04333 -1.1066,-2.76667 -0.83,-3.04333 -0.5534,-3.32 -0.2766,-3.32 v -3.59667 -2.76666 l 0.2766,-3.04334 0.5534,-2.76666 0.83,-2.76667 0.83,-2.49 1.3833,-2.76667 1.3833,-2.21333 0.83,-1.38333 0.83,-1.10667 1.66,-2.21333 1.9367,-2.21334 2.2133,-1.93666 2.49,-1.93667 2.49,-1.66 2.49,-1.66 2.7667,-1.66 3.0433,-1.10667 3.0434,-1.38333 3.32,-1.10667 3.32,-0.83 3.5966,-0.83 3.32,-0.55333 3.8734,-0.27667 3.8733,-0.27666 h 3.8733 4.7034 l 4.7033,0.27666 4.7033,0.55334 4.7034,0.55333 4.4266,0.83 3.5967,0.83 2.7667,0.83 1.1066,0.55333 1.1067,0.27667 z"
       id="path1014" />
    <path
       style="fill:#707070;fill-opacity:1;fill-rule:nonzero;stroke:none;stroke-width:0.264583"
       d="m 316.10499,201.09614 3.87335,2.76667 3.59666,2.76667 3.31999,3.04333 3.04335,3.04333 3.04331,3.04334 2.76667,3.32 2.49002,3.32 2.21332,3.32 2.21335,3.59666 1.65999,3.32 1.66,3.59667 1.10667,3.59667 1.10667,3.87333 0.27665,1.66 0.27668,1.93667 0.27667,1.93666 0.27665,1.93667 v 3.87333 4.15 l -0.55332,4.42667 -1.10668,4.15 -0.55332,2.21333 -0.55335,1.93667 -0.83,2.21333 -0.82999,1.93667 -1.93667,4.15 -2.49,3.87333 -2.48999,3.87334 -3.04335,3.87334 -3.04331,3.59667 -3.59667,3.59666 -3.87334,3.32 -3.87334,3.31999 -2.21332,1.65999 -2.21335,1.66003 -4.70333,3.04331 -4.70332,2.76667 -4.98001,3.04334 -5.53334,2.49 -5.25666,2.48999 -5.80999,2.49 -6.08668,2.21334 -6.08666,1.93667 -6.08667,1.93667 -6.64,1.66 -6.64,1.65999 -6.64,1.10668 -6.91666,1.10667 -7.19334,1.10665 -7.19333,0.82999 -7.19333,0.55335 -7.47,0.27665 h -7.47 -9.13 l -8.85334,-0.55332 -8.5767,-0.83 -8.5766,-1.10667 3.5966,-0.27665 3.5967,-0.27668 3.5967,-0.27667 3.32,-0.55332 3.59664,-0.55335 3.32,-0.55333 3.32,-0.55332 3.59666,-0.83 6.64,-1.66002 6.36334,-2.21332 6.64,-2.21334 6.08666,-2.49 6.36334,-2.76667 5.81,-3.04334 3.04333,-1.66 3.04333,-1.65999 5.53334,-3.59667 5.53333,-3.87334 5.53333,-4.14999 4.98,-4.14999 2.76667,-2.21334 2.21333,-2.21332 4.98,-4.70334 4.70333,-4.70334 4.15002,-4.98 4.42666,-5.25667 3.87332,-5.53333 1.93667,-2.76667 1.65999,-2.76666 3.59667,-5.81 3.32002,-5.81 3.04332,-6.08667 2.76666,-6.08667 1.10668,-3.32 1.38332,-3.04333 2.21334,-6.64 1.93667,-6.36333 0.83,-3.59667 0.83,-3.32 1.38332,-6.64 z"
       id="path1016" />
    <path
       style="fill:#5c3556;fill-opacity:1;fill-rule:evenodd;stroke:none;stroke-width:0.264583"
       d="m 202.395,199.43614 h 41.22333 v 43.99 H 202.395 Z m -109.283368,-87.98 0.2767,-2.49001 v -1.38334 l 0.2767,-1.38335 0.83,-2.49 0.83,-2.49001 1.1066,-2.490009 1.3834,-1.93667 1.3833,-2.21333 0.829998,-0.83 1.1067,-1.10667 1.66,-1.66 2.2133,-1.66 2.2133,-1.10667 2.2134,-1.10666 2.49,-1.10667 1.3833,-0.27667 1.1067,-0.27666 2.7666,-0.27667 2.7667,-0.27667 2.7667,0.27667 h 1.1066 l 1.3834,0.27667 2.49,0.55333 2.49,1.10667 2.49,1.10666 2.2133,1.10667 1.9367,1.66 0.83,0.83 1.1066,0.83 1.66,1.93667 1.66,2.21333 1.1067,1.93667 1.1067,2.490009 1.1066,2.49001 0.2767,1.10667 0.2767,1.38333 0.2766,2.76669 0.2767,2.49001 -0.2767,2.76667 v 1.38333 l -0.2766,1.38334 -0.5534,2.49 -1.1066,2.49 -1.1067,2.21333 -1.1067,2.21333 -1.66,2.21334 -0.83,0.83 -0.83,0.83 -1.9366,1.93666 -1.9367,1.38334 -2.2133,1.38333 -2.49,1.10667 -2.49,0.83 -1.1067,0.55333 -1.3833,0.27667 -2.49,0.27666 -2.7667,0.27667 -2.7667,-0.27667 h -1.3833 l -1.3833,-0.27666 -2.49,-0.83 -2.49,-0.83 -2.2134,-1.10667 -2.2133,-1.38333 -2.2133,-1.38334 -0.83,-0.83 -0.83,-1.10666 -1.936698,-1.66 -1.3833,-2.21334 -1.3834,-2.21333 -1.1066,-2.21333 -0.83,-2.49 -0.5534,-1.38334 -0.2766,-1.10666 -0.2767,-2.76667 z m 79.126698,132.24667 -38.18,-38.18 v 69.16667 l -5.2567,-2.76667 -5.2566,-2.76667 -4.98,-3.32 -4.7034,-3.32 -4.7033,-3.87333 -4.7033,-3.59667 -4.15,-4.15 -2.213398,-1.93666 -1.9366,-2.21334 -0.5534,-41.77666 -0.2766,-29.05 v -13.83334 h 43.159998 l 33.7533,33.75334 z m 151.33667,-63.91 -0.27667,8.3 -0.55333,8.02333 -1.10667,7.74667 -0.55332,3.87333 -0.83,3.87334 -1.66002,7.74666 -1.10665,3.59667 -1.10667,3.87333 -1.10667,3.59667 -1.38332,3.59667 -1.38335,3.59666 -1.38332,3.59667 -1.66,3.59667 -1.38335,3.32 -3.59666,6.91666 -3.87334,6.64 -4.14999,6.36334 -1.93667,3.04333 -2.49,3.04333 -2.21334,3.04334 -2.21332,3.04333 -2.49,2.76667 -2.49002,2.76666 -5.25666,5.53333 -2.76667,2.76667 -2.76666,2.48999 -2.76666,2.49002 -3.04334,2.49 -5.81,4.70334 -6.36333,4.42666 -6.36333,4.14999 -6.36334,3.59667 -3.59666,1.93667 -3.32,1.65999 -6.91667,3.04335 -7.19333,2.76667 -3.59667,1.38332 -3.87333,1.10667 -7.47,2.21332 -3.59667,0.83002 -3.87333,0.83 -3.87334,0.83 -3.87333,0.83 -4.15,0.27664 -3.87337,0.55335 -3.8733,0.27668 -4.15,0.27665 -8.0233,0.27667 -8.0234,-0.27667 -8.0233,-0.55333 -8.0233,-0.82999 -3.8734,-0.83 -3.8733,-0.83 -7.47,-1.66002 -3.8733,-1.10665 -3.8734,-1.10667 -3.5966,-1.10667 -3.5967,-1.38332 -3.5967,-1.10668 -3.5966,-1.65999 -3.5967,-1.38335 -3.319998,-1.66 -6.9167,-3.59666 -6.64,-3.59667 -6.3633,-4.14999 -3.0433,-2.21334 -3.0434,-2.21332 -3.0433,-2.21335 -3.0433,-2.48999 -2.7667,-2.49 -2.7667,-2.49002 -5.5333,-5.25666 -2.7667,-2.76667 -2.49,-2.76666 -2.49,-2.76666 -2.49,-2.76667 -4.7033,-6.08667 -4.4267,-6.08666 -3.8733,-6.36334 -3.8733,-6.64 -1.9367,-3.32 -1.66,-3.59666 -3.0433,-6.91667 -2.7667,-7.19333 -1.3833,-3.59667 -1.1067,-3.59667 -2.2133,-7.47 -0.83,-3.87333 -0.83,-3.87333 -0.83,-3.87334 -0.5534,-3.87333 -0.5532999,-3.87333 -0.5533,-3.87334 -0.2767,-4.15 -0.2767,-3.87333 -0.2766,-8.3 0.2766,-8.02333 0.5534,-8.02334 1.1065999,-8.02333 0.5534,-3.87333 0.83,-3.87334 1.66,-7.47 1.1066,-3.87333 1.1067,-3.59667 1.1067,-3.87333 1.3833,-3.59667 1.3833,-3.59666 1.3834,-3.59667 1.3833,-3.32 1.66,-3.59667 3.5967,-6.64003 3.8733,-6.640029 3.8733,-6.36333 2.2134,-3.32 2.2133,-3.04333 2.49,-3.04333 2.2133,-2.76667 2.49,-3.04334 2.49,-2.76666 5.2567,-5.53334 2.7667,-2.49 2.7666,-2.76666 2.7667,-2.49 2.7667,-2.213336 6.0866,-4.703334 6.0867,-4.426667 6.3633,-4.15 6.64,-3.873333 3.5967,-1.66 3.32,-1.66 6.916698,-3.32 7.1933,-2.766667 3.5967,-1.383333 3.5966,-1.106667 7.7467,-2.213333 3.5967,-0.83 3.8733,-0.83 3.8733,-0.83 3.8734,-0.553333 3.8733,-0.553334 4.15,-0.553333 3.8733,-0.276667 4.15,-0.276666 8.0234,-0.276667 8.0233,0.276667 8.0233,0.553333 8.02337,1.106667 3.87333,0.553333 3.87334,0.83 7.47,1.66 3.87333,1.106667 3.59667,1.106666 3.87333,1.106667 3.59667,1.383333 3.59666,1.383334 3.59667,1.383333 3.32,1.66 3.59667,1.66 6.91666,3.32 6.36334,3.873333 6.36333,4.15 3.32,2.213332 3.04333,2.213335 3.04334,2.213332 2.76666,2.490002 3.04334,2.213336 2.76666,2.49 5.53333,5.25666 2.48999,2.76667 2.76667,2.76667 2.49002,2.76666 2.49,3.04334 4.42666,5.81 4.42667,6.36333 4.14999,6.36333 3.87334,6.640029 1.65999,3.32002 1.93667,3.32001 3.04335,6.91667 2.76667,7.19333 1.38332,3.59667 1.10667,3.87333 2.21332,7.47 0.83002,3.87334 0.83,3.59666 0.83,3.87334 0.55332,3.87333 0.55332,4.15 0.55335,3.87333 0.27668,3.87334 0.27665,4.15 z"
       id="path1018" />
  </g>
</svg>
