<?xml version="1.0" encoding="UTF-8" standalone="no"?>
<svg
   xmlns:dc="http://purl.org/dc/elements/1.1/"
   xmlns:cc="http://creativecommons.org/ns#"
   xmlns:rdf="http://www.w3.org/1999/02/22-rdf-syntax-ns#"
   xmlns:svg="http://www.w3.org/2000/svg"
   xmlns="http://www.w3.org/2000/svg"
   xmlns:sodipodi="http://sodipodi.sourceforge.net/DTD/sodipodi-0.dtd"
   xmlns:inkscape="http://www.inkscape.org/namespaces/inkscape"
   width="7000mm"
   height="1000mm"
   viewBox="0 0 7000 1000"
   version="1.1"
   id="svg8"
   inkscape:version="1.0.2-2 (e86c870879, 2021-01-15)"
   sodipodi:docname="logotelocambio.svg">
  <defs
     id="defs2">
    <pattern
       id="EMFhbasepattern"
       patternUnits="userSpaceOnUse"
       width="6"
       height="6"
       x="0"
       y="0" />
    <pattern
       id="EMFhbasepattern-1"
       patternUnits="userSpaceOnUse"
       width="6"
       height="6"
       x="0"
       y="0" />
  </defs>
  <sodipodi:namedview
     id="base"
     pagecolor="#ffffff"
     bordercolor="#666666"
     borderopacity="1.0"
     inkscape:pageopacity="0.0"
     inkscape:pageshadow="2"
     inkscape:zoom="0.015467961"
     inkscape:cx="21097.074"
     inkscape:cy="1243.6892"
     inkscape:document-units="mm"
     inkscape:current-layer="layer1"
     inkscape:document-rotation="0"
     showgrid="false"
     inkscape:window-width="1298"
     inkscape:window-height="1040"
     inkscape:window-x="78"
     inkscape:window-y="0"
     inkscape:window-maximized="0" />
  <metadata
     id="metadata5">
    <rdf:RDF>
      <cc:Work
         rdf:about="">
        <dc:format>image/svg+xml</dc:format>
        <dc:type
           rdf:resource="http://purl.org/dc/dcmitype/StillImage" />
        <dc:title></dc:title>
      </cc:Work>
    </rdf:RDF>
  </metadata>
  <g
     inkscape:label="Capa 1"
     inkscape:groupmode="layer"
     id="layer1">
    <path
       style="fill:#5c3556;fill-opacity:1;fill-rule:evenodd;stroke:none;stroke-width:1.16487"
       d="M 886.14649,380.32797 780.17451,463.1566 591.37374,609.32505 V 485.08187 H 461.03996 L 459.82192,314.55217 249.09581,463.1566 H 160.1766 V 297.4993 H 591.37374 V 151.33087 Z M 110.23575,661.70223 405.00879,432.70515 V 553.2941 H 538.99657 V 728.69624 L 736.32388,578.87358 h 101.09991 v 165.65729 h -432.415 v 146.16846 z m -70.648127,-140.07824 1.21804,-24.36127 v -10.96263 l 1.21804,-12.18084 2.436201,-23.14307 4.87228,-21.92526 4.872161,-21.92528 6.090441,-21.92526 3.654241,-10.96262 3.65424,-10.96264 3.654241,-9.74486 4.87216,-10.96262 8.526522,-20.70706 10.962601,-19.48927 10.962719,-19.48884 10.9626,-18.27106 13.3988,-18.27105 13.39881,-17.05329 14.61672,-17.05284 14.61708,-15.83505 15.83476,-14.61685 17.05304,-14.61685 17.05293,-13.39863 18.27108,-13.39862 9.74468,-6.09064 8.52628,-4.87198 19.48913,-10.96265 9.74468,-6.09065 9.74444,-4.87199 10.96272,-4.87243 9.74456,-3.6542 20.70716,-8.526642 21.92533,-7.308421 21.9252,-6.0902 21.92532,-4.872437 21.92533,-4.871981 23.14336,-2.43644 23.14324,-1.217788 24.36141,-1.218209 23.14336,1.218209 h 12.18088 l 10.96249,1.217788 23.14348,2.43644 23.14336,4.871981 21.92509,4.872437 21.9252,6.0902 9.74468,3.654217 10.9626,3.654204 10.96272,3.654205 9.74445,4.872437 20.70716,8.52663 19.48912,10.96264 19.48912,10.96265 18.27109,10.96262 18.27103,13.39862 17.05296,13.39863 17.05296,14.61685 15.83507,14.61685 14.6168,15.83505 14.61679,17.05284 13.39891,17.05329 13.39871,18.27105 6.09041,9.74442 6.09021,8.52664 10.96275,19.48884 4.87213,9.74485 4.87233,9.74442 4.87233,10.96265 4.87234,9.74441 7.30828,20.70748 7.3085,21.92526 6.09041,21.92526 6.09022,21.92528 3.65424,21.92526 2.43638,23.14307 2.43596,23.14347 v 24.36127 23.14347 l -1.21809,12.18086 -1.21787,10.96264 -2.43638,23.14304 -3.65424,21.92527 -6.09022,23.1435 -6.09041,21.92526 -3.65424,9.74442 -3.65426,10.96262 -3.65404,10.96264 -3.65424,9.74485 -9.74467,20.70707 -9.74446,19.48926 -10.96275,19.48884 -12.18062,18.27106 -13.39871,18.27106 -13.39891,17.05326 -14.61679,17.05286 -14.6168,15.83505 -15.83507,14.61683 -17.05296,14.61685 -17.05296,13.39862 -18.27103,13.39865 -8.52638,6.09065 -9.74471,6.09018 -19.48912,10.96264 -9.74444,4.8724 -9.74468,4.87204 -9.74444,4.8724 -10.96272,4.8724 -20.70717,7.30849 -20.70728,7.30836 -21.9252,6.0902 -21.92509,4.87252 -23.14336,4.87192 -23.14348,2.43644 -23.14337,2.43596 h -23.14336 -24.36141 l -10.9626,-1.21816 -12.18064,-1.2178 -23.14336,-2.43644 -21.92533,-4.87192 -21.92532,-4.87252 -21.9252,-6.0902 -10.9626,-3.65412 -10.96273,-3.65424 -9.74444,-3.65424 -10.96272,-3.65425 -20.70728,-9.7448 -19.48912,-9.74444 -19.48913,-10.96264 -18.27096,-12.18083 -18.27108,-13.39865 -17.05293,-13.39862 -17.05304,-14.61685 -15.83476,-14.61683 -14.61708,-15.83505 -14.61672,-17.05286 -13.39881,-17.05326 -13.3988,-18.27106 -6.09032,-8.52621 -4.87228,-9.74485 -10.962719,-19.48884 -6.0902,-9.74485 -4.872401,-9.74441 -4.872281,-9.74444 -3.654241,-10.96263 -8.526401,-20.70749 -7.308481,-20.70704 -6.090441,-21.92526 -4.872161,-23.1435 -4.87228,-21.92527 -2.436201,-23.14304 -1.21804,-23.1435 z"
       id="path2055" />
    <path
       style="fill:#000000;fill-opacity:1;fill-rule:evenodd;stroke:none;stroke-width:1.16487"
       d="m 1389.2098,799.08466 h -12.1808 l -10.9625,-1.21824 -4.8725,-1.2182 h -4.872 l -9.7449,-2.436 -8.5261,-3.65421 -7.3089,-3.65421 -7.3084,-4.87244 -6.0902,-4.87197 -4.8725,-6.09064 -2.4359,-3.65422 -2.436,-3.65423 -3.6542,-7.30841 -3.6543,-8.52621 -2.4359,-8.52663 -2.4365,-9.7444 V 718.692 l -1.2178,-10.96263 V 447.06214 h -43.8506 v -42.63231 l 14.6166,-6.09065 15.8349,-6.09019 14.6169,-6.09022 7.3084,-7.30843 6.0905,-8.52663 4.8722,-9.7444 4.8723,-10.96265 6.0903,-14.61686 6.0902,-17.05327 6.0906,-19.48882 6.0902,-23.1435 h 68.2118 l 4.8725,109.62634 h 103.5361 v 62.12159 h -102.3179 v 193.6732 34.10612 l 1.2178,13.39862 1.2181,9.74442 1.2183,7.30845 1.2178,6.09063 2.4364,3.65422 2.436,3.6542 4.8725,1.21778 4.8723,2.43642 h 6.0903 l 7.3085,1.2178 17.0527,-1.2178 17.0534,-2.43642 15.8344,-3.65422 8.5269,-2.43597 7.3082,-2.43601 14.617,46.28655 -10.9627,8.52661 -6.0906,3.65421 -7.3085,3.65423 -17.0528,7.30842 -8.5261,2.43599 -9.745,3.65421 -20.7069,4.87244 -20.7073,4.87198 -19.4891,2.43644 z"
       id="path2057" />
    <path
       style="fill:#000000;fill-opacity:1;fill-rule:evenodd;stroke:none;stroke-width:1.16487"
       d="m 1740.0138,800.30243 h -24.3613 l -10.9627,-1.21777 -10.9625,-2.43644 -10.9627,-1.21777 -9.7446,-2.43644 -19.4891,-6.09021 -18.2709,-8.52664 -8.5264,-4.87198 -7.3083,-4.87244 -7.3086,-4.87244 -7.3088,-6.09017 -7.3084,-7.30845 -6.0902,-6.0902 -6.0902,-7.30842 -4.8725,-7.30841 -4.8719,-8.52665 -4.8723,-8.52665 -4.8725,-8.5262 -3.6543,-8.52662 -3.6541,-8.52666 -2.4362,-9.7444 -3.654,-9.74442 -2.4366,-10.96265 -2.4359,-9.74485 -1.2183,-10.96265 -1.2177,-10.96261 -1.2183,-12.18043 v -10.96261 -12.18086 -17.05285 l 1.2183,-15.83506 1.2177,-14.61683 3.6542,-14.61685 3.6543,-14.61686 3.6542,-13.39862 4.8724,-13.39906 6.0906,-12.18041 6.0902,-10.96265 7.3085,-10.96262 8.5261,-10.96264 8.5267,-9.74485 3.6542,-3.65422 4.8725,-4.87199 9.7445,-8.52663 4.8724,-3.65423 4.8723,-3.6542 10.9623,-6.09022 12.1808,-6.09064 12.1809,-4.87198 12.1808,-4.87243 13.3987,-3.65421 13.3985,-2.436 6.0906,-1.21821 7.3085,-1.21823 14.6164,-1.21776 h 14.617 l 19.4891,1.21776 h 8.5267 l 8.5263,1.21823 15.835,3.65421 15.8351,3.65421 7.3083,2.436 7.3085,3.6542 12.1804,6.09065 12.1808,7.30843 6.0907,4.87198 4.8719,4.87244 4.8726,4.87241 4.8719,4.87201 3.6542,6.09064 3.6543,6.09022 7.3082,12.18084 3.6547,6.09019 2.436,6.0902 2.4361,7.30845 2.4364,7.30841 3.6543,15.83506 2.4359,15.83506 v 8.52621 8.52664 21.92526 l -1.2183,20.70705 -2.4359,17.05329 -2.436,15.83462 h -228.9975 l 1.2182,14.61683 1.2181,14.61685 3.6543,13.39908 3.6543,12.1804 3.6542,10.96264 4.8719,10.96263 6.0902,9.74487 6.0906,8.52619 7.3085,7.30843 7.3083,7.30842 8.5268,4.87244 3.6542,2.43597 4.872,2.43644 9.7444,3.6542 10.963,2.43601 10.9627,1.21821 10.9626,1.21779 14.6164,-1.21779 13.3991,-1.21821 14.6167,-3.65421 14.617,-3.65421 14.6168,-4.87244 12.1809,-4.87198 10.9621,-4.87243 9.7449,-6.0902 20.707,45.0683 -4.8719,4.87244 -6.0907,4.87243 -14.6167,10.96263 -8.5262,4.87199 -9.7449,4.87243 -9.7445,4.87243 -10.9627,4.87197 -10.9626,3.65422 -12.1807,4.87243 -10.9628,2.436 -12.1808,2.43644 -23.143,3.65421 -12.1808,1.21777 z m 47.5047,-249.70415 v -30.45189 -10.96265 -10.96263 l -1.2177,-9.74443 -1.2183,-8.52663 -2.436,-8.52664 -1.2182,-8.52621 -2.436,-6.09064 -3.6542,-7.30841 -3.6542,-4.87201 -3.6542,-4.87241 -4.8725,-4.87244 -4.8719,-2.43599 -4.8726,-3.65422 -6.0905,-1.21821 -7.3084,-1.21776 h -7.3085 -7.3079 l -7.3084,1.21776 -6.0907,2.43644 -6.0902,2.43599 -6.0906,3.65423 -4.8721,4.87241 -2.4364,2.43599 -2.4359,2.436 -4.8725,7.30842 -3.6537,7.30841 -3.6542,8.52665 -2.4365,9.74442 -2.4362,12.18085 -2.4359,12.18086 -1.2181,14.61684 -1.2182,15.83463 -1.218,17.05327 z"
       id="path2059" />
    <path
       style="fill:#000000;fill-opacity:1;fill-rule:evenodd;stroke:none;stroke-width:1.16487"
       d="m 1982.4099,264.35159 -51.1589,-9.74442 v -45.06876 l 146.1686,-17.05284 h 2.4363 l 21.9248,14.61683 v 531.07843 l 47.5047,6.09065 v 48.72253 h -213.1621 v -48.72253 l 46.2866,-6.09065 z"
       id="path2061" />
    <path
       style="fill:#000000;fill-opacity:1;fill-rule:evenodd;stroke:none;stroke-width:1.16487"
       d="m 2187.0457,590.7946 1.2183,-17.05327 1.2182,-15.83462 1.2178,-15.83506 3.6543,-15.83508 3.654,-14.61683 4.8725,-13.39863 6.0902,-13.39863 6.0907,-12.18086 7.3085,-12.18086 7.3082,-10.96261 8.5262,-9.74442 9.7444,-9.74442 9.745,-8.52664 9.7444,-8.52665 10.9626,-7.30841 12.181,-6.09021 10.9625,-6.0902 12.1809,-4.87244 13.3987,-3.65421 12.1804,-3.65421 13.3989,-2.436 13.3987,-2.43644 13.3988,-1.21776 h 14.6167 l 21.9257,1.21776 10.9621,1.21823 10.9628,1.21821 19.4892,3.65423 9.7448,3.6542 8.5264,2.43599 9.7442,3.65423 8.5268,4.87241 7.3083,4.872 8.5267,4.87242 7.3084,4.87243 7.3085,6.0902 3.6542,2.43599 3.654,3.65423 6.0902,6.09064 7.3085,7.30841 6.0907,7.30842 4.8722,8.52621 4.8722,7.30841 2.436,4.87244 2.436,3.65421 4.8725,9.74442 3.6542,8.52664 3.6541,9.74442 4.8726,19.48927 2.4359,10.96264 2.4363,10.96262 1.218,10.96265 1.2182,10.96261 v 12.18086 12.18042 18.27105 l -1.2182,17.0533 -2.436,15.83459 -2.4366,15.83509 -4.8719,14.61683 -3.6542,13.39865 -6.0907,13.39905 -6.0902,12.18043 -7.3082,12.18084 -8.5264,10.96263 -3.654,4.87243 -4.8727,4.87198 -8.5265,9.74485 -9.7445,8.52621 -9.7444,7.30841 -10.9626,7.30845 -12.1808,6.09064 -12.1808,6.0902 -12.1804,4.87242 -12.181,3.65423 -12.1809,3.65421 -13.3985,2.43597 -14.617,1.21824 -13.399,1.21777 h -14.6169 -21.9248 l -10.963,-1.21777 -9.7445,-1.21824 -20.707,-4.87241 -8.5265,-2.436 -9.7446,-3.65421 -8.5265,-3.65421 -8.5262,-3.6542 -8.5267,-4.87244 -7.3084,-4.872 -8.5268,-6.09065 -7.3082,-4.87198 -3.6544,-3.6542 -2.4359,-2.43643 -7.3085,-7.30842 -6.0902,-7.30844 -6.0906,-7.30842 -4.8719,-7.30841 -6.0907,-8.5262 -2.4361,-3.65422 -2.4364,-4.87243 -3.6542,-8.52665 -3.6543,-9.74442 -3.654,-8.52661 -6.0902,-20.70707 -2.4362,-9.74441 -1.2181,-10.96265 -1.2178,-10.96262 -1.2182,-12.18085 -1.2183,-12.18086 z m 203.4176,158.34887 h 8.5267 l 4.8725,-1.21779 3.6543,-1.2182 7.3082,-2.436 3.6542,-2.43644 2.436,-1.21778 7.3085,-6.09064 2.4359,-2.436 2.4365,-3.6542 6.0902,-7.30842 3.6542,-9.74442 4.8725,-9.74485 2.436,-10.96264 3.6542,-13.39862 2.4365,-13.39863 1.2177,-15.83508 2.4365,-17.05283 v -18.27107 -19.48926 -20.70706 -9.74485 -9.74441 l -2.4365,-17.05283 -1.2177,-17.0533 -2.4365,-14.61685 -2.436,-13.39862 -3.6542,-13.39862 -3.6542,-9.74485 -2.4363,-6.09022 -2.4362,-3.6542 -4.8723,-8.52664 -6.0903,-7.30842 -6.0902,-4.87201 -7.3085,-4.87242 -3.6542,-2.43599 -4.8723,-1.21823 -8.5267,-1.21821 -9.7444,-1.21776 -8.5265,1.21776 -7.3082,1.21821 -8.5266,3.65422 -6.0902,3.65423 -7.3088,6.0902 -4.872,6.09064 -6.0906,8.52619 -4.8721,8.52664 -3.6541,10.96262 -3.6542,10.96265 -3.6543,13.39862 -2.4359,13.39908 -1.2183,15.83463 -2.436,15.83505 v 18.27106 18.27105 20.70705 19.48927 l 2.436,17.05285 1.2183,17.05327 2.4359,14.61686 3.6543,14.61685 3.6542,12.18039 3.6541,10.96265 4.8721,9.74485 2.4364,3.6542 2.436,3.65422 6.0902,7.30843 7.3088,6.0902 7.3086,4.87243 7.3082,2.436 4.872,1.2182 4.8725,1.21779 z"
       id="path2063" />
    <path
       style="fill:#000000;fill-opacity:1;fill-rule:evenodd;stroke:none;stroke-width:1.16487"
       d="m 2635.296,592.01238 v -15.83461 l 1.2178,-15.83509 2.4365,-14.61683 2.4359,-14.61684 3.6543,-14.61685 2.4359,-6.09022 2.4363,-7.3084 2.436,-6.09065 3.6542,-6.09021 6.0902,-13.39862 6.0902,-12.18086 8.5267,-10.96264 7.3085,-9.74442 9.7449,-9.74485 8.5262,-9.74441 10.9627,-8.52665 10.9625,-7.30842 10.9628,-7.30841 12.1808,-6.09021 13.3985,-6.09021 6.0902,-2.43643 6.0906,-1.21778 13.3988,-3.6542 14.6167,-3.65423 14.617,-2.43644 14.6168,-1.21776 h 15.8351 14.617 l 13.3984,1.21776 12.1809,1.21823 12.1804,1.21821 10.9632,2.436 12.1804,2.43601 23.1434,7.3084 17.0529,3.65421 8.5267,2.43644 -4.8724,132.7694 h -74.3024 l -18.2707,-84.04687 -2.4366,-4.87199 -2.436,-3.65422 -3.6542,-2.43643 -3.654,-2.43599 -4.8725,-2.43599 -6.0902,-1.21823 h -6.0907 l -7.3079,-1.21821 -8.5267,1.21821 -7.3083,1.21823 -3.6543,1.21778 -3.6543,1.21821 -3.6542,2.43599 -3.6543,1.21824 -6.0905,4.87241 -6.0902,6.0902 -6.0902,7.30842 -4.8727,7.30843 -4.8719,9.74442 -3.6542,9.74485 -3.6543,12.18041 -2.4363,13.39907 -2.436,14.61685 -1.2182,15.83462 -1.2183,18.27106 v 18.27106 18.27105 l 1.2183,17.05328 2.4359,15.83463 2.4366,14.61684 3.654,14.61684 4.8725,12.18085 4.8719,10.96265 4.8727,10.96261 7.3082,9.74442 2.436,3.65423 3.6542,3.65422 7.3085,7.3084 4.8725,3.65421 3.6543,2.43644 8.5266,3.6542 4.8719,2.43601 3.6543,1.21821 4.8725,1.21779 h 4.8719 l 10.9626,1.21821 h 13.399 l 13.3988,-2.436 12.1808,-1.21821 12.1804,-3.65421 13.3992,-3.65421 10.9624,-4.87244 12.1805,-6.0902 10.9628,-6.09021 20.7074,43.85054 -4.8725,4.87199 -6.0902,4.87243 -12.1809,9.7444 -8.5266,3.65423 -7.3078,4.87243 -19.4894,9.7444 -9.7449,4.87244 -10.9627,3.65421 -10.9621,2.436 -10.9626,3.65421 -10.9631,1.2182 -10.9626,1.21824 -12.1804,1.21777 h -12.1808 -12.1811 -10.9627 l -10.9622,-1.21777 -10.9624,-2.43644 -9.745,-1.21777 -10.9627,-2.43644 -18.2711,-6.09021 -8.5261,-3.65421 -8.5265,-4.87243 -8.5269,-4.87198 -7.3083,-4.87244 -7.3084,-4.87244 -7.3084,-6.09017 -6.0902,-7.30845 -6.0902,-6.0902 -10.9631,-14.61683 -4.8719,-8.52665 -4.8727,-7.30841 -4.8722,-8.52664 -3.6539,-9.74442 -6.0906,-18.27106 -3.6542,-9.74442 -2.436,-9.74485 -1.2183,-9.74444 -2.4359,-10.96262 -1.2182,-10.96264 v -10.96263 l -1.2178,-10.96265 z"
       id="path2065" />
    <path
       style="fill:#000000;fill-opacity:1;fill-rule:evenodd;stroke:none;stroke-width:1.16487"
       d="m 3003.1532,676.05924 v -8.52619 l 1.2182,-7.30844 1.218,-7.30841 2.4363,-7.30842 1.2177,-7.30844 3.6542,-7.30841 2.4366,-6.09064 4.8719,-6.09021 3.6542,-6.09022 4.8724,-6.09063 6.0902,-6.09021 4.8725,-4.87241 13.3985,-9.74442 15.8351,-9.74442 17.0529,-7.30843 18.2711,-7.30842 19.4891,-6.09065 20.7072,-4.87199 23.1434,-3.65422 10.9627,-1.21821 12.1809,-1.21822 12.1804,-1.21777 12.1809,-1.21821 h 26.7976 V 527.4548 l -1.2182,-13.39863 -1.2183,-10.96263 -1.2178,-9.74487 -2.4364,-8.52619 -3.6543,-7.30842 -4.8722,-6.09065 -6.0902,-4.872 -7.3085,-4.87242 -8.5263,-2.43599 -9.7448,-2.43644 -12.1809,-2.436 h -14.6167 -17.0531 l -17.0526,2.436 -7.3085,1.21823 -8.5265,1.21821 -14.6169,3.6542 -13.3987,4.87201 -14.6168,4.87241 -14.6167,6.09021 -15.8352,6.09065 -24.3612,-52.37718 6.0902,-4.87243 8.5266,-6.0902 10.9625,-6.09021 12.1809,-6.09065 13.3987,-6.0902 15.8346,-6.09021 7.309,-3.6542 8.5261,-2.43645 18.2711,-4.87198 18.271,-4.87243 19.4893,-2.436 19.4887,-2.43644 h 19.4893 14.6169 13.3987 l 12.1807,1.21823 12.1809,2.436 10.9625,2.43644 10.9628,2.43598 9.7445,2.436 8.5265,3.6542 7.3085,4.87244 7.3083,3.65421 7.3085,6.09021 6.0902,4.87241 6.0902,6.09021 4.8723,7.30844 4.8726,7.30842 3.6543,7.30841 3.654,8.52664 2.4362,9.74442 2.4363,9.74485 2.436,10.96265 1.2182,10.96262 1.2177,12.18041 v 12.18085 l 1.2183,14.61686 v 216.81668 h 37.7604 v 46.28653 l -20.7076,3.65421 -26.7972,3.6542 -26.7977,2.43601 -24.3612,1.21822 h -12.1808 l -10.9627,-2.43599 -7.3086,-2.43644 -3.654,-1.21777 -2.4362,-2.43644 -2.4363,-1.21777 -1.2177,-3.65423 -2.4366,-2.43643 -1.2177,-4.87198 -1.2182,-3.65421 v -4.87243 l -1.2182,-10.96263 v -17.05285 l -4.872,6.0902 -4.8724,4.87244 -10.9628,9.74441 -6.0905,4.87242 -7.3079,4.872 -14.6171,8.52664 -7.3082,4.87242 -8.5267,2.436 -8.5267,3.65421 -8.5262,2.436 -9.7448,1.2182 -8.5262,2.43601 h -9.7449 -9.7444 -17.0528 l -8.5265,-1.21777 -7.3085,-2.43644 -8.5267,-1.21777 -7.3084,-3.65421 -7.3085,-2.43643 -3.654,-1.2178 -3.6543,-2.43643 -6.0902,-3.65422 -7.3086,-4.87197 -6.0905,-4.87243 -4.872,-4.87243 -6.0908,-6.0902 -4.8719,-4.87244 -4.8724,-7.30842 -3.6542,-6.0902 -3.6543,-7.30842 -3.6542,-8.52664 -3.6542,-7.30843 -1.2177,-8.5262 -2.4363,-8.52664 -1.218,-8.52664 -1.2182,-9.74442 z m 181.4924,57.24961 h 6.0907 l 7.3082,-1.21823 7.3085,-2.43597 8.5263,-3.65423 7.3085,-4.87242 7.3082,-3.65421 7.3085,-4.87244 6.0907,-6.0902 V 590.7946 h -14.6172 l -12.1804,1.21778 -12.1809,1.21822 -10.9628,2.43601 -10.9626,2.43642 -3.6542,2.43599 -4.8723,1.21823 -8.5264,4.87198 -7.3082,4.87243 -6.0902,4.87242 -3.6543,2.436 -2.4364,3.6542 -4.8725,6.09021 -3.6543,6.09065 -2.4359,6.0902 -2.436,7.30842 -1.2183,8.52664 v 7.30844 8.52619 7.30844 l 1.2183,7.3084 2.436,6.09065 1.2183,6.09021 2.4359,6.09022 3.6543,4.87241 3.6542,4.87244 3.6542,4.87198 3.654,3.65422 4.8727,2.43642 4.8723,2.436 4.8721,2.43599 6.0902,1.21821 6.0906,1.21823 z"
       id="path2067" />
    <path
       style="fill:#000000;fill-opacity:1;fill-rule:evenodd;stroke:none;stroke-width:1.16487"
       d="m 3420.9515,744.27148 38.9782,-6.09065 V 462.8972 l -43.8506,-13.39905 v -57.24916 l 132.7695,-15.83509 6.0906,2.43644 14.6168,20.70706 v 36.54213 l 6.0902,-6.09022 7.3085,-6.09064 7.3082,-4.87201 8.5268,-4.87241 18.2711,-10.96264 21.9253,-8.52665 21.9253,-7.30841 19.4887,-6.09021 9.7449,-1.21821 9.7444,-1.21779 8.5265,-1.21821 h 8.5267 8.5264 l 9.7442,1.21821 17.0534,2.436 7.3085,1.21823 7.3082,2.43598 7.3085,2.436 6.0902,3.6542 6.0903,3.65421 6.0906,3.65422 2.4359,2.43642 2.4364,2.43601 4.8721,4.87244 3.6543,4.87197 4.8724,6.09064 3.6542,6.09022 3.6542,6.09021 6.0902,-4.87198 6.0902,-6.09067 7.3088,-4.87198 8.5264,-4.87244 7.3082,-4.87241 8.5266,-4.87201 8.5263,-3.6542 9.745,-3.6542 9.7442,-3.65422 8.5268,-3.65421 9.7442,-2.43642 9.7445,-2.43601 19.4893,-2.436 19.4893,-1.21821 h 15.8345 l 7.309,1.21821 6.0902,1.21779 13.3986,2.43644 12.1808,4.87198 10.9626,4.87244 4.8725,2.43597 4.872,3.65422 9.7449,7.30843 7.308,9.74485 6.0907,9.74442 6.0902,10.96265 4.8722,13.39862 3.6543,14.61684 3.6542,15.83506 2.436,18.27106 1.2184,18.27105 v 20.70705 200.98162 l 43.8503,6.09065 v 48.72253 h -198.5455 v -48.72253 l 32.8878,-6.09065 v -198.54518 -24.3617 l -2.436,-19.48884 -2.4359,-8.52664 -1.2183,-8.52664 -2.436,-6.09021 -3.6542,-6.09021 -2.4363,-4.87242 -4.8722,-3.6542 -4.8723,-3.65423 -2.4364,-1.21821 -2.436,-1.21777 -6.0902,-2.43643 -6.0908,-2.43601 h -7.3078 l -7.3085,-1.21821 -8.5267,1.21821 -8.5265,1.21823 -8.5267,2.43599 -8.5262,2.43599 -9.7446,4.87244 -8.5265,4.87241 -8.5266,4.87201 -9.7445,7.30841 1.2179,7.30842 1.2181,6.09064 1.2183,15.83462 1.2176,15.83509 v 17.05282 200.98162 l 40.1965,6.09065 v 48.72253 h -199.7634 v -48.72253 l 36.542,-6.09065 V 538.41742 514.05617 l -2.436,-20.7075 -1.218,-7.30841 -2.4362,-8.5262 -2.436,-6.09065 -2.4363,-4.872 -3.6542,-4.87242 -3.6543,-3.6542 -3.6542,-3.65423 -4.8724,-3.6542 -6.0902,-1.21821 -6.0902,-2.43601 h -7.3085 l -7.3083,-1.21821 -10.9628,1.21821 -9.7448,1.21823 -9.7443,3.65421 -9.7444,3.65421 -9.7445,4.87197 -9.7449,4.87244 -8.5265,6.09021 -7.3081,6.09065 v 260.66677 l 38.9782,6.09065 v 48.72253 h -199.7635 z"
       id="path2069" />
    <path
       style="fill:#000000;fill-opacity:1;fill-rule:evenodd;stroke:none;stroke-width:1.16487"
       d="m 4126.2143,209.53841 143.732,-17.05284 h 1.2183 l 24.3612,14.61683 v 213.16204 l 4.8723,-4.87198 4.8725,-3.65421 10.9626,-8.52664 12.1804,-8.52665 13.3987,-6.0902 14.6172,-6.09019 7.3085,-2.43644 7.3086,-1.21779 7.3078,-1.21821 7.3086,-1.21823 15.835,-1.21776 17.0531,1.21776 8.5262,1.21823 7.3085,1.21821 8.5266,1.21779 7.3085,2.43644 7.3085,2.43598 7.3083,2.436 7.3085,3.6542 6.0902,3.65421 7.3085,3.65422 6.0907,4.87243 6.0902,4.87244 6.0902,4.87197 10.9625,12.18086 10.9626,12.18084 8.5267,15.83463 7.3083,15.83506 6.0902,18.27106 4.8726,19.48927 3.6543,21.92526 1.218,23.14307 1.2179,24.3617 v 15.83461 l -1.2179,14.61685 -2.4363,15.83505 -3.6544,14.61686 -3.6542,13.39862 -3.654,14.61685 -3.6543,6.09065 -2.4359,7.30842 -6.0902,12.18041 -7.3085,12.18085 -7.3085,12.18086 -4.8724,6.0902 -3.6542,4.87242 -9.7445,10.96264 -4.8723,4.87198 -4.8726,4.87244 -10.9625,8.52664 -4.8719,4.87198 -6.0908,3.6542 -12.1804,7.30845 -12.1809,7.30841 -13.3989,6.09064 -13.3987,4.87201 -14.6168,3.6542 -14.617,3.65421 -15.8344,2.43644 -15.8351,1.21777 h -15.8351 -30.4515 l -14.6173,-1.21777 -13.3986,-1.21824 -24.3612,-2.43597 -23.1436,-4.87244 -19.4887,-4.87243 -15.835,-3.65422 -12.1809,-4.87197 -8.5264,-3.65421 V 261.91559 l -51.1589,-9.74486 z m 228.9972,237.52373 h -8.5268 l -8.5266,2.43601 -8.5262,2.43643 -8.5265,3.65421 -7.3086,3.65421 -7.3085,4.87199 -6.0902,4.87242 -4.8723,4.87244 v 265.5392 l 1.2183,3.65422 3.654,2.436 4.8725,3.6542 6.0902,2.43644 7.3086,1.21778 7.3083,1.21821 8.5261,1.21822 h 8.5268 9.7449 l 4.8719,-1.21822 4.8723,-1.21821 8.5269,-3.65422 8.5262,-4.87199 7.3082,-6.09065 7.3085,-7.30842 7.3085,-8.52621 6.0907,-9.74485 6.0902,-12.18041 4.8722,-12.18086 3.6539,-14.61683 3.6543,-14.61685 2.4363,-17.05283 1.2179,-8.52664 1.218,-8.52664 1.2183,-19.48883 v -20.7075 -17.05283 l -1.2183,-15.83506 -1.218,-14.61686 -2.4362,-14.61685 -3.654,-12.18042 -3.6542,-10.96262 -3.6543,-9.74485 -4.8719,-9.74442 -2.4366,-3.65423 -2.4359,-3.6542 -6.0902,-7.30842 -6.0907,-4.87244 -3.6543,-2.43597 -3.6542,-2.436 -3.654,-2.43644 -3.6542,-1.21777 -7.3086,-2.43643 -8.5262,-2.43601 z"
       id="path2071" />
    <path
       style="fill:#000000;fill-opacity:1;fill-rule:evenodd;stroke:none;stroke-width:1.16487"
       d="m 4690.1806,322.81896 h -7.3083 l -6.0902,-1.21821 -6.0902,-1.21778 -6.0907,-2.43644 -6.0902,-2.43599 -4.8725,-2.436 -4.8719,-3.65421 -4.8725,-3.65421 -3.6543,-4.87244 -3.6541,-3.6542 -3.6542,-6.09022 -2.436,-4.87241 -1.2183,-4.87244 -2.4359,-6.0902 v -6.09021 -7.30841 -7.30842 l 1.2177,-7.30843 1.2182,-6.09065 2.436,-7.30842 2.4364,-6.0902 3.6543,-4.87244 3.6542,-6.09021 4.8719,-4.87241 4.8726,-4.87201 4.8722,-3.6542 6.0902,-3.65421 6.0902,-2.43644 7.3087,-2.43599 7.3084,-1.21821 7.3083,-1.21778 h 8.5267 7.3084 l 7.3085,1.21778 7.3082,1.21821 6.0902,1.21822 6.0909,2.43601 6.0902,3.6542 4.8723,2.43598 4.8719,4.87244 3.6543,3.65421 3.6542,4.87243 3.6543,4.87198 2.4364,4.87244 1.2178,6.0902 2.4364,6.09065 v 6.09021 6.0902 7.30842 l -1.2182,7.30841 -1.2182,7.30844 -2.4361,6.09065 -2.4359,7.30841 -3.6543,4.872 -3.6541,6.09065 -4.8725,4.87198 -4.8723,4.87244 -6.0902,3.6542 -6.0902,3.65421 -6.0907,2.43599 -7.3085,2.43644 -8.5261,1.21778 -7.3085,1.21821 z m -45.0682,140.07824 -48.723,-14.61683 V 393.4672 l 146.1683,-17.0533 h 1.2183 l 23.143,14.61685 v 347.15008 l 43.8506,6.09065 v 48.72253 h -210.7262 v -48.72253 l 45.069,-6.09065 z"
       id="path2073" />
    <path
       style="fill:#000000;fill-opacity:1;fill-rule:evenodd;stroke:none;stroke-width:1.16487"
       d="m 4850.966,590.7946 v -17.05327 l 1.2182,-15.83462 2.436,-15.83506 3.6542,-15.83508 3.6543,-14.61683 4.8723,-13.39863 4.8725,-13.39863 7.3083,-12.18086 7.3085,-12.18086 7.3083,-10.96261 8.5264,-9.74442 9.7449,-9.74442 9.7442,-8.52664 9.7447,-8.52665 10.9625,-7.30841 10.9626,-6.09021 12.181,-6.0902 12.1808,-4.87244 13.3985,-3.65421 12.1809,-3.65421 13.3986,-2.436 13.3987,-2.43644 13.3989,-1.21776 h 13.3987 l 23.1434,1.21776 10.9628,1.21823 9.7445,1.21821 20.7069,3.65423 8.5266,3.6542 9.7445,2.43599 8.5266,3.65423 8.5268,4.87241 8.5261,4.872 8.5266,4.87242 7.3086,4.87243 7.3082,6.0902 3.6542,2.43599 3.6543,3.65423 6.0902,6.09064 6.0907,7.30841 6.0902,7.30842 6.0902,8.52621 4.8725,7.30841 2.436,4.87244 2.4363,3.65421 3.6542,9.74442 4.8719,8.52664 2.4365,9.74442 6.0902,19.48927 2.4362,10.96264 1.218,10.96262 2.436,10.96265 1.2183,10.96261 v 12.18086 12.18042 18.27105 l -1.2183,17.0533 -2.436,15.83459 -3.6542,15.83509 -3.654,14.61683 -4.8727,13.39865 -4.8719,13.39905 -7.3085,12.18043 -7.3082,12.18084 -7.3085,10.96263 -3.6542,4.87243 -4.8724,4.87198 -8.5268,9.74485 -9.7442,8.52621 -10.9628,7.30841 -10.9625,7.30845 -10.9627,6.09064 -12.1809,6.0902 -12.1804,4.87242 -12.1809,3.65423 -13.3987,3.65421 -13.3989,2.43597 -13.3987,1.21824 -13.3987,1.21777 h -14.6168 -21.9252 l -10.9626,-1.21777 -10.9627,-1.21824 -19.4892,-4.87241 -9.7444,-2.436 -8.5266,-3.65421 -8.5268,-3.65421 -8.5262,-3.6542 -8.5266,-4.87244 -8.5265,-4.872 -7.3085,-6.09065 -7.3085,-4.87198 -3.6542,-3.6542 -3.6544,-2.43643 -6.0902,-7.30842 -6.0902,-7.30844 -6.0906,-7.30842 -6.0902,-7.30841 -4.8724,-8.5262 -2.4359,-3.65422 -2.4361,-4.87243 -3.6541,-8.52665 -3.6543,-9.74442 -3.6542,-8.52661 -6.0906,-20.70707 -2.4359,-9.74441 -1.2183,-10.96265 -2.436,-10.96262 v -12.18085 l -1.2182,-12.18086 z m 203.4181,158.34887 h 8.5261 l 3.6544,-1.21779 4.8723,-1.2182 7.3085,-2.436 2.4359,-2.43644 3.6543,-1.21778 6.0906,-6.09064 3.6543,-2.436 2.4359,-3.6542 4.8723,-7.30842 4.8722,-9.74442 3.6542,-9.74485 3.654,-10.96264 3.6543,-13.39862 2.4364,-13.39863 1.2178,-15.83508 1.2184,-17.05283 1.218,-18.27107 v -19.48926 -20.70706 -9.74485 l -1.218,-9.74441 -1.2184,-17.05283 -1.2178,-17.0533 -2.4364,-14.61685 -2.436,-13.39862 -3.6542,-13.39862 -3.6543,-9.74485 -2.4359,-6.09022 -2.4364,-3.6542 -4.8719,-8.52664 -6.0908,-7.30842 -6.0902,-4.87201 -7.3083,-4.87242 -4.8726,-2.43599 -3.654,-1.21823 -8.5264,-1.21821 -9.7449,-1.21776 -8.5262,1.21776 -8.5265,1.21821 -7.3085,3.65422 -7.3083,3.65423 -6.0902,6.0902 -6.0906,6.09064 -4.8721,8.52619 -4.8724,8.52664 -3.6543,10.96262 -3.6542,10.96265 -3.6543,13.39862 -2.4359,13.39908 -2.4363,15.83463 -1.218,15.83505 v 18.27106 l -1.218,18.27105 1.218,20.70705 v 19.48927 l 1.218,17.05285 2.4363,17.05327 2.4359,14.61686 2.4362,14.61685 3.654,12.18039 4.8726,10.96265 4.8724,9.74485 2.4362,3.6542 2.4359,3.65422 6.0906,7.30843 7.3082,6.0902 7.3086,4.87243 7.3085,2.436 4.8719,1.2182 3.6543,1.21779 z"
       id="path2075" />
    <path
       style="fill:#e6b563;fill-opacity:1;fill-rule:evenodd;stroke:none;stroke-width:1.16487"
       d="m 5295.562,749.14347 v -7.30843 l 1.2177,-7.30842 1.2183,-6.0902 1.2184,-6.09022 3.654,-4.87241 2.4362,-6.09021 3.654,-4.87243 4.8725,-4.87242 4.8719,-4.87199 2.4365,-1.21821 2.436,-2.43601 4.8724,-2.43643 4.872,-3.65422 4.8725,-1.21776 6.0902,-1.21823 4.8723,-1.21821 h 6.0902 6.0907 4.8721 l 4.8723,1.21821 4.8725,2.43599 4.8719,1.21821 3.6543,3.65422 3.6542,2.436 2.4365,1.21823 1.2176,2.43597 3.6543,3.65423 2.4365,3.65422 3.654,9.74485 1.218,3.6542 1.2182,4.872 1.2181,4.87242 v 6.0902 7.30842 l -1.2181,7.30843 -1.2182,6.09065 -2.436,7.30842 -2.436,4.87199 -3.6542,6.09065 -3.6542,4.87198 -3.6543,4.87243 -4.8724,3.65421 -4.8725,3.65421 -6.0902,2.436 -4.8723,2.43644 -6.0902,2.43597 -6.0903,1.21824 -6.0906,1.21777 h -6.0902 l -9.7444,-1.21777 -4.8725,-1.21824 -3.6542,-1.2182 -7.3084,-4.87198 -3.6543,-2.43643 -3.6542,-3.65423 -3.654,-3.65422 -2.4362,-3.6542 -2.4365,-4.87198 -2.4359,-3.65423 -1.2183,-4.87242 -1.2177,-4.87243 v -6.0902 z"
       id="path2077" />
    <path
       style="fill:#e6b563;fill-opacity:1;fill-rule:evenodd;stroke:none;stroke-width:1.16487"
       d="m 5745.03,486.04026 -19.4894,-23.14306 -8.5266,-9.74485 -8.5262,-8.52621 -7.3084,-7.30842 -7.3083,-4.87242 -7.3085,-2.43599 -6.0906,-1.21823 h -6.0902 l -7.3085,1.21823 -6.0902,2.43599 -6.0907,2.43599 -6.0902,3.65421 -6.0902,3.65423 -6.0906,6.09064 -6.0902,4.87198 -4.8724,7.30841 -6.0902,7.30845 -4.8725,7.30841 -4.8719,8.52665 -4.8725,8.52664 -3.654,9.74442 -8.5269,21.92526 -2.436,10.96263 -3.6542,10.96263 -2.436,12.18086 -1.218,12.18039 -2.4362,13.39909 -1.2181,13.39862 v 13.39863 13.39907 14.61683 l 1.2181,13.39865 1.2179,13.39862 1.2183,10.96263 2.4359,10.96263 3.6543,9.74487 3.654,8.52621 3.6542,7.3084 4.8727,6.09065 4.8723,6.09021 6.0902,4.87244 6.0902,3.6542 7.3084,3.65421 7.3084,2.43599 8.5268,1.21821 h 8.5265 l 14.6168,-1.21821 13.3987,-1.21822 7.3084,-2.43598 6.0902,-1.21823 4.8725,-2.436 6.0902,-3.6542 4.8723,-2.436 6.0902,-3.65422 10.9628,-7.3084 9.7448,-8.52665 10.9626,-10.96262 18.271,32.88789 -4.8723,6.0902 -4.8725,7.30842 -6.0902,6.09064 -7.3084,6.09022 -7.3085,6.0902 -8.5265,6.09064 -18.2711,10.96265 -9.7444,6.0902 -10.9627,3.65421 -10.9626,4.87244 -10.9625,2.43598 -12.1811,2.436 -12.1804,2.43644 -12.1808,1.21777 h -13.3986 l -15.835,-1.21777 -13.3988,-1.21824 -14.6167,-3.6542 -12.1809,-4.87241 -12.1807,-6.09022 -10.9629,-8.52664 -4.8719,-3.6542 -4.8723,-4.87201 -9.7444,-10.96262 -8.5268,-10.96264 -3.6541,-6.09065 -3.6542,-7.30842 -6.0902,-13.39862 -4.8726,-15.83506 -3.654,-15.83462 -2.4362,-8.52664 -1.218,-8.52665 -1.2184,-18.27106 -1.2176,-20.70703 1.2176,-14.61686 1.2184,-15.83506 1.218,-14.61685 3.6543,-15.83462 3.6542,-14.61686 3.6543,-14.61683 4.8719,-14.61685 6.0907,-14.61686 7.3084,-14.61683 7.3085,-13.39907 8.5262,-12.18041 9.7449,-13.39907 4.8719,-4.87198 4.8723,-6.09065 9.7444,-10.96264 12.1809,-10.96262 12.1808,-9.74442 13.3987,-8.52664 13.3988,-7.30843 7.3082,-3.65422 6.0907,-3.65421 15.8346,-4.87198 14.6168,-3.6542 17.0534,-3.65423 7.3084,-1.21821 h 8.5262 l 18.2711,-1.21823 23.1433,1.21823 12.1811,1.21821 12.1804,2.436 10.9626,1.21823 10.9624,3.6542 9.745,2.43599 7.3084,3.65423 -24.3616,95.00948 z"
       id="path2079" />
    <path
       style="fill:#e6b563;fill-opacity:1;fill-rule:evenodd;stroke:none;stroke-width:1.16487"
       d="m 5915.5597,719.90978 -1.2183,3.65422 v 3.65421 l 1.2183,4.87241 v 3.65423 l 1.2183,2.43598 1.2177,3.65421 2.4364,1.21823 1.2178,1.21821 3.6543,1.21779 h 2.4364 7.3085 l 7.3082,-3.65423 3.6543,-2.43599 4.8719,-2.43599 12.1811,-9.74485 9.7442,21.92526 -7.3082,8.52666 -7.3085,8.52661 -9.7446,8.52621 -9.7444,8.52664 -6.0906,3.65421 -6.0902,3.65421 -7.3083,2.436 -7.3085,2.43644 -7.3085,2.43597 -7.3082,1.21824 -18.2711,1.21777 -12.1809,-1.21777 -12.1804,-2.43644 -6.0906,-1.21777 -4.8721,-1.21823 -9.745,-6.09021 -3.654,-2.43643 -3.6542,-3.65422 -3.6542,-3.6542 -2.436,-3.65421 -1.2183,-4.872 -2.4359,-4.87242 v -6.09021 l -1.2183,-6.09063 3.6542,-25.57948 63.3399,-468.95684 -46.2865,-14.61685 6.0902,-26.7977 125.4613,-14.61683 15.8346,9.74442 z"
       id="path2081" />
    <path
       style="fill:#e6b563;fill-opacity:1;fill-rule:evenodd;stroke:none;stroke-width:1.16487"
       d="m 6148.2112,581.04975 -3.6543,23.14347 -2.4359,14.61686 -4.8726,47.50474 -1.2176,15.83506 -1.2183,9.74442 1.2183,14.61685 v 6.0902 l 1.2176,4.87244 2.4364,4.87241 1.2179,4.87201 2.4363,3.6542 2.436,3.65421 2.4362,2.43644 2.4363,2.43599 7.3083,3.65422 8.5263,2.436 4.8724,1.21821 h 4.8725 l 12.1804,-1.21821 4.8724,-1.21779 6.0902,-1.21821 12.1808,-4.87244 10.9627,-6.09021 10.9626,-7.30841 10.9625,-8.52665 8.5269,-9.74441 8.5261,-9.74441 42.6327,-316.69861 h 97.4456 l -47.5048,339.84165 v 6.09064 4.87199 l 1.2183,4.87244 1.2177,3.6542 1.2182,1.21821 1.2181,1.21778 2.4362,2.43644 2.4359,1.21779 h 3.6543 l 6.0907,-1.21779 3.6542,-1.21821 3.654,-1.21823 9.7444,-6.09019 10.9628,-8.52664 10.9626,21.92526 -6.0902,8.52666 -3.6543,3.6542 -4.8724,3.6542 -9.7444,8.52665 -10.9625,8.52618 -7.3085,4.87244 -6.0907,3.65421 -7.3084,2.436 -7.3083,2.43644 -7.3086,2.43597 -7.3085,1.21824 -8.5261,1.21777 h -7.3085 l -12.1809,-1.21777 -10.9625,-1.21824 -8.5266,-3.6542 -8.5263,-4.87241 -6.0907,-6.09022 -2.4359,-3.6542 -1.2181,-3.65423 -3.6542,-7.30842 -1.2179,-9.74442 -1.2181,-8.52664 1.2181,-6.0902 1.2179,-8.52663 -2.436,-1.21823 -6.0902,8.52665 -7.3085,7.30841 -7.3086,6.09021 -7.3082,7.30841 -14.617,10.96265 -15.8351,8.52664 -7.3082,4.87242 -8.5267,2.436 -8.5264,3.65421 -8.5265,1.21823 -8.5266,2.43597 -8.5262,1.21824 -18.2709,1.21777 h -9.745 l -9.7444,-1.21777 -4.8725,-1.21824 -4.872,-1.2182 -8.5266,-2.436 -8.5265,-2.43598 -8.5264,-4.87244 -7.3083,-3.65421 -7.3086,-6.0902 -7.3084,-4.87243 -6.0906,-7.30843 -4.8719,-7.3084 -3.6543,-8.52666 -3.6542,-9.74442 -2.4364,-9.7444 -1.2177,-10.96265 v -12.18085 -17.05283 l 2.4359,-23.1435 2.436,-29.23368 4.8724,-34.10613 3.6542,-24.36126 19.4894,-133.98761 -41.4147,-24.3617 4.8725,-30.45146 121.8067,-12.18085 17.0534,7.30842 z"
       id="path2083" />
    <path
       style="fill:#e6b563;fill-opacity:1;fill-rule:evenodd;stroke:none;stroke-width:1.16487"
       d="m 6597.679,423.91867 10.9627,-9.74442 10.9626,-8.52664 12.1808,-8.52621 13.3988,-7.30842 7.3082,-2.43643 7.3085,-2.436 7.3085,-2.43598 7.3084,-2.43644 7.3085,-1.21779 7.3082,-1.21821 15.8351,-1.21823 14.617,1.21823 h 7.3083 l 6.0902,1.21821 13.3991,3.65423 6.0902,2.43598 6.0902,2.436 10.9626,4.87244 9.7449,7.30841 9.7444,8.52665 7.3085,9.7444 7.3083,9.74442 6.0902,12.18086 6.0909,13.39862 3.654,13.39906 3.6542,14.61685 2.436,15.83463 1.2183,17.05328 v 18.27105 17.05285 l -1.2183,17.05283 -2.436,17.05329 -2.4364,15.83462 -4.8718,17.05327 -4.8726,15.83462 -6.0902,15.83506 -6.0906,14.61686 -8.5262,15.83506 -7.3085,13.39862 -9.7449,13.39865 -9.7444,13.39905 -10.9626,12.18041 -12.1808,10.96263 -12.1804,10.96265 -13.3991,9.74485 -13.3985,8.52621 -14.6171,7.30841 -7.3082,3.6542 -7.3085,3.65422 -15.8351,4.87243 -15.8347,3.65421 -15.8351,3.6542 -8.5265,1.21824 h -8.5262 l -18.271,1.21777 h -10.9628 l -9.7446,-1.21777 -12.1804,-2.43644 -10.9628,-1.21777 -23.1433,-6.09064 -19.4894,-6.09022 -45.0684,14.61683 69.43,-539.60505 -36.542,-14.61685 6.0902,-28.01591 112.0623,-13.39862 17.0532,9.74442 z m -42.6322,322.78881 8.5265,3.6542 9.7444,2.43601 12.1809,1.21821 12.1804,1.21822 10.9627,-1.21822 9.7447,-1.21821 9.7445,-2.43601 9.7444,-3.6542 8.5266,-4.87244 8.5268,-4.87198 7.3084,-7.30841 4.872,-3.65423 3.6541,-3.65422 6.0908,-8.52661 7.3083,-8.52664 6.0902,-9.74442 4.8725,-9.74442 4.8719,-10.96265 4.8724,-10.96262 4.8725,-12.18085 3.6543,-12.18086 2.4359,-13.39863 3.6543,-12.18086 2.4359,-13.39862 1.2182,-13.39862 2.4361,-13.39907 v -13.39865 l 1.2181,-26.79767 v -10.96265 l -1.2181,-10.96262 -1.2178,-9.74441 -1.2183,-8.52666 -2.436,-9.7444 -2.4364,-7.30845 -3.6542,-8.52661 -3.6543,-7.30845 -3.654,-6.0902 -4.8721,-6.09019 -4.8724,-4.87244 -4.8726,-3.6542 -6.0902,-3.6542 -6.0902,-2.43601 -6.0905,-1.21822 h -7.3084 l -10.9627,1.21822 -10.9625,2.43601 -4.8722,1.21819 -4.8724,2.43601 -9.7444,6.0902 -9.7448,7.30842 -9.7444,7.30841 -7.3084,8.52665 -8.5268,9.74442 z"
       id="path2085" />
  </g>
</svg>
