<?xml version="1.0" encoding="UTF-8" standalone="no"?>
<svg
   xmlns:dc="http://purl.org/dc/elements/1.1/"
   xmlns:cc="http://creativecommons.org/ns#"
   xmlns:rdf="http://www.w3.org/1999/02/22-rdf-syntax-ns#"
   xmlns:svg="http://www.w3.org/2000/svg"
   xmlns="http://www.w3.org/2000/svg"
   xmlns:sodipodi="http://sodipodi.sourceforge.net/DTD/sodipodi-0.dtd"
   xmlns:inkscape="http://www.inkscape.org/namespaces/inkscape"
   width="9000mm"
   height="9000mm"
   viewBox="0 0 9000 9000"
   version="1.1"
   id="svg8"
   inkscape:version="1.0.2-2 (e86c870879, 2021-01-15)"
   sodipodi:docname="notagree-icon.svg">
  <defs
     id="defs2">
    <pattern
       id="EMFhbasepattern"
       patternUnits="userSpaceOnUse"
       width="6"
       height="6"
       x="0"
       y="0" />
    <pattern
       id="EMFhbasepattern-4"
       patternUnits="userSpaceOnUse"
       width="6"
       height="6"
       x="0"
       y="0" />
    <pattern
       id="EMFhbasepattern-7"
       patternUnits="userSpaceOnUse"
       width="6"
       height="6"
       x="0"
       y="0" />
    <pattern
       id="EMFhbasepattern-5"
       patternUnits="userSpaceOnUse"
       width="6"
       height="6"
       x="0"
       y="0" />
    <pattern
       id="EMFhbasepattern-2"
       patternUnits="userSpaceOnUse"
       width="6"
       height="6"
       x="0"
       y="0" />
    <pattern
       id="EMFhbasepattern-73"
       patternUnits="userSpaceOnUse"
       width="6"
       height="6"
       x="0"
       y="0" />
    <pattern
       id="EMFhbasepattern-40"
       patternUnits="userSpaceOnUse"
       width="6"
       height="6"
       x="0"
       y="0" />
    <pattern
       id="EMFhbasepattern-3"
       patternUnits="userSpaceOnUse"
       width="6"
       height="6"
       x="0"
       y="0" />
  </defs>
  <sodipodi:namedview
     id="base"
     pagecolor="#ffffff"
     bordercolor="#666666"
     borderopacity="1.0"
     inkscape:pageopacity="0.0"
     inkscape:pageshadow="2"
     inkscape:zoom="0.015467961"
     inkscape:cx="17268.238"
     inkscape:cy="17114.987"
     inkscape:document-units="mm"
     inkscape:current-layer="layer1"
     inkscape:document-rotation="0"
     showgrid="false"
     inkscape:window-width="1298"
     inkscape:window-height="1040"
     inkscape:window-x="78"
     inkscape:window-y="0"
     inkscape:window-maximized="0" />
  <metadata
     id="metadata5">
    <rdf:RDF>
      <cc:Work
         rdf:about="">
        <dc:format>image/svg+xml</dc:format>
        <dc:type
           rdf:resource="http://purl.org/dc/dcmitype/StillImage" />
        <dc:title></dc:title>
      </cc:Work>
    </rdf:RDF>
  </metadata>
  <g
     inkscape:label="Capa 1"
     inkscape:groupmode="layer"
     id="layer1">
    <path
       style="fill:#000000;fill-opacity:1;fill-rule:evenodd;stroke:none;stroke-width:14.9023"
       d="m 76.342174,4506.4758 v -233.7446 l 31.169716,-218.1652 15.5794,-218.1598 46.74888,-218.1597 46.74889,-218.1653 62.33374,-202.5748 31.16391,-93.4977 31.16982,-109.0826 77.91281,-202.5806 93.49799,-186.9956 93.49777,-186.9956 109.08262,-186.9958 109.07706,-171.4105 124.66749,-171.411 124.66193,-171.4163 140.2468,-155.826 140.2465,-155.8315 155.8315,-140.2468 155.826,-140.2465 171.4163,-124.6621 171.411,-124.66744 171.4108,-109.07684 186.9955,-109.08284 186.9956,-93.49777 186.9958,-93.49777 202.5804,-77.91303 202.5803,-62.33374 218.1598,-62.33379 202.5805,-46.74888 218.1598,-46.74887 218.1595,-31.16399 218.1654,-15.58488 h 233.7445 218.1597 l 218.1596,15.58488 218.1652,31.16399 218.1597,46.74887 218.1599,46.74888 202.5805,62.33379 109.0826,31.16414 93.4978,31.1696 202.5748,77.91303 186.9955,93.49777 186.9957,93.49777 186.9957,109.08284 186.9955,109.07684 171.4165,124.66744 155.8258,124.6621 155.8316,140.2465 155.8316,140.2468 140.2466,155.8315 140.2469,155.826 140.2467,171.4163 109.0771,171.411 124.6674,171.4105 93.4978,186.9958 109.077,186.9956 77.9187,186.9956 77.9128,202.5806 77.913,202.5803 46.749,202.5748 62.3337,218.1653 31.1641,218.1597 31.1698,218.1598 15.579,218.1652 v 233.7446 218.1598 l -15.579,218.1596 -31.1698,218.1652 -31.1641,218.1597 -62.3337,218.1598 -46.749,202.5804 -31.1641,109.0826 -46.7489,93.4978 -77.9128,202.5747 -77.9187,186.9958 -109.077,186.9957 -93.4978,186.9955 -124.6674,171.4164 -109.0771,171.4108 -140.2467,171.4108 -140.2469,155.8316 -140.2466,155.8314 -155.8316,140.2468 -155.8316,140.2467 -155.8258,124.662 -171.4165,124.6617 -186.9955,124.6675 -186.9957,93.498 -186.9957,93.4977 -186.9955,93.4977 -202.5748,77.9131 -202.5804,77.9129 -202.5805,46.7489 -218.1599,46.7489 -218.1597,46.7489 -218.1652,31.1697 -218.1596,15.5793 h -218.1597 -233.7445 l -218.1654,-15.5793 -218.1595,-31.1697 -218.1598,-46.7489 -202.5805,-46.7489 -218.1598,-46.7489 -93.4977,-46.7488 -109.0826,-31.1641 -202.5804,-77.9131 -186.9958,-93.4977 -186.9956,-93.4977 -186.9955,-93.498 -171.4108,-124.6675 -171.411,-124.6617 L 1665.805,7872.3969 1509.979,7732.1502 1354.1475,7591.9034 1213.901,7436.072 1073.6542,7280.2404 948.99227,7108.8296 824.32478,6937.4188 715.24772,6766.0024 606.1651,6579.0069 512.66733,6392.0112 419.16934,6205.0154 341.25653,6002.4407 278.9228,5799.8603 216.58906,5597.2799 169.84017,5379.1201 123.09129,5160.9604 107.51189,4942.7952 76.342174,4724.6356 Z M 2242.3768,6095.9387 3894.1735,4631.1376 2055.3812,2511.852 2600.7831,1841.7882 4564.2373,4054.566 6029.038,2761.1814 6870.5185,2932.5923 5047.311,4599.9735 6714.6869,6469.9298 5997.8741,7046.4958 4392.8263,5207.7093 2554.0342,6859.5002 Z M 528.25195,4506.4758 v -202.5806 l 15.57941,-202.5804 15.58485,-202.5748 46.74889,-186.9955 31.16404,-186.9957 62.33373,-186.9957 62.33374,-186.9956 62.32817,-186.9957 77.9186,-171.4163 93.49778,-171.4108 93.49784,-155.8315 109.077,-155.826 109.0826,-155.8314 109.0826,-155.8316 124.6621,-140.2468 124.6617,-140.2467 140.2469,-124.6619 140.2466,-124.6619 155.8316,-124.6674 155.8316,-109.077 155.8261,-93.4978 155.8313,-93.498 171.4109,-93.49775 186.9955,-77.91859 171.4164,-62.32795 186.9957,-62.33374 186.9955,-62.33373 186.9957,-46.74889 186.9958,-31.16426 202.5748,-15.58486 202.5804,-15.57918 202.5804,-15.58484 202.5747,15.58484 186.9957,15.57918 202.5804,15.58486 202.5806,31.16426 186.9955,46.74889 186.9957,62.33373 171.4109,62.33374 186.9955,62.32795 171.4108,77.91859 171.4163,93.49775 155.826,93.498 171.4163,93.4978 155.8261,109.077 140.2465,124.6674 140.247,124.6619 140.2465,124.6619 124.6676,140.2467 124.6618,140.2468 124.6619,155.8316 109.0826,155.8314 93.498,155.826 93.4977,155.8315 93.4977,171.4108 77.9132,171.4163 77.9186,186.9957 62.3281,186.9956 46.7487,186.9957 46.7488,186.9957 31.1699,186.9955 31.1639,202.5748 15.585,202.5804 v 202.5806 202.5747 l -15.585,186.9956 -31.1639,202.5806 -31.1699,186.9955 -46.7488,202.5806 -46.7487,186.9955 -62.3281,171.4109 -77.9186,186.9957 -77.9132,171.4105 -93.4977,171.4166 -93.4977,155.8258 -93.498,171.4165 -109.0826,140.2467 -124.6619,155.8259 -124.6618,140.2467 -124.6676,140.2468 -140.2465,124.6676 -140.247,124.6616 -140.2465,124.6621 -155.8261,109.0826 -171.4163,93.4978 -155.826,93.4979 -171.4163,93.4977 -171.4108,77.9129 -186.9955,62.3338 -171.4109,62.3337 -186.9957,62.3281 -186.9955,46.7489 -202.5806,31.1699 -202.5804,15.579 -186.9957,15.5849 -202.5747,15.5849 -202.5804,-15.5849 -202.5804,-15.5849 -202.5748,-15.579 -186.9958,-31.1699 -186.9957,-46.7489 -186.9955,-62.3281 -186.9957,-62.3337 -171.4164,-62.3338 L 2741.03,8043.8077 2569.6191,7950.31 2413.7878,7856.8121 2257.9617,7763.3143 2102.1301,7654.2317 1946.2985,7529.5696 1806.0519,7404.908 1665.805,7280.2404 1541.1433,7139.9936 1416.4812,6999.7469 1307.3986,6843.921 1198.316,6703.6743 1089.239,6532.2578 995.74116,6376.432 902.24338,6205.0154 824.32478,6033.6049 761.99661,5846.6092 699.66287,5675.1983 637.32914,5488.2028 606.1651,5285.6222 559.41621,5098.6267 543.83136,4896.0461 528.25195,4709.0505 Z"
       id="path2712" />
  </g>
</svg>
