<?xml version="1.0" encoding="UTF-8" standalone="no"?>
<svg
   xmlns:dc="http://purl.org/dc/elements/1.1/"
   xmlns:cc="http://creativecommons.org/ns#"
   xmlns:rdf="http://www.w3.org/1999/02/22-rdf-syntax-ns#"
   xmlns:svg="http://www.w3.org/2000/svg"
   xmlns="http://www.w3.org/2000/svg"
   xmlns:sodipodi="http://sodipodi.sourceforge.net/DTD/sodipodi-0.dtd"
   xmlns:inkscape="http://www.inkscape.org/namespaces/inkscape"
   width="630mm"
   height="670mm"
   viewBox="0 0 630 670"
   version="1.1"
   id="svg2269"
   inkscape:version="1.0.2-2 (e86c870879, 2021-01-15)"
   sodipodi:docname="pic-libros.svg">
  <defs
     id="defs2263">
    <pattern
       id="EMFhbasepattern"
       patternUnits="userSpaceOnUse"
       width="6"
       height="6"
       x="0"
       y="0" />
    <pattern
       id="EMFhbasepattern-0"
       patternUnits="userSpaceOnUse"
       width="6"
       height="6"
       x="0"
       y="0" />
  </defs>
  <sodipodi:namedview
     id="base"
     pagecolor="#ffffff"
     bordercolor="#666666"
     borderopacity="1.0"
     inkscape:pageopacity="0.0"
     inkscape:pageshadow="2"
     inkscape:zoom="0.0875"
     inkscape:cx="1841.9917"
     inkscape:cy="753.58605"
     inkscape:document-units="mm"
     inkscape:current-layer="layer1"
     inkscape:document-rotation="0"
     showgrid="false"
     inkscape:window-width="1298"
     inkscape:window-height="1040"
     inkscape:window-x="78"
     inkscape:window-y="0"
     inkscape:window-maximized="0" />
  <metadata
     id="metadata2266">
    <rdf:RDF>
      <cc:Work
         rdf:about="">
        <dc:format>image/svg+xml</dc:format>
        <dc:type
           rdf:resource="http://purl.org/dc/dcmitype/StillImage" />
        <dc:title></dc:title>
      </cc:Work>
    </rdf:RDF>
  </metadata>
  <g
     inkscape:label="Capa 1"
     inkscape:groupmode="layer"
     id="layer1">
    <path
       style="fill:#000000;fill-opacity:1;fill-rule:nonzero;stroke:none;stroke-width:1.51963"
       d="m 378.66676,551.51964 217.69701,-209.75205 3.17785,-3.17804 4.76712,-1.58905 h 1.5892 l 1.5892,1.58905 3.17793,1.58905 1.5892,1.58899 v 3.1781 4.76709 4.76709 l -1.5892,3.17804 -1.58928,3.17805 -1.58865,3.1781 -1.5892,1.58899 -217.69699,206.574 -6.35631,4.76709 -4.7671,4.7671 h -3.17787 l -3.17844,1.58905 h -4.76709 l -4.7671,-1.58905 -4.76709,-1.58905 -33.36964,-15.89027 -131.88935,-65.1503 h -6.35632 l -1.58864,9.53419 v 6.35614 l 1.58864,6.35614 1.58922,6.35609 1.58922,4.76709 3.17788,4.76709 3.17787,3.1781 12.71263,7.94513 14.30127,6.35614 15.88992,7.94514 123.94439,61.97219 h 3.17845 l 4.76709,1.589 3.17787,-1.589 3.17787,-1.58905 3.17844,-1.58905 219.28621,-209.75198 3.17792,-3.1781 3.17785,-1.589 h 1.5892 l 3.17785,1.589 3.17848,3.1781 1.58865,1.58899 v 1.58905 4.76709 4.76709 l -1.58865,3.17804 -1.5892,3.1781 -3.17793,3.17805 -1.5892,1.58905 -217.69699,208.16299 -4.76709,4.76709 -6.35632,3.17805 -1.58922,1.58905 h -3.17787 -4.76709 l -4.7671,-1.58905 -6.35631,-1.58905 -7.94496,-4.7671 -155.72481,-73.09537 -9.53418,-3.17804 -6.35632,-4.76709 -6.35631,-4.76709 -4.7671,-4.7671 -4.76709,-4.76709 -3.17787,-4.76709 -3.17787,-6.35614 -1.58922,-7.94514 -1.58922,-14.30127 -1.58865,-12.71228 v -11.12318 -14.30128 -12.71228 l -1.58922,-4.76709 v -4.76709 l -1.58922,-7.94514 v -47.67092 -9.53418 l 1.58922,-7.94514 3.17787,-6.35614 4.76709,-7.94513 4.76709,-6.35614 4.76709,-6.35615 7.94554,-6.35608 7.94496,-6.35614 168.43745,-139.83472 12.71204,-11.12318 4.7671,-3.1781 3.17787,-3.17803 h 4.76709 4.76709 4.76709 l 4.7671,1.58905 4.76709,1.58898 179.56088,81.04057 3.17785,3.1781 3.17785,1.58899 1.5892,3.1781 v 3.17804 6.35614 1.589 l -3.17785,3.1781 -104.876,95.34184 -96.93108,85.80765 -3.17787,3.17804 -3.17844,3.17805 -4.76709,1.58905 h -4.7671 -3.17786 -3.17788 l -6.35631,-3.17805 -42.90383,-20.65741 -127.12226,-57.20511 v 47.67092 4.76709 l 1.58865,4.7671 1.58922,3.17804 3.17787,4.76709 6.35632,4.76709 4.76708,3.1781 7.94497,3.17804 143.01276,69.91733 12.71263,6.35614 3.17786,1.58905 h 4.7671 4.76709 l 3.17787,-1.58905 z"
       id="path2851" />
    <path
       style="fill:#000000;fill-opacity:1;fill-rule:evenodd;stroke:none;stroke-width:1.51963"
       d="m 62.449477,224.17934 v -3.17804 l 1.589222,-1.58905 3.177865,-3.17805 3.177873,-1.58905 h 4.767093 l 74.68482,23.83546 4.76709,1.58905 1.58865,1.589 1.58922,3.1781 3.17787,4.76709 v 1.58899 3.1781 l 1.58922,20.65736 v 3.1781 l -1.58922,1.589 -3.17787,3.17809 -4.76709,1.58899 h -4.76709 l -73.0956,-20.65736 -4.767093,-3.1781 -3.177873,-1.58899 -1.589222,-1.58904 -1.588643,-4.7671 v -3.17804 -3.1781 z m 244.710903,-57.20511 -1.58922,-4.76708 v -3.17805 l -1.58922,-3.1781 -4.76709,-3.17804 h -3.17787 l -12.71206,-3.17804 -147.77984,-36.54774 -7.94554,-1.589 h -6.35574 -6.35632 -4.76709 l -4.76709,3.17805 -4.76709,1.58905 -3.177868,4.76708 -36.548088,36.54769 128.711476,34.95869 42.90383,11.12318 6.35632,3.1781 4.76708,3.17805 3.17788,3.17803 1.58922,4.7671 1.58922,3.1781 v 4.76709 28.60255 l -95.34184,76.27347 -9.53418,7.94514 -9.53418,7.94513 v 1.58905 l -6.35632,7.94513 -1.58922,4.7671 -1.58865,4.76709 -1.58922,4.76709 v 4.76709 l -1.58922,12.71229 v 55.61605 l 1.58922,9.53418 3.17787,11.12324 -1.58865,19.06837 -76.273468,-22.24647 h -4.767095 l -4.767088,-3.17804 -3.178445,-1.58905 -3.177872,-3.17805 -1.589223,-4.76709 -1.588642,-3.17804 v -4.76709 l -1.589223,-17.47938 -7.944967,-217.69718 -1.589223,-9.53418 v -9.53418 l 1.589223,-9.53419 1.58865,-7.94514 3.178445,-7.94518 3.177872,-7.94514 4.767088,-7.94514 3.177872,-3.1781 3.178445,-3.17803 34.958291,-38.13674 3.178445,-3.178046 4.767088,-3.1781 7.944959,-4.767087 9.534188,-11.123178 9.53418,-11.123233 9.53419,-7.94514 9.53418,-9.534182 12.71205,-11.123232 12.71263,-6.356142 6.35574,-3.178042 6.35632,-1.58905 h 7.94496 6.35631 l 7.94496,1.58905 9.53419,1.58905 158.90326,41.314776 7.94496,3.178045 4.76709,1.58905 4.76709,1.58905 3.17844,3.178037 1.58865,3.178046 1.58923,3.1781 v 6.356082 6.356146 46.08187 l -6.35632,4.76709 -14.30128,11.12324 -3.17786,3.17803 1.58922,-54.027 v -3.1781 l -1.58922,-3.17804 -1.58923,-3.17804 -6.35573,-4.767096 -128.71149,-30.191598 -15.8905,-3.178045 -28.60255,-6.356145 h -3.17787 -3.17844 l -1.58865,1.58905 h -3.17845 l -4.76709,3.178045 -6.35574,4.767095 -4.76709,4.767088 -4.76709,4.767095 -6.35632,7.945133 4.7671,3.1781 136.65644,33.369638 33.36964,7.94514 4.7671,3.17804 4.76709,1.58905 3.17845,3.17805 1.58864,1.58905 v 3.17803 l 1.58922,6.35615 v 7.94513 33.36964 l -1.58922,1.58905 -22.24624,17.47933 z"
       id="path2853" />
  </g>
</svg>
